#N canvas 263 128 802 424 10;
#X obj 15 61 inlet~;
#X obj 14 89 *~ 1;
#X obj -15 373 outlet~;
#X obj 105 103 vsl 15 128 0 200 0 0 empty empty empty 0 -9 0 10 -262144
-1 -1 2270 1;
#X obj 105 274 tgl 15 0 empty empty empty 17 7 0 10 -262144 -1 -1 1
1;
#X obj 49 90 / 100;
#X obj 119 59 loadbang;
#X obj 103 236 hsl 20 15 -45 45 0 0 empty empty empty -2 -8 0 10 -262144
-1 -1 950 1;
#X obj 105 255 bng 15 250 50 0 empty empty empty 17 7 0 10 -262144
-1 -1;
#X msg 69 218 0;
#X obj 48 373 outlet~;
#X obj 13 337 pan~;
#X obj 186 19 inlet;
#X obj 197 158 r osc-mix-pan;
#X obj 129 215 expr $f1*90-45;
#X obj 186 61 s \$0-channel;
#X obj 272 42 r \$0-channel;
#X obj -52 38 r \$0-channel;
#X floatatom 186 40 5 0 0 0 - - -;
#X obj -110 158 mik-phrase-detector~;
#X obj 14 115 *~ 0;
#X msg 120 79 200;
#X obj 197 180 mik-osc-mix-router;
#X obj 350 99 list split 1;
#X obj 350 126 sel 0;
#X obj 394 127 list split 1;
#X obj 349 70 r mix-broadcast;
#X obj 395 179 f;
#X obj 363 204 f;
#X obj 394 151 sel channel-volume channel-mute;
#X obj 473 211 f;
#X obj 473 181 f;
#X connect 0 0 1 0;
#X connect 1 0 20 0;
#X connect 3 0 5 0;
#X connect 3 0 28 1;
#X connect 3 0 27 1;
#X connect 4 0 20 1;
#X connect 4 0 30 1;
#X connect 4 0 31 1;
#X connect 5 0 1 1;
#X connect 6 0 21 0;
#X connect 6 0 9 0;
#X connect 7 0 11 1;
#X connect 8 0 9 0;
#X connect 9 0 7 0;
#X connect 11 0 2 0;
#X connect 11 1 10 0;
#X connect 12 0 18 0;
#X connect 13 0 22 0;
#X connect 14 0 7 0;
#X connect 16 0 22 1;
#X connect 16 0 24 1;
#X connect 17 0 19 1;
#X connect 18 0 15 0;
#X connect 20 0 11 0;
#X connect 20 0 19 0;
#X connect 21 0 3 0;
#X connect 21 0 28 1;
#X connect 22 0 14 0;
#X connect 23 0 24 0;
#X connect 23 1 25 0;
#X connect 24 0 28 0;
#X connect 24 0 30 0;
#X connect 25 0 29 0;
#X connect 25 1 27 1;
#X connect 25 1 31 1;
#X connect 26 0 23 0;
#X connect 27 0 28 1;
#X connect 28 0 3 0;
#X connect 29 0 27 0;
#X connect 29 1 31 0;
#X connect 30 0 4 0;
#X connect 31 0 30 1;
#X coords 0 -1 1 1 25 190 2 100 100;
