#N canvas 270 166 654 424 10;
#X obj 15 61 inlet~;
#X obj 14 89 *~ 1;
#X obj 14 371 outlet~;
#X obj 105 103 vsl 15 128 0 600 0 0 empty empty empty 0 -9 0 10 -262144
-1 -1 12700 1;
#X obj 105 274 tgl 15 0 empty empty empty 17 7 0 10 -262144 -1 -1 1
1;
#X obj 49 90 / 100;
#X obj 119 59 loadbang;
#X obj 103 236 hsl 20 15 -45 45 0 0 empty empty empty -2 -8 0 10 -262144
-1 -1 950 1;
#X obj 105 255 bng 15 250 50 0 empty empty empty 17 7 0 10 -262144
-1 -1;
#X msg 69 218 0;
#X obj 77 373 outlet~;
#X obj 42 337 pan~;
#X obj 167 108 r osc-mix-vol;
#X obj 167 130 mik-osc-mix-router;
#X obj 256 29 inlet;
#X obj 197 180 mik-osc-mix-router;
#X obj 197 158 r osc-mix-pan;
#X obj 227 230 mik-osc-mix-router;
#X obj 227 208 r osc-mix-mute;
#X obj 131 106 * 128;
#X obj 129 215 expr $f1*90-45;
#X obj 256 51 s \$0-channel;
#X obj 282 102 r \$0-channel;
#X obj -72 111 r \$0-channel;
#X floatatom 221 52 5 0 0 0 - - -;
#X obj -130 141 mik-phrase-detector~;
#X obj 14 115 *~ 0;
#X msg 120 79 200;
#X connect 0 0 1 0;
#X connect 1 0 26 0;
#X connect 3 0 5 0;
#X connect 4 0 26 1;
#X connect 5 0 1 1;
#X connect 6 0 27 0;
#X connect 6 0 9 0;
#X connect 7 0 11 1;
#X connect 8 0 9 0;
#X connect 9 0 7 0;
#X connect 11 0 2 0;
#X connect 11 1 10 0;
#X connect 12 0 13 0;
#X connect 13 0 19 0;
#X connect 14 0 21 0;
#X connect 14 0 24 0;
#X connect 15 0 20 0;
#X connect 16 0 15 0;
#X connect 17 0 4 0;
#X connect 18 0 17 0;
#X connect 19 0 3 0;
#X connect 20 0 7 0;
#X connect 22 0 13 1;
#X connect 22 0 15 1;
#X connect 22 0 17 1;
#X connect 23 0 25 1;
#X connect 26 0 11 0;
#X connect 26 0 25 0;
#X connect 27 0 3 0;
#X coords 0 -1 1 1 25 190 2 100 100;
