#N canvas -2 72 578 656 10;
#X declare -lib mrpeach;
#X declare -lib mrpeach;
#N canvas 801 80 550 662 controls 1;
#X obj 18 325 s start-rec;
#X obj 18 284 bng 15 250 50 0 empty empty empty 17 7 0 10 -258113 -1
-1;
#X obj 18 354 bng 15 250 50 0 empty empty empty 17 7 0 10 -260097 -1
-1;
#X obj 18 372 s stop-rec;
#X obj 93 307 osc~ 440;
#X obj 157 330 tgl 15 0 empty empty empty 17 7 0 10 -262144 -1 -1 0
1;
#X obj 93 330 *~ 0;
#X obj 157 286 loadbang;
#X msg 157 308 0;
#X text 377 89 todo ekvalizace;
#X obj 277 342 catch~ out_l;
#X obj 283 361 catch~ out_r;
#X obj 86 352 throw~ out_l;
#X obj 92 371 throw~ out_r;
#N canvas 60 57 1023 699 input 0;
#X obj 439 48 adc~ 1 2 3 4 5 6 7 8;
#X obj 63 2 table loop-buffer8 1.323e+07;
#X obj 63 24 table loop-buffer7 1.323e+07;
#X obj 63 46 table loop-buffer6 1.323e+07;
#X obj 63 68 table loop-buffer5 1.323e+07;
#X obj 63 112 table loop-buffer4 1.323e+07;
#X obj 63 90 table loop-buffer3 1.323e+07;
#X obj 63 134 table loop-buffer2 1.323e+07;
#X obj 63 156 table loop-buffer1 1.323e+07;
#X obj 681 284 r start-rec;
#X obj 757 284 r stop-rec;
#X msg 293 300 0;
#X msg 392 429 1;
#X msg 463 300 2;
#X msg 570 429 3;
#X msg 646 296 4;
#X msg 753 425 5;
#X msg 835 316 6;
#X msg 939 444 7;
#X obj 282 597 outlet~;
#X obj 351 597 outlet~;
#X obj 421 597 outlet~;
#X obj 491 597 outlet~;
#X obj 561 597 outlet~;
#X obj 623 597 outlet~;
#X text 292 577 1;
#X text 438 576 3;
#X text 508 576 4;
#X text 575 576 5;
#X text 636 577 6;
#X obj 684 597 outlet~;
#X obj 744 597 outlet~;
#X text 696 577 7;
#X text 756 577 8;
#X obj 785 412 r start-rec;
#X obj 861 412 r stop-rec;
#X obj 495 295 r start-rec;
#X obj 568 294 r stop-rec;
#X obj 610 424 r start-rec;
#X obj 684 423 r stop-rec;
#X obj 318 298 r start-rec;
#X obj 394 298 r stop-rec;
#X obj 426 427 r start-rec;
#X obj 502 427 r stop-rec;
#X obj 249 429 r start-rec;
#X obj 325 428 r stop-rec;
#X obj 140 299 r start-rec;
#X obj 217 298 r stop-rec;
#X text 366 578 2;
#X obj 825 284 r \$0-load;
#X obj 929 412 r \$0-load;
#X obj 616 274 r \$0-load;
#X obj 723 403 r \$0-load;
#X obj 433 278 r \$0-load;
#X obj 540 407 r \$0-load;
#X obj 362 407 r \$0-load;
#X obj 263 278 r \$0-load;
#X obj 272 34 s \$0-load;
#X obj 272 10 loadbang;
#X obj 254 12 bng 15 250 50 0 empty empty empty 17 7 0 10 -262144 -1
-1;
#X obj 150 321 mik-tabwrite;
#X obj 681 316 mik-tabwrite;
#X obj 785 444 mik-tabwrite;
#X obj 611 446 mik-tabwrite;
#X obj 515 317 mik-tabwrite;
#X obj 338 320 mik-tabwrite;
#X obj 446 449 mik-tabwrite;
#X obj 249 451 mik-tabwrite;
#X connect 0 0 60 0;
#X connect 0 1 67 0;
#X connect 0 2 65 0;
#X connect 0 3 66 0;
#X connect 0 4 64 0;
#X connect 0 5 63 0;
#X connect 0 6 61 0;
#X connect 0 7 62 0;
#X connect 9 0 61 1;
#X connect 10 0 61 2;
#X connect 11 0 60 3;
#X connect 12 0 67 3;
#X connect 13 0 65 3;
#X connect 14 0 66 3;
#X connect 15 0 64 3;
#X connect 16 0 63 3;
#X connect 17 0 61 3;
#X connect 18 0 62 3;
#X connect 34 0 62 1;
#X connect 35 0 62 2;
#X connect 36 0 64 1;
#X connect 37 0 64 2;
#X connect 38 0 63 1;
#X connect 39 0 63 2;
#X connect 40 0 65 1;
#X connect 41 0 65 2;
#X connect 42 0 66 1;
#X connect 43 0 66 2;
#X connect 44 0 67 1;
#X connect 45 0 67 2;
#X connect 46 0 60 1;
#X connect 47 0 60 2;
#X connect 49 0 17 0;
#X connect 50 0 18 0;
#X connect 51 0 15 0;
#X connect 52 0 16 0;
#X connect 53 0 13 0;
#X connect 54 0 14 0;
#X connect 55 0 12 0;
#X connect 56 0 11 0;
#X connect 58 0 57 0;
#X connect 59 0 57 0;
#X connect 60 0 19 0;
#X connect 61 0 30 0;
#X connect 62 0 31 0;
#X connect 63 0 24 0;
#X connect 64 0 23 0;
#X connect 65 0 21 0;
#X connect 66 0 22 0;
#X connect 67 0 20 0;
#X restore 82 16 pd input;
#X obj 44 265 throw~ out_l;
#X obj 127 265 throw~ out_r;
#X text 377 105 todo osc;
#N canvas 571 284 450 407 osc-controllers 0;
#X msg 268 38 connect 192.168.8.100;
#X text 279 19 receive;
#X obj 40 9 import mrpeach;
#X obj 31 55 udpreceive 9001;
#X obj 34 103 unpackOSC;
#X obj 34 130 routeOSC /mix /loop /granny;
#X obj 34 157 routeOSC /vol /pan /mute;
#X obj 29 252 s osc-mix-vol;
#X obj 53 203 s osc-mix-pan;
#X obj 111 182 s osc-mix-mute;
#X obj 193 158 routeOSC /record_start /record_stop;
#X obj 203 233 s start-rec;
#X obj 203 184 t b f;
#X obj 203 208 spigot;
#X obj 277 184 t b f;
#X obj 277 208 spigot;
#X obj 277 233 s stop-rec;
#X obj 146 97 print osc;
#X connect 3 0 4 0;
#X connect 3 0 17 0;
#X connect 4 0 5 0;
#X connect 5 0 6 0;
#X connect 5 3 10 0;
#X connect 6 0 7 0;
#X connect 6 1 8 0;
#X connect 6 2 9 0;
#X connect 10 0 12 0;
#X connect 10 1 14 0;
#X connect 12 0 13 0;
#X connect 12 1 13 1;
#X connect 13 0 11 0;
#X connect 14 0 15 0;
#X connect 14 1 15 1;
#X connect 15 0 16 0;
#X restore 22 393 pd osc-controllers;
#X msg 12 -8 1;
#X msg 39 -8 2;
#X msg 68 -8 3;
#X msg 100 -7 4;
#X msg 131 -7 5;
#X msg 165 -6 6;
#X msg 197 -5 7;
#X msg 228 -5 8;
#X obj 190 308 s lb;
#X obj 210 290 bng 15 250 50 0 empty empty empty 17 7 0 10 -262144
-1 -1;
#X obj 88 -34 r lb;
#N canvas 440 175 532 447 mockup 0;
#X obj 13 330 outlet~;
#X obj 82 330 outlet~;
#X obj 22 74 inlet;
#X obj 22 130 t b b b b;
#X msg 98 173 open ./wav/text_is.wav;
#X msg 23 196 open ./wav/text_is_lo.wav;
#X msg 84 222 start;
#X msg 41 247 start;
#X obj 246 65 inlet;
#X text 60 74 start;
#X text 288 64 stop;
#X obj 246 185 t b b;
#X msg 215 221 stop;
#X msg 235 260 stop;
#X obj 104 102 bng 15 250 50 0 empty empty empty 17 7 0 10 -204786
-1 -1;
#X obj 121 102 bng 15 250 50 0 empty empty empty 17 7 0 10 -261234
-1 -1;
#X obj 118 147 bng 15 250 50 0 empty empty empty 17 7 0 10 -262144
-1 -1;
#X obj 75 162 bng 15 250 50 0 empty empty empty 17 7 0 10 -262144 -1
-1;
#X obj 3 221 del 50;
#X obj 13 299 readsf~ 2;
#X obj 81 300 readsf~ 2;
#X obj 173 332 bng 15 250 50 0 empty empty empty 17 7 0 10 -262144
-1 -1;
#X obj 79 371 bng 15 250 50 0 empty empty empty 17 7 0 10 -262144 -1
-1;
#X obj 8 254 bng 15 250 50 0 empty empty empty 17 7 0 10 -262144 -1
-1;
#X obj 127 238 del 50;
#X obj 143 264 bng 15 250 50 0 empty empty empty 17 7 0 10 -262144
-1 -1;
#X obj 244 381 snapshot~;
#X obj 174 381 snapshot~;
#X floatatom 169 415 5 0 0 0 - - -;
#X floatatom 251 410 5 0 0 0 - - -;
#X obj 246 310 tgl 15 0 empty empty empty 17 7 0 10 -262144 -1 -1 0
1;
#X obj 313 354 bng 15 250 50 0 empty empty empty 17 7 0 10 -262144
-1 -1;
#X obj 240 343 metro 300;
#X connect 2 0 14 0;
#X connect 3 0 18 0;
#X connect 3 1 24 0;
#X connect 3 2 5 0;
#X connect 3 2 17 0;
#X connect 3 3 4 0;
#X connect 3 3 16 0;
#X connect 4 0 20 0;
#X connect 5 0 19 0;
#X connect 6 0 20 0;
#X connect 7 0 19 0;
#X connect 8 0 15 0;
#X connect 11 0 12 0;
#X connect 11 1 13 0;
#X connect 12 0 19 0;
#X connect 13 0 20 0;
#X connect 14 0 3 0;
#X connect 15 0 11 0;
#X connect 18 0 7 0;
#X connect 18 0 23 0;
#X connect 19 0 0 0;
#X connect 19 0 26 0;
#X connect 19 1 1 0;
#X connect 19 1 27 0;
#X connect 19 2 22 0;
#X connect 20 0 0 0;
#X connect 20 1 1 0;
#X connect 20 2 21 0;
#X connect 24 0 6 0;
#X connect 24 0 25 0;
#X connect 26 0 29 0;
#X connect 27 0 28 0;
#X connect 30 0 32 0;
#X connect 32 0 26 0;
#X connect 32 0 27 0;
#X connect 32 0 31 0;
#X coords 0 -1 1 1 40 20 2 100 100;
#X restore 23 418 pd mockup;
#X obj 24 462 throw~ out_l;
#X obj 57 442 throw~ out_r;
#X obj 25 510 s stop-all-loops;
#X obj 25 487 bng 15 250 50 0 empty empty empty 17 7 0 10 -262144 -1
-1;
#X text 86 423 mockup;
#X obj 136 511 s stop-all-grannys;
#X obj 143 489 bng 15 250 50 0 empty empty empty 17 7 0 10 -262144
-1 -1;
#X obj 107 475 bng 15 250 50 0 empty empty empty 17 7 0 10 -262144
-1 -1;
#X text 376 68 todo unmute restart phase;
#X obj 304 -3 catch~ out_loop_r;
#X obj 270 -23 catch~ out_loop_l;
#X obj 320 17 catch~ out_gran_l;
#X obj 354 37 catch~ out_gran_r;
#X obj 320 58 mik-out-filter;
#X obj 125 330 / 20;
#X obj 15 48 m-s;
#N canvas 870 335 450 300 test-input 0;
#X obj 112 59 adc~ 1 2;
#X obj 197 28 loadbang;
#X msg 200 54 0;
#X obj 104 109 *~ 0;
#X obj 144 109 *~ 0;
#X obj 109 159 dac~;
#X obj 180 80 tgl 15 0 empty empty empty 17 7 0 10 -262144 -1 -1 0
1;
#X connect 0 0 3 0;
#X connect 0 1 4 0;
#X connect 1 0 2 0;
#X connect 2 0 6 0;
#X connect 3 0 5 0;
#X connect 4 0 5 1;
#X connect 6 0 4 1;
#X connect 6 0 3 1;
#X restore 27 577 pd test-input;
#X msg 18 303 start;
#N canvas 442 71 450 300 osc 0;
#X obj 109 40 r mix-broadcast;
#X obj 109 67 list split 1;
#X obj 109 145 s master-volume;
#X obj 109 91 sel master-volume;
#X obj 109 118 f;
#X connect 0 0 1 0;
#X connect 1 0 3 0;
#X connect 1 1 4 1;
#X connect 3 0 4 0;
#X connect 4 0 2 0;
#X restore 144 442 pd osc;
#X obj 276 384 mik-out;
#X obj 115 48 m-s;
#X obj 190 47 m-s;
#X obj 65 48 m-s;
#X obj 90 48 m-s;
#X obj 140 48 m-s;
#X obj 165 48 m-s;
#X obj 40 48 m-s;
#X obj 270 18 mik-out-filter;
#X obj 319 267 throw~ out_l;
#X obj 354 290 throw~ out_r;
#X obj 229 267 throw~ out_l;
#X obj 264 290 throw~ out_r;
#X connect 1 0 48 0;
#X connect 2 0 3 0;
#X connect 4 0 6 0;
#X connect 5 0 45 0;
#X connect 6 0 12 0;
#X connect 6 0 13 0;
#X connect 7 0 8 0;
#X connect 7 0 27 0;
#X connect 8 0 5 0;
#X connect 10 0 50 0;
#X connect 11 0 50 1;
#X connect 14 0 46 0;
#X connect 14 1 57 0;
#X connect 14 2 53 0;
#X connect 14 3 54 0;
#X connect 14 4 51 0;
#X connect 14 5 55 0;
#X connect 14 6 56 0;
#X connect 14 7 52 0;
#X connect 19 0 46 1;
#X connect 20 0 57 1;
#X connect 21 0 53 1;
#X connect 22 0 54 1;
#X connect 23 0 51 1;
#X connect 24 0 55 1;
#X connect 25 0 56 1;
#X connect 26 0 52 1;
#X connect 28 0 27 0;
#X connect 29 0 19 0;
#X connect 29 0 20 0;
#X connect 29 0 21 0;
#X connect 29 0 22 0;
#X connect 29 0 23 0;
#X connect 29 0 24 0;
#X connect 29 0 25 0;
#X connect 29 0 26 0;
#X connect 30 0 31 0;
#X connect 30 0 32 0;
#X connect 30 1 32 0;
#X connect 30 1 31 0;
#X connect 34 0 33 0;
#X connect 37 0 36 0;
#X connect 38 0 33 0;
#X connect 38 0 36 0;
#X connect 40 0 58 1;
#X connect 41 0 58 0;
#X connect 42 0 44 0;
#X connect 43 0 44 1;
#X connect 44 0 59 0;
#X connect 44 1 60 0;
#X connect 45 0 6 1;
#X connect 46 0 15 0;
#X connect 46 1 16 0;
#X connect 48 0 0 0;
#X connect 51 0 15 0;
#X connect 51 1 16 0;
#X connect 52 0 15 0;
#X connect 52 1 16 0;
#X connect 53 0 15 0;
#X connect 53 1 16 0;
#X connect 54 0 15 0;
#X connect 54 1 16 0;
#X connect 55 0 15 0;
#X connect 55 1 16 0;
#X connect 56 0 15 0;
#X connect 56 1 16 0;
#X connect 57 0 15 0;
#X connect 57 1 16 0;
#X connect 58 0 61 0;
#X connect 58 1 62 0;
#X restore 223 4 pd controls;
#X obj 13 102 mik-gran-freeze;
#X obj 13 205 mik-pan-gran-out;
#N canvas 462 215 450 300 osc 0;
#X obj 31 15 import mrpeach;
#X obj 29 45 udpreceive 7777;
#X obj 29 72 unpackOSC;
#X obj 29 98 pyext osc OSCRoute;
#X obj 69 206 s grn-broadcast;
#X obj 29 151 sel mix granny;
#X obj 29 229 s mix-broadcast;
#X obj 29 182 l;
#X obj 69 181 l;
#X obj 30 127 list split 1;
#X obj 98 181 r start-rec;
#X connect 1 0 2 0;
#X connect 2 0 3 1;
#X connect 3 0 9 0;
#X connect 5 0 7 0;
#X connect 5 1 8 0;
#X connect 7 0 6 0;
#X connect 8 0 4 0;
#X connect 9 0 5 0;
#X connect 9 1 7 1;
#X connect 9 1 8 1;
#X connect 10 0 4 0;
#X restore 302 4 pd osc;
#X msg 126 82 1;
#X obj 126 62 r set-ids;
#X obj 352 4 loadbang;
#X obj 352 26 s set-ids;
#X obj 163 206 mik-pan-gran-out;
#X obj 276 63 r set-ids;
#X msg 276 83 2;
#X obj 313 205 mik-pan-gran-out;
#X obj 426 62 r set-ids;
#X obj 13 382 mik-pan-gran-out;
#X obj 126 239 r set-ids;
#X msg 426 82 3;
#X msg 126 259 4;
#X obj 13 82 r grn-broadcast;
#X obj 163 82 r grn-broadcast;
#X obj 312 83 r grn-broadcast;
#X obj 13 258 r grn-broadcast;
#X obj 163 382 mik-pan-gran-out;
#X obj 276 239 r set-ids;
#X obj 163 258 r grn-broadcast;
#X obj 313 382 mik-pan-gran-out;
#X obj 426 239 r set-ids;
#X obj 313 258 r grn-broadcast;
#X msg 276 259 5;
#X msg 426 259 6;
#X obj 163 103 mik-gran-freeze;
#X obj 313 102 mik-gran-freeze;
#X obj 13 279 mik-gran-freeze;
#X obj 163 279 mik-gran-freeze;
#X obj 313 279 mik-gran-freeze;
#X obj 13 552 mik-pan-gran-out;
#X obj 126 409 r set-ids;
#X obj 13 428 r grn-broadcast;
#X obj 163 552 mik-pan-gran-out;
#X obj 276 409 r set-ids;
#X obj 163 428 r grn-broadcast;
#X obj 313 552 mik-pan-gran-out;
#X obj 426 409 r set-ids;
#X obj 313 428 r grn-broadcast;
#X obj 13 449 mik-gran-freeze;
#X obj 163 449 mik-gran-freeze;
#X obj 313 449 mik-gran-freeze;
#X msg 126 429 7;
#X msg 276 429 8;
#X msg 426 429 9;
#X connect 1 0 2 0;
#X connect 4 0 1 1;
#X connect 5 0 4 0;
#X connect 6 0 7 0;
#X connect 9 0 10 0;
#X connect 10 0 29 1;
#X connect 12 0 15 0;
#X connect 14 0 16 0;
#X connect 15 0 30 1;
#X connect 16 0 31 1;
#X connect 17 0 1 0;
#X connect 18 0 29 0;
#X connect 19 0 30 0;
#X connect 20 0 31 0;
#X connect 22 0 27 0;
#X connect 23 0 32 0;
#X connect 25 0 28 0;
#X connect 26 0 33 0;
#X connect 27 0 32 1;
#X connect 28 0 33 1;
#X connect 29 0 8 0;
#X connect 30 0 11 0;
#X connect 31 0 13 0;
#X connect 32 0 21 0;
#X connect 33 0 24 0;
#X connect 35 0 46 0;
#X connect 36 0 43 0;
#X connect 38 0 47 0;
#X connect 39 0 44 0;
#X connect 41 0 48 0;
#X connect 42 0 45 0;
#X connect 43 0 34 0;
#X connect 44 0 37 0;
#X connect 45 0 40 0;
#X connect 46 0 43 1;
#X connect 47 0 44 1;
#X connect 48 0 45 1;
