#N canvas 599 292 450 300 10;
#X obj 25 38 inlet~;
#X obj 22 65 *~;
#X obj 21 93 env~ 8192;
#X obj 21 115 sig~;
#X obj 21 139 threshold~ 15 400 1 400;
#X obj 89 37 inlet;
#X obj 21 212 s phrase-start;
#X obj 136 212 s phrase-end;
#X text 123 36 chan;
#X obj 21 164 t b f;
#X obj 21 188 f;
#X floatatom 89 64 5 0 0 0 - - -;
#X obj 136 165 t b f;
#X obj 136 189 f;
#X obj 156 36 inlet;
#X text 191 36 threshold;
#X connect 0 0 1 0;
#X connect 0 0 1 1;
#X connect 1 0 2 0;
#X connect 2 0 3 0;
#X connect 3 0 4 0;
#X connect 4 0 9 0;
#X connect 4 1 12 0;
#X connect 5 0 11 0;
#X connect 9 0 10 0;
#X connect 10 0 6 0;
#X connect 11 0 10 1;
#X connect 11 0 13 1;
#X connect 12 0 13 0;
#X connect 13 0 7 0;
#X connect 14 0 4 1;
