#N canvas 206 216 494 437 10;
#X obj 102 365 dac~;
#X obj 19 44 inlet~;
#X obj 190 45 inlet~;
#X obj 113 282 tgl 15 0 empty empty empty 17 7 0 10 -262144 -1 -1 1
1;
#X obj 19 254 *~;
#X obj 93 22 loadbang;
#X msg 73 45 1;
#X obj 105 104 vsl 30 150 0 200 0 0 empty empty empty 0 -9 0 10 -262144
-1 -1 6436 1;
#X floatatom 108 262 5 0 0 0 - - -;
#X obj 52 256 / 100;
#X msg 110 46 100;
#X obj 133 339 clip~ -1 1;
#X obj 190 264 *~;
#X obj 186 288 / 100;
#X obj 55 339 clip~ -1 1;
#X obj 55 393 outlet~;
#X obj 134 395 outlet~;
#X obj 118 73 r master-volume;
#X obj 262 300 print num;
#X obj 161 100 unpack f;
#X obj 149 302 *~ 1;
#X obj 55 282 *~ 1;
#X connect 1 0 4 0;
#X connect 2 0 12 0;
#X connect 3 0 4 1;
#X connect 3 0 12 1;
#X connect 4 0 21 0;
#X connect 5 0 6 0;
#X connect 5 0 10 0;
#X connect 6 0 3 0;
#X connect 7 0 8 0;
#X connect 8 0 13 0;
#X connect 8 0 9 0;
#X connect 9 0 21 1;
#X connect 10 0 7 0;
#X connect 11 0 0 1;
#X connect 11 0 16 0;
#X connect 12 0 20 0;
#X connect 13 0 20 1;
#X connect 14 0 0 0;
#X connect 14 0 15 0;
#X connect 17 0 19 0;
#X connect 19 0 7 0;
#X connect 19 0 18 0;
#X connect 20 0 11 0;
#X connect 21 0 14 0;
#X coords 0 -1 1 1 40 200 2 100 100;
