#N canvas 501 60 832 686 10;
#X obj 256 92 t b f;
#X msg 256 113 1;
#X obj 256 134 /;
#X obj 256 156 phasor~;
#X obj 261 233 *~ 44100;
#X obj 306 154 * 44100;
#X text 314 74 length (s);
#X obj 319 233 * 44100;
#X obj 261 260 +~ 0;
#X obj 260 294 tabread4~ loop-buffer8;
#X obj 239 322 *~;
#X obj 216 233 *~ -1;
#X obj 216 255 +~ 1;
#X obj 9 -111 inlet;
#X obj 240 404 outlet~;
#X obj 273 323 r \$0-mute;
#X obj 122 117 tgl 15 0 empty empty empty 17 7 0 10 -262144 -1 -1 0
1;
#X obj 306 58 r \$0-length;
#X obj -32 -111 inlet;
#X floatatom 159 134 5 0 0 0 - - -;
#X obj -102 53 s \$0-length;
#X obj -101 -109 inlet;
#X floatatom 105 134 8 0 0 0 - - -;
#X obj 319 209 r \$0-start;
#X obj -169 53 s \$0-start;
#X obj 105 -112 inlet;
#X obj 105 154 hradio 12 1 0 8 empty empty empty 0 -8 0 10 -262144
-1 -1 0;
#X obj 106 196 s \$0-channel;
#X obj 102 242 r \$0-channel;
#X msg 102 265 set loop-buffer\$1;
#X obj -102 33 / 100;
#X obj -169 32 / 100;
#X obj 239 376 *~ 1;
#X obj 205 104 vsl 12 60 0 300 0 0 empty empty empty 0 -9 0 10 -262144
-1 -1 2950 1;
#X obj 194 -51 loadbang;
#X obj -149 -110 inlet;
#X text -179 -136 rec-start;
#X text -112 -136 windw-start;
#X text -42 -136 winwd-width;
#X text 33 -136 mute;
#X text 85 -132 channel-sel;
#X msg 174 -30 0;
#X obj 571 -84 inlet;
#X text 528 -82 set id;
#X obj 466 -61 mik-osc-mix-router;
#X obj -186 199 mik-phrase-receiver;
#X obj -143 177 r \$0-channel;
#X obj -192 -90 s \$0-rec-start;
#X obj -186 156 r \$0-rec-start;
#X obj 104 117 bng 15 250 50 0 empty empty empty 17 7 0 10 -4032 -1
-1;
#X obj -101 -90 s \$0-set-start;
#X obj -186 284 s \$0-set-start;
#X obj 58 53 r \$0-set-start;
#X obj -32 -69 s \$0-set-length;
#X obj 79 28 r \$0-set-length;
#X obj -173 262 s \$0-set-length;
#X obj 105 176 + 1;
#X obj 348 -105 loadbang;
#X obj 328 -104 bng 15 250 50 0 empty empty empty 17 7 0 10 -262144
-1 -1;
#X obj 348 -60 s \$0-magic-offset;
#X obj -101 10 + 0;
#X obj -168 9 - 0;
#X obj -133 -15 r \$0-magic-offset;
#X obj 348 -82 f 25;
#X obj 210 -125 r stop-all-loops;
#X msg 210 -104 0;
#X obj 239 350 *~ 1;
#X obj 256 180 spigot~;
#X obj -121 134 del 50;
#X obj -94 283 t b;
#X obj -193 -36 r \$0-set-start;
#X obj -101 -36 r \$0-set-length;
#X obj -121 111 r \$0-now;
#X obj 35 156 s \$0-now;
#X obj 359 154 r \$0-mute;
#X obj 168 175 s \$0-mute;
#X obj 122 79 r \$0-gui-mute;
#X obj 9 -90 s \$0-gui-mute;
#X obj 210 -83 s \$0-gui-mute;
#X obj 174 -8 s \$0-gui-mute;
#X obj 105 -89 s \$0-gui-channel;
#X obj -10 108 r \$0-gui-channel;
#X obj 492 -16 s \$0-gui-channel;
#X msg -94 305 1;
#X obj -94 328 s \$0-gui-mute;
#X floatatom 315 395 5 0 0 0 - - -;
#X obj 272 354 expr ($f1/100)*($f1/100);
#X msg 205 -30 100;
#X obj 492 -40 expr (($f1-1) % 2) * 5;
#X obj 11 298 r \$0-rec-start;
#X obj 11 385 s \$0-set-start;
#X obj 11 319 mik-timer;
#X obj 64 408 s \$0-set-length;
#X obj 17 408 t b;
#X obj 17 450 s \$0-gui-mute;
#X msg 17 430 1;
#X obj 159 117 bng 15 250 50 0 empty empty empty 17 7 0 10 -204786
-1 -1;
#X obj 178 117 bng 15 250 50 0 empty empty empty 17 7 0 10 -261234
-1 -1;
#X connect 0 0 1 0;
#X connect 0 1 2 1;
#X connect 1 0 2 0;
#X connect 2 0 3 0;
#X connect 3 0 67 0;
#X connect 4 0 8 0;
#X connect 5 0 4 1;
#X connect 7 0 8 1;
#X connect 8 0 9 0;
#X connect 9 0 10 0;
#X connect 10 0 66 0;
#X connect 11 0 12 0;
#X connect 12 0 10 1;
#X connect 13 0 77 0;
#X connect 15 0 66 1;
#X connect 16 0 75 0;
#X connect 17 0 5 0;
#X connect 17 0 0 0;
#X connect 18 0 53 0;
#X connect 21 0 50 0;
#X connect 23 0 7 0;
#X connect 25 0 80 0;
#X connect 26 0 56 0;
#X connect 28 0 29 0;
#X connect 29 0 9 0;
#X connect 30 0 20 0;
#X connect 31 0 24 0;
#X connect 32 0 14 0;
#X connect 33 0 86 0;
#X connect 34 0 87 0;
#X connect 34 0 41 0;
#X connect 35 0 47 0;
#X connect 41 0 79 0;
#X connect 42 0 44 1;
#X connect 42 0 88 0;
#X connect 45 0 51 0;
#X connect 45 1 55 0;
#X connect 45 1 69 0;
#X connect 46 0 45 2;
#X connect 48 0 45 0;
#X connect 49 0 73 0;
#X connect 52 0 22 0;
#X connect 54 0 19 0;
#X connect 56 0 27 0;
#X connect 57 0 63 0;
#X connect 58 0 63 0;
#X connect 60 0 30 0;
#X connect 61 0 31 0;
#X connect 62 0 61 1;
#X connect 62 0 60 1;
#X connect 63 0 59 0;
#X connect 64 0 65 0;
#X connect 65 0 78 0;
#X connect 66 0 32 0;
#X connect 67 1 4 0;
#X connect 67 1 11 0;
#X connect 68 0 45 1;
#X connect 69 0 83 0;
#X connect 70 0 61 0;
#X connect 71 0 60 0;
#X connect 72 0 68 0;
#X connect 74 0 67 1;
#X connect 76 0 16 0;
#X connect 81 0 26 0;
#X connect 83 0 84 0;
#X connect 86 0 32 1;
#X connect 86 0 85 0;
#X connect 87 0 33 0;
#X connect 88 0 82 0;
#X connect 89 0 91 0;
#X connect 91 0 90 0;
#X connect 91 2 92 0;
#X connect 91 2 93 0;
#X connect 93 0 95 0;
#X connect 95 0 94 0;
#X coords 0 -1 1 1 120 70 1 100 100;
