#N canvas 175 64 1108 675 10;
#X text 534 196 start point (s);
#X obj 488 198 * 44100;
#X obj 261 444 *~ 1;
#X obj 261 485 outlet~;
#X obj 282 424 r \$0-mute;
#X obj 224 153 s \$0-mute;
#X obj 199 153 tgl 15 0 empty empty empty 17 7 0 10 -262144 -1 -1 1
1;
#X obj 330 139 r \$0-length;
#X floatatom 104 206 7 0 0 0 - - -;
#X obj 64 291 s \$0-length;
#X floatatom 104 188 8 0 0 0 - - -;
#X obj 488 174 r \$0-start;
#X obj -49 104 s \$0-start;
#X obj 104 224 hradio 12 1 0 8 empty empty empty 0 -8 0 10 -262144
-1 -1 0;
#X obj 103 271 s \$0-channel;
#X obj 191 344 r \$0-channel;
#X msg 191 367 set loop-buffer\$1;
#X obj 64 271 / 100;
#X obj -49 83 / 100;
#X obj 261 464 *~ 1;
#X obj 202 173 vsl 12 60 0 300 0 0 empty empty empty 0 -9 0 10 -262144
-1 -1 1967 1;
#X obj 197 62 loadbang;
#X obj 104 171 bng 15 250 50 0 empty empty empty 17 7 0 10 -204786
-1 -1;
#X obj 139 171 bng 15 250 50 0 empty empty empty 17 7 0 10 -261234
-1 -1;
#X msg 222 84 0;
#X obj 386 -138 inlet;
#X text 425 -139 set id;
#X obj 109 366 r \$0-channel;
#X obj 66 345 r \$0-rec-start;
#X obj 122 171 bng 15 250 50 0 empty empty empty 17 7 0 10 -4032 -1
-1;
#X obj -42 -65 s \$0-set-start;
#X obj -180 196 s \$0-set-start;
#X obj 66 474 s \$0-set-start;
#X obj -45 -45 s \$0-set-length;
#X obj 96 64 r \$0-set-length;
#X obj 89 411 s \$0-set-length;
#X obj 103 251 + 1;
#X obj -180 130 mik-timer;
#X obj -143 219 s \$0-set-length;
#X obj 768 -95 loadbang;
#X obj 760 -118 bng 15 250 50 0 empty empty empty 17 7 0 10 -262144
-1 -1;
#X obj 769 -17 s \$0-magic-offset;
#X obj -49 62 - 0;
#X obj -34 41 r \$0-magic-offset;
#X obj 810 -40 s \$0-bitrate;
#X msg 810 -64 44100;
#X obj 291 223 phasor~;
#X obj 415 212 phasor~;
#X obj 417 286 samphold~;
#X obj 382 191 *;
#X obj 397 100 r \$0-bitrate;
#X obj 416 263 *~;
#X obj 341 236 *~;
#X obj 292 326 +~;
#X obj 292 348 +~;
#X obj 260 404 tabread4~ loop-buffer1;
#X obj 306 274 r 0$-winsize;
#X obj 651 273 s 0$-winsize;
#X obj 651 188 * 44100;
#X obj 488 245 s~ \$0-start-smpl;
#X obj 318 316 r~ \$0-start-smpl;
#X obj 737 273 s \$0-win-fq;
#X obj 291 196 r \$0-win-fq;
#X obj 651 166 mik-recipro;
#X obj 755 253 * 1;
#X obj 756 209 t b f;
#X obj 382 212 sig~;
#X obj 157 156 vsl 12 60 0 200 0 0 empty empty empty 0 -9 0 10 -262144
-1 -1 2544 1;
#X obj 171 156 vsl 12 60 0 250 0 0 empty empty empty 0 -9 0 10 -262144
-1 -1 2360 1;
#X obj 185 156 vsl 12 60 0 200 0 0 empty empty empty 0 -9 0 10 -262144
-1 -1 2950 1;
#X obj 147 250 s \$0-window-size;
#X obj 171 294 s \$0-pitch;
#X obj 185 270 s \$0-speed;
#X obj 681 99 r \$0-window-size;
#X obj 661 209 r \$0-pitch;
#X obj 415 192 * 1;
#X obj 415 120 r \$0-speed;
#X obj 415 161 t b f;
#X obj 681 121 + 1;
#X obj 139 154 bng 15 250 50 0 empty empty empty 17 7 0 10 -262144
-1 -1;
#X obj 256 61 r stop-all-grannys;
#X obj 681 143 / 1000;
#X obj 330 160 mik-recipro;
#X obj 488 222 sig~;
#X obj 293 444 expr pow($f1/100 \, 2);
#X obj 47 -65 s \$0-gui-channel;
#X obj 224 125 r \$0-gui-mute;
#X obj -129 -45 s \$0-gui-mute;
#X obj 158 432 t b;
#X obj 158 474 s \$0-gui-mute;
#X msg 158 454 1;
#X obj -180 219 t b;
#X obj -180 261 s \$0-gui-mute;
#X msg -180 241 1;
#X obj 66 388 mik-phrase-receiver;
#X obj -34 194 r \$0-gui-channel;
#X floatatom 633 297 15 0 0 0 - - -;
#X obj 661 233 expr pow(($f1+50)/150 \, 2);
#X obj 415 141 expr pow(($f1+1)/100 \, 0.5);
#X obj 122 154 bng 15 250 50 0 empty empty empty 17 7 0 10 -260097
-1 -1;
#X obj -48 251 s \$0-freeze;
#X obj 57 2 r \$0-set-window-size;
#X obj 87 22 r \$0-set-pitch;
#X obj 112 42 r \$0-set-speed;
#X obj -158 379 r \$0-freeze;
#X obj -158 423 t b b;
#X obj 121 324 del 100;
#X obj -72 128 del 100;
#X obj -158 444 del 10;
#X obj 769 -65 f 25;
#X obj -158 401 del 75;
#X obj 51 -45 s \$0-window-offset;
#X obj 632 365 r \$0-set-start;
#X obj 632 456 + 0;
#X obj 647 386 r \$0-window-offset;
#X obj 632 480 s \$0-set-start-final;
#X obj 75 84 r \$0-set-start-final;
#X floatatom 606 501 15 0 0 0 - - -;
#X floatatom 647 409 15 0 0 0 - - -;
#X obj 647 432 t b f;
#X obj 29 -138 inlet;
#X obj 149 -65 s \$0-set-window-size;
#X obj 166 -45 s \$0-set-speed;
#X obj -7 125 r \$0-toggle-start;
#X obj 19 104 r \$0-toggle-stop;
#X obj 276 -65 s \$0-toggle-start;
#X obj 313 -86 s \$0-toggle-stop;
#X obj 122 105 r \$0-toggle-freeze-gui;
#X obj 257 -45 s \$0-toggle-freeze-gui;
#X obj 221 -86 s \$0-set-pitch;
#N canvas 120 165 1224 416 msg-routing 0;
#X obj 151 7 inlet;
#X obj 15 312 outlet;
#X obj 72 292 outlet;
#X obj 133 341 outlet;
#X obj 188 311 outlet;
#X obj 264 341 outlet;
#X obj 321 319 outlet;
#X obj 15 288 l;
#X obj 15 263 t b;
#X obj 72 268 l;
#X obj 72 243 t b;
#X obj 133 318 l;
#X obj 133 293 t b;
#X obj 188 288 l;
#X obj 188 263 t b;
#X obj 264 318 l;
#X obj 264 293 t b;
#X obj 321 297 l;
#X obj 321 272 t b;
#X obj 397 349 outlet;
#X obj 397 327 l;
#X obj 397 302 t b;
#X obj 453 319 outlet;
#X obj 453 297 l;
#X obj 453 272 t b;
#X text 11 331 rec-start;
#X text 75 310 mute;
#X text 125 359 set-start;
#X text 182 330 set-length;
#X text 259 360 set-channel;
#X text 308 337 window-offset;
#X text 397 369 window-size;
#X text 447 338 set-speed;
#X obj 254 6 inlet;
#X text 292 4 set ID;
#X obj 151 91 t b;
#X obj 150 112 l;
#X text 109 5 msg in;
#X obj 533 319 outlet;
#X obj 533 297 l;
#X obj 533 272 t b;
#X text 527 338 set-pitch;
#X obj 149 133 list split 1;
#X obj 151 32 list split 1;
#X floatatom 256 34 5 0 0 0 - - -;
#X obj 151 65 select 0;
#X obj 593 368 outlet;
#X obj 593 346 l;
#X obj 593 321 t b;
#X obj 653 349 outlet;
#X obj 653 327 l;
#X obj 653 302 t b;
#X obj 713 329 outlet;
#X obj 713 307 l;
#X obj 713 282 t b;
#X text 587 387 toggle-freeze;
#X text 647 368 toggle-start;
#X text 707 348 toggle-stop;
#X obj 243 135 print unknown msg with id:;
#X obj 311 223 sel window-offset window-size set-speed set-pitch;
#X obj 592 248 sel toggle-freeze toggle-start toggle-stop set-volume
;
#X obj 850 276 sel set-to-default;
#X obj 787 339 outlet;
#X obj 787 317 l;
#X obj 787 292 t b;
#X obj 858 349 outlet;
#X obj 858 327 l;
#X obj 858 302 t b;
#X text 781 358 set-volume;
#X text 852 368 set-to-default;
#X obj 10 190 sel start-rec mute set-start set-length set-channel;
#X connect 0 0 43 0;
#X connect 7 0 1 0;
#X connect 8 0 7 0;
#X connect 9 0 2 0;
#X connect 10 0 9 0;
#X connect 11 0 3 0;
#X connect 12 0 11 0;
#X connect 13 0 4 0;
#X connect 14 0 13 0;
#X connect 15 0 5 0;
#X connect 16 0 15 0;
#X connect 17 0 6 0;
#X connect 18 0 17 0;
#X connect 20 0 19 0;
#X connect 21 0 20 0;
#X connect 23 0 22 0;
#X connect 24 0 23 0;
#X connect 33 0 44 0;
#X connect 35 0 36 0;
#X connect 36 0 42 0;
#X connect 39 0 38 0;
#X connect 40 0 39 0;
#X connect 42 0 70 0;
#X connect 42 1 7 1;
#X connect 42 1 9 1;
#X connect 42 1 11 1;
#X connect 42 1 13 1;
#X connect 42 1 15 1;
#X connect 42 1 17 1;
#X connect 42 1 20 1;
#X connect 42 1 23 1;
#X connect 42 1 39 1;
#X connect 42 1 47 1;
#X connect 42 1 50 1;
#X connect 42 1 53 1;
#X connect 42 1 63 1;
#X connect 42 1 66 1;
#X connect 42 2 58 0;
#X connect 43 0 45 0;
#X connect 43 1 36 1;
#X connect 44 0 45 1;
#X connect 45 0 35 0;
#X connect 47 0 46 0;
#X connect 48 0 47 0;
#X connect 50 0 49 0;
#X connect 51 0 50 0;
#X connect 53 0 52 0;
#X connect 54 0 53 0;
#X connect 59 0 18 0;
#X connect 59 1 21 0;
#X connect 59 2 24 0;
#X connect 59 3 40 0;
#X connect 59 4 60 0;
#X connect 60 0 48 0;
#X connect 60 1 51 0;
#X connect 60 2 54 0;
#X connect 60 3 64 0;
#X connect 60 4 61 0;
#X connect 61 0 67 0;
#X connect 63 0 62 0;
#X connect 64 0 63 0;
#X connect 66 0 65 0;
#X connect 67 0 66 0;
#X connect 70 0 8 0;
#X connect 70 1 10 0;
#X connect 70 2 12 0;
#X connect 70 3 14 0;
#X connect 70 4 16 0;
#X connect 70 5 59 0;
#X restore 29 -113 pd msg-routing - - - - - - - - - - - - - - - - -
- - - - - -;
#X obj 385 -65 s \$0-set-volume;
#X obj 397 -44 s \$0-set-to-default;
#X obj 223 173 r \$0-set-volume;
#X obj 607 -101 r \$0-set-to-default;
#X obj 607 -78 t b;
#X msg 634 -56 100;
#X msg 586 -55 0;
#X obj 654 -29 s \$0-set-volume;
#X obj 606 35 s \$0-set-window-size;
#X obj 640 -7 s \$0-set-pitch;
#X obj 615 13 s \$0-set-speed;
#X obj 586 55 s \$0-set-window-offset;
#X obj -131 470 s \$0-toggle-start;
#X obj -158 491 s \$0-toggle-stop;
#X obj 486 -92 bng 15 250 50 0 empty empty empty 17 7 0 10 -262144
-1 -1;
#X obj -55 -110 bng 15 250 50 0 empty empty empty 17 7 0 10 -262144
-1 -1;
#X obj -133 -65 s \$0-start-rec;
#X obj -180 109 r \$0-start-rec;
#X obj -133 -89 r start-rec;
#X obj 794 7 s \$0-freeze-width;
#X connect 1 0 83 0;
#X connect 2 0 19 0;
#X connect 4 0 2 1;
#X connect 6 0 5 0;
#X connect 7 0 82 0;
#X connect 8 0 17 0;
#X connect 10 0 42 0;
#X connect 11 0 1 0;
#X connect 13 0 36 0;
#X connect 15 0 16 0;
#X connect 16 0 55 0;
#X connect 17 0 9 0;
#X connect 18 0 12 0;
#X connect 19 0 3 0;
#X connect 20 0 84 0;
#X connect 21 0 24 0;
#X connect 22 0 37 1;
#X connect 23 0 107 0;
#X connect 24 0 6 0;
#X connect 25 0 130 1;
#X connect 27 0 94 2;
#X connect 28 0 94 0;
#X connect 29 0 106 0;
#X connect 34 0 8 0;
#X connect 36 0 14 0;
#X connect 37 0 31 0;
#X connect 37 2 38 0;
#X connect 37 2 91 0;
#X connect 39 0 45 0;
#X connect 39 0 109 0;
#X connect 39 0 135 0;
#X connect 40 0 45 0;
#X connect 40 0 109 0;
#X connect 42 0 18 0;
#X connect 43 0 42 1;
#X connect 45 0 44 0;
#X connect 46 0 52 0;
#X connect 46 0 48 1;
#X connect 47 0 51 0;
#X connect 48 0 53 1;
#X connect 49 0 66 0;
#X connect 50 0 49 1;
#X connect 51 0 48 0;
#X connect 52 0 53 0;
#X connect 53 0 54 0;
#X connect 54 0 55 0;
#X connect 55 0 2 0;
#X connect 56 0 52 1;
#X connect 58 0 57 0;
#X connect 60 0 54 1;
#X connect 62 0 46 0;
#X connect 63 0 58 0;
#X connect 63 1 65 0;
#X connect 64 0 61 0;
#X connect 65 0 64 0;
#X connect 65 1 64 1;
#X connect 66 0 51 1;
#X connect 67 0 70 0;
#X connect 68 0 71 0;
#X connect 69 0 72 0;
#X connect 73 0 78 0;
#X connect 74 0 97 0;
#X connect 75 0 47 0;
#X connect 76 0 98 0;
#X connect 77 0 75 0;
#X connect 77 1 75 1;
#X connect 78 0 81 0;
#X connect 80 0 24 0;
#X connect 81 0 63 0;
#X connect 82 0 49 0;
#X connect 82 1 75 0;
#X connect 83 0 59 0;
#X connect 84 0 19 1;
#X connect 86 0 6 0;
#X connect 88 0 90 0;
#X connect 90 0 89 0;
#X connect 91 0 93 0;
#X connect 93 0 92 0;
#X connect 94 0 32 0;
#X connect 94 1 35 0;
#X connect 94 1 88 0;
#X connect 95 0 13 0;
#X connect 97 0 64 0;
#X connect 97 0 96 0;
#X connect 98 0 77 0;
#X connect 99 0 100 0;
#X connect 101 0 67 0;
#X connect 102 0 68 0;
#X connect 103 0 69 0;
#X connect 104 0 110 0;
#X connect 105 0 108 0;
#X connect 105 1 143 0;
#X connect 106 0 94 1;
#X connect 107 0 37 2;
#X connect 108 0 144 0;
#X connect 109 0 41 0;
#X connect 109 0 150 0;
#X connect 110 0 105 0;
#X connect 112 0 113 0;
#X connect 113 0 115 0;
#X connect 113 0 117 0;
#X connect 114 0 118 0;
#X connect 116 0 10 0;
#X connect 118 0 119 0;
#X connect 119 0 113 0;
#X connect 119 1 113 1;
#X connect 120 0 130 0;
#X connect 123 0 22 0;
#X connect 124 0 23 0;
#X connect 127 0 99 0;
#X connect 130 0 146 0;
#X connect 130 0 147 0;
#X connect 130 1 87 0;
#X connect 130 2 30 0;
#X connect 130 3 33 0;
#X connect 130 4 85 0;
#X connect 130 5 111 0;
#X connect 130 6 121 0;
#X connect 130 7 122 0;
#X connect 130 8 129 0;
#X connect 130 9 128 0;
#X connect 130 10 125 0;
#X connect 130 11 126 0;
#X connect 130 12 131 0;
#X connect 130 13 132 0;
#X connect 130 13 145 0;
#X connect 133 0 20 0;
#X connect 134 0 135 0;
#X connect 135 0 137 0;
#X connect 135 0 136 0;
#X connect 136 0 138 0;
#X connect 136 0 140 0;
#X connect 136 0 141 0;
#X connect 137 0 139 0;
#X connect 137 0 142 0;
#X connect 148 0 37 0;
#X connect 149 0 147 0;
#X coords 0 -1 1 1 120 100 1 100 138;
