#N canvas 261 72 1060 648 10;
#X text 724 -94 start point (s);
#X obj 668 -92 * 44100;
#X obj 341 414 *~ 1;
#X obj 158 -111 inlet;
#X obj 341 455 outlet~;
#X obj 362 394 r \$0-mute;
#X obj 224 133 s \$0-mute;
#X obj 199 113 tgl 15 0 empty empty empty 17 7 0 10 -262144 -1 -1 1
1;
#X obj 450 49 r \$0-length;
#X obj -32 -111 inlet;
#X floatatom 104 166 7 0 0 0 - - -;
#X obj -1 50 s \$0-length;
#X obj -101 -109 inlet;
#X floatatom 104 148 8 0 0 0 - - -;
#X obj 668 -116 r \$0-start;
#X obj -68 50 s \$0-start;
#X obj 242 -111 inlet;
#X obj 104 184 hradio 12 1 0 8 empty empty empty 0 -8 0 10 -262144
-1 -1 0;
#X obj 73 231 s \$0-channel;
#X obj 215 284 r \$0-channel;
#X msg 215 307 set loop-buffer\$1;
#X obj -1 30 / 100;
#X obj -68 29 / 100;
#X obj 341 434 *~ 1;
#X obj 202 133 vsl 12 60 0 300 0 0 empty empty empty 0 -9 0 10 -262144
-1 -1 1967 1;
#X obj 228 2 loadbang;
#X msg 219 62 100;
#X obj -149 -110 inlet;
#X obj 104 131 bng 15 250 50 0 empty empty empty 17 7 0 10 -204786
-1 -1;
#X obj 139 131 bng 15 250 50 0 empty empty empty 17 7 0 10 -261234
-1 -1;
#X text -179 -130 rec-start;
#X text -112 -130 windw-start;
#X text -32 -130 winwd-width;
#X text 162 -129 mute;
#X text 235 -132 channel-sel;
#X msg 256 25 0;
#X obj 592 -118 inlet;
#X text 629 -119 set id;
#X obj 547 -91 mik-osc-mix-router;
#X obj 109 326 r \$0-channel;
#X obj -199 -87 s \$0-rec-start;
#X obj -150 69 r \$0-rec-start;
#X obj 66 305 r \$0-rec-start;
#X obj 122 131 bng 15 250 50 0 empty empty empty 17 7 0 10 -4032 -1
-1;
#X obj -108 -87 s \$0-set-start;
#X obj -150 156 s \$0-set-start;
#X obj 66 434 s \$0-set-start;
#X obj -32 -58 s \$0-set-length;
#X obj 79 48 r \$0-set-length;
#X obj 89 371 s \$0-set-length;
#X obj 73 211 + 1;
#X obj -150 90 mik-timer;
#X obj -97 179 s \$0-set-length;
#X obj 457 -122 loadbang;
#X obj 418 -119 bng 15 250 50 0 empty empty empty 17 7 0 10 -262144
-1 -1;
#X obj 458 -44 s \$0-magic-offset;
#X obj -68 8 - 0;
#X obj -53 -13 r \$0-magic-offset;
#X obj 499 -67 s \$0-bitrate;
#X msg 499 -91 44100;
#X obj 411 133 phasor~;
#X obj 535 122 phasor~;
#X obj 537 196 samphold~;
#X obj 502 101 *;
#X obj 517 10 r \$0-bitrate;
#X obj 536 173 *~;
#X obj 411 206 *~;
#X obj 412 226 +~;
#X obj 412 248 +~;
#X obj 340 374 tabread4~ loop-buffer1;
#X obj 426 184 r 0$-winsize;
#X obj 681 213 s 0$-winsize;
#X obj 681 128 * 44100;
#X obj 668 -45 s~ \$0-start-smpl;
#X obj 438 226 r~ \$0-start-smpl;
#X obj 767 213 s \$0-win-fq;
#X obj 411 106 r \$0-win-fq;
#X obj 681 106 mik-recipro;
#X obj 785 193 * 1;
#X obj 786 149 t b f;
#X obj 288 168 +~ 0.5;
#X obj 289 192 wrap~;
#X obj 276 221 *~ -1;
#X obj 276 248 +~ 1;
#X text 284 146 Hanning?;
#X obj 502 122 sig~;
#X obj 157 116 vsl 12 60 0 200 0 0 empty empty empty 0 -9 0 10 -262144
-1 -1 0 1;
#X obj 171 116 vsl 12 60 0 250 0 0 empty empty empty 0 -9 0 10 -262144
-1 -1 2360 1;
#X obj 185 116 vsl 12 60 0 200 0 0 empty empty empty 0 -9 0 10 -262144
-1 -1 2950 1;
#X obj 147 210 s \$0-window-size;
#X obj 171 254 s \$0-pitch;
#X obj 185 230 s \$0-speed;
#X obj 711 39 r \$0-window-size;
#X obj 691 149 r \$0-pitch;
#X obj 535 102 * 1;
#X obj 535 30 r \$0-speed;
#X obj 535 71 t b f;
#X obj 711 61 + 1;
#X obj 139 114 bng 15 250 50 0 empty empty empty 17 7 0 10 -262144
-1 -1;
#X msg 257 48 100;
#X obj 307 -11 r stop-all-grannys;
#X obj 711 83 / 1000;
#X obj 450 70 mik-recipro;
#X obj 668 -68 sig~;
#X obj 373 414 expr pow($f1/100 \, 2);
#X msg 198 40 0;
#X obj 242 -88 s \$0-gui-channel;
#X obj 242 101 r \$0-gui-mute;
#X obj 158 -88 s \$0-gui-mute;
#X obj 158 392 t b;
#X obj 158 434 s \$0-gui-mute;
#X msg 158 414 1;
#X obj -144 179 t b;
#X obj -144 221 s \$0-gui-mute;
#X msg -144 201 1;
#X obj 66 348 mik-phrase-receiver;
#X obj -14 144 r \$0-gui-channel;
#X floatatom 633 237 15 0 0 0 - - -;
#X obj 691 173 expr pow(($f1+50)/150 \, 2);
#X obj 535 51 expr pow(($f1+1)/100 \, 0.5);
#X obj 122 114 bng 15 250 50 0 empty empty empty 17 7 0 10 -260097
-1 -1;
#X obj -48 211 s \$0-freeze;
#X obj 67 -58 r \$0-set-window-size;
#X obj 97 -38 r \$0-set-pitch;
#X obj 122 -18 r \$0-set-speed;
#X obj -48 252 r \$0-freeze;
#X obj -48 303 t b b;
#X text -146 426 todo at to freezuje;
#X obj 121 284 del 100;
#X obj -32 78 del 100;
#X obj -48 324 del 10;
#X obj 458 -92 f 25;
#X obj -60 275 del 75;
#X text 39 -132 position offset;
#X obj 41 -112 inlet;
#X obj 41 -89 s \$0-window-offset;
#X obj 582 295 r \$0-set-start;
#X obj 582 386 + 0;
#X obj 597 316 r \$0-window-offset;
#X obj 582 410 s \$0-set-start-final;
#X obj 58 73 r \$0-set-start-final;
#X floatatom 556 431 15 0 0 0 - - -;
#X floatatom 597 339 15 0 0 0 - - -;
#X obj 597 362 t b f;
#X connect 1 0 103 0;
#X connect 2 0 23 0;
#X connect 3 0 108 0;
#X connect 5 0 2 1;
#X connect 7 0 6 0;
#X connect 8 0 102 0;
#X connect 9 0 47 0;
#X connect 10 0 21 0;
#X connect 12 0 44 0;
#X connect 13 0 56 0;
#X connect 14 0 1 0;
#X connect 16 0 106 0;
#X connect 17 0 50 0;
#X connect 19 0 20 0;
#X connect 20 0 69 0;
#X connect 21 0 11 0;
#X connect 22 0 15 0;
#X connect 23 0 4 0;
#X connect 24 0 104 0;
#X connect 25 0 26 0;
#X connect 25 0 35 0;
#X connect 25 0 105 0;
#X connect 25 0 99 0;
#X connect 26 0 88 0;
#X connect 26 0 87 0;
#X connect 27 0 40 0;
#X connect 28 0 51 1;
#X connect 29 0 129 0;
#X connect 35 0 7 0;
#X connect 36 0 38 1;
#X connect 39 0 115 2;
#X connect 41 0 51 0;
#X connect 42 0 115 0;
#X connect 43 0 128 0;
#X connect 48 0 10 0;
#X connect 50 0 18 0;
#X connect 51 0 45 0;
#X connect 51 2 52 0;
#X connect 51 2 112 0;
#X connect 53 0 59 0;
#X connect 53 0 131 0;
#X connect 54 0 59 0;
#X connect 54 0 131 0;
#X connect 56 0 22 0;
#X connect 57 0 56 1;
#X connect 59 0 58 0;
#X connect 60 0 66 0;
#X connect 60 0 62 1;
#X connect 61 0 65 0;
#X connect 62 0 67 1;
#X connect 63 0 85 0;
#X connect 64 0 63 1;
#X connect 65 0 62 0;
#X connect 66 0 67 0;
#X connect 67 0 68 0;
#X connect 68 0 69 0;
#X connect 69 0 2 0;
#X connect 70 0 66 1;
#X connect 72 0 71 0;
#X connect 74 0 68 1;
#X connect 76 0 60 0;
#X connect 77 0 72 0;
#X connect 77 1 79 0;
#X connect 78 0 75 0;
#X connect 79 0 78 0;
#X connect 79 1 78 1;
#X connect 80 0 81 0;
#X connect 81 0 82 0;
#X connect 82 0 83 0;
#X connect 85 0 65 1;
#X connect 86 0 89 0;
#X connect 87 0 90 0;
#X connect 88 0 91 0;
#X connect 92 0 97 0;
#X connect 93 0 118 0;
#X connect 94 0 61 0;
#X connect 95 0 119 0;
#X connect 96 0 94 0;
#X connect 96 1 94 1;
#X connect 97 0 101 0;
#X connect 98 0 26 0;
#X connect 99 0 24 0;
#X connect 100 0 35 0;
#X connect 101 0 77 0;
#X connect 102 0 63 0;
#X connect 102 1 94 0;
#X connect 103 0 73 0;
#X connect 104 0 23 1;
#X connect 105 0 86 0;
#X connect 107 0 7 0;
#X connect 109 0 111 0;
#X connect 111 0 110 0;
#X connect 112 0 114 0;
#X connect 114 0 113 0;
#X connect 115 0 46 0;
#X connect 115 1 49 0;
#X connect 115 1 109 0;
#X connect 116 0 17 0;
#X connect 118 0 78 0;
#X connect 118 0 117 0;
#X connect 119 0 96 0;
#X connect 120 0 121 0;
#X connect 122 0 86 0;
#X connect 123 0 87 0;
#X connect 124 0 88 0;
#X connect 125 0 132 0;
#X connect 126 0 130 0;
#X connect 126 1 28 0;
#X connect 128 0 115 1;
#X connect 129 0 51 2;
#X connect 130 0 29 0;
#X connect 131 0 55 0;
#X connect 132 0 126 0;
#X connect 134 0 135 0;
#X connect 136 0 137 0;
#X connect 137 0 139 0;
#X connect 137 0 141 0;
#X connect 138 0 142 0;
#X connect 140 0 13 0;
#X connect 142 0 143 0;
#X connect 143 0 137 0;
#X connect 143 1 137 1;
#X coords 0 -1 1 1 120 100 1 100 100;
