#N canvas 149 194 676 426 10;
#X obj 211 93 symbol;
#X msg 211 67 /\$1;
#X obj 113 35 inlet;
#X obj 211 36 inlet;
#X text 161 35 data;
#X text 250 37 chan msg;
#X obj 155 181 outlet;
#X obj 113 76 unpack s f;
#X obj 148 114 select void;
#X obj 155 160 f;
#X obj 148 138 t b;
#X connect 0 0 8 1;
#X connect 1 0 0 0;
#X connect 2 0 7 0;
#X connect 3 0 1 0;
#X connect 7 0 8 0;
#X connect 7 1 9 1;
#X connect 8 0 10 0;
#X connect 9 0 6 0;
#X connect 10 0 9 0;
