#N canvas 204 217 690 437 10;
#X obj 26 48 inlet~;
#X obj 160 48 inlet~;
#X obj 113 282 tgl 15 0 empty empty empty 17 7 0 10 -262144 -1 -1 1
1;
#X obj 4 264 *~;
#X obj 73 28 loadbang;
#X msg 73 51 1;
#X obj 103 105 vsl 15 128 0 200 0 0 empty empty empty 0 -9 0 10 -258113
-1 -1 6350 1;
#X floatatom 101 241 5 0 0 0 - - -;
#X obj 40 292 *~;
#X obj 37 266 / 100;
#X msg 110 55 100;
#X obj 133 369 clip~ -1 1;
#X obj 190 264 *~;
#X obj 149 302 *~;
#X obj 186 288 / 100;
#X obj 55 369 clip~ -1 1;
#X obj 55 396 outlet~;
#X obj 134 395 outlet~;
#X obj 64 334 lop~;
#X obj 124 334 lop~;
#X obj 122 105 vsl 15 128 0 150 0 0 empty empty empty 0 -9 0 10 -191407
-1 -1 12700 1;
#X floatatom 102 263 6 0 0 0 - - -;
#X obj 154 229 expr pow($f1 \, 2);
#X msg 141 71 150;
#X obj 206 29 inlet;
#X obj 206 71 s \$0-channel;
#X obj 322 72 r \$0-channel;
#X floatatom 206 50 5 0 0 0 - - -;
#X obj 300 129 list split 1;
#X obj 300 156 sel 0;
#X obj 344 157 list split 1;
#X obj 299 100 r mix-broadcast;
#X obj 345 209 f;
#X obj 313 234 f;
#X obj 344 181 sel channel-volume channel-mute;
#X obj 443 241 f;
#X obj 443 211 f;
#X obj 305 263 print 1;
#X obj 445 273 print 2;
#X connect 0 0 3 0;
#X connect 1 0 12 0;
#X connect 2 0 3 1;
#X connect 2 0 12 1;
#X connect 3 0 8 0;
#X connect 4 0 5 0;
#X connect 4 0 10 0;
#X connect 4 0 23 0;
#X connect 5 0 2 0;
#X connect 6 0 7 0;
#X connect 7 0 9 0;
#X connect 7 0 14 0;
#X connect 8 0 18 0;
#X connect 9 0 8 1;
#X connect 10 0 6 0;
#X connect 11 0 17 0;
#X connect 12 0 13 0;
#X connect 13 0 19 0;
#X connect 14 0 13 1;
#X connect 15 0 16 0;
#X connect 18 0 15 0;
#X connect 19 0 11 0;
#X connect 20 0 22 0;
#X connect 21 0 19 1;
#X connect 21 0 18 1;
#X connect 22 0 21 0;
#X connect 23 0 20 0;
#X connect 24 0 27 0;
#X connect 26 0 29 1;
#X connect 27 0 25 0;
#X connect 28 0 29 0;
#X connect 28 1 30 0;
#X connect 29 0 33 0;
#X connect 29 0 35 0;
#X connect 30 0 34 0;
#X connect 30 1 32 1;
#X connect 30 1 36 1;
#X connect 31 0 28 0;
#X connect 32 0 33 1;
#X connect 33 0 37 0;
#X connect 34 0 32 0;
#X connect 34 1 36 0;
#X connect 35 0 38 0;
#X connect 36 0 35 1;
#X coords 0 -1 1 1 40 200 2 100 100;
