#N canvas 147 195 676 426 10;
#X obj 113 35 inlet;
#X obj 211 36 inlet;
#X text 161 35 data;
#X text 250 37 chan msg;
#X obj 155 181 outlet;
#X obj 113 76 unpack s f;
#X obj 155 160 f;
#X obj 148 138 t b;
#X obj 148 114 select 0;
#X obj 211 77 i;
#X connect 0 0 5 0;
#X connect 1 0 9 0;
#X connect 5 0 8 0;
#X connect 5 1 6 1;
#X connect 6 0 4 0;
#X connect 7 0 6 0;
#X connect 8 0 7 0;
#X connect 9 0 8 1;
