#N canvas 162 246 450 300 10;
#X obj 79 35 inlet;
#X obj 133 35 inlet;
#X msg 148 194 start 0;
#X msg 209 194 stop;
#X obj 186 35 inlet;
#X obj 142 124 bng 15 250 50 0 empty empty empty 17 7 0 10 -262144
-1 -1;
#X obj 181 124 bng 15 250 50 0 empty empty empty 17 7 0 10 -262144
-1 -1;
#X msg 257 215 set loop-buffer\$1;
#X obj 164 266 tabwrite~;
#X obj 24 35 inlet~;
#X text 104 123 line;
#X text 131 141 start;
#X text 211 123 chan;
#X text 175 141 stop;
#X obj 119 160 hradio 15 1 0 8 empty empty empty 0 -8 0 10 -262144
-1 -1 1;
#X obj 257 188 + 1;
#X obj 266 250 print dbg;
#X connect 0 0 5 0;
#X connect 1 0 6 0;
#X connect 2 0 8 0;
#X connect 3 0 8 0;
#X connect 4 0 14 0;
#X connect 5 0 2 0;
#X connect 6 0 3 0;
#X connect 7 0 8 0;
#X connect 7 0 16 0;
#X connect 9 0 8 0;
#X connect 14 0 15 0;
#X connect 15 0 7 0;
#X coords 0 -1 1 1 150 80 1 100 100;
