#N canvas 214 212 494 437 10;
#X obj 102 355 dac~;
#X obj 26 48 inlet~;
#X obj 160 48 inlet~;
#X obj 113 282 tgl 15 0 empty empty empty 17 7 0 10 -262144 -1 -1 1
1;
#X obj 4 264 *~;
#X obj 73 28 loadbang;
#X msg 73 51 1;
#X obj 105 105 vsl 30 150 0 150 0 0 empty empty empty 0 -9 0 10 -262144
-1 -1 10000 1;
#X floatatom 108 262 5 0 0 0 - - -;
#X obj 40 292 *~;
#X obj 37 266 / 100;
#X msg 110 55 100;
#X obj 133 329 clip~ -1 1;
#X obj 190 264 *~;
#X obj 149 302 *~;
#X obj 186 288 / 100;
#X obj 55 329 clip~ -1 1;
#X obj 55 396 outlet~;
#X obj 134 395 outlet~;
#X connect 1 0 4 0;
#X connect 2 0 13 0;
#X connect 3 0 4 1;
#X connect 3 0 13 1;
#X connect 4 0 9 0;
#X connect 5 0 6 0;
#X connect 5 0 11 0;
#X connect 6 0 3 0;
#X connect 7 0 8 0;
#X connect 8 0 15 0;
#X connect 8 0 10 0;
#X connect 9 0 16 0;
#X connect 10 0 9 1;
#X connect 11 0 7 0;
#X connect 12 0 0 1;
#X connect 12 0 18 0;
#X connect 13 0 14 0;
#X connect 14 0 12 0;
#X connect 15 0 14 1;
#X connect 16 0 0 0;
#X connect 16 0 17 0;
#X coords 0 -1 1 1 40 200 2 100 100;
