#N canvas 233 331 450 300 10;
#X obj 102 76 inlet~;
#X obj 102 101 m-s;
#X obj 102 267 outlet~;
#X obj 132 77 inlet~;
#X obj 132 102 m-s;
#X obj 132 268 outlet~;
#X obj 162 77 inlet~;
#X obj 162 102 m-s;
#X obj 162 268 outlet~;
#X obj 192 77 inlet~;
#X obj 192 102 m-s;
#X obj 192 268 outlet~;
#X obj 222 77 inlet~;
#X obj 222 102 m-s;
#X obj 222 268 outlet~;
#X obj 252 77 inlet~;
#X obj 252 102 m-s;
#X obj 252 268 outlet~;
#X obj 282 77 inlet~;
#X obj 282 102 m-s;
#X obj 282 268 outlet~;
#X obj 312 77 inlet~;
#X obj 312 102 m-s;
#X obj 312 268 outlet~;
#X connect 0 0 1 0;
#X connect 1 0 2 0;
#X connect 3 0 4 0;
#X connect 4 0 5 0;
#X connect 6 0 7 0;
#X connect 7 0 8 0;
#X connect 9 0 10 0;
#X connect 10 0 11 0;
#X connect 12 0 13 0;
#X connect 13 0 14 0;
#X connect 15 0 16 0;
#X connect 16 0 17 0;
#X connect 18 0 19 0;
#X connect 19 0 20 0;
#X connect 21 0 22 0;
#X connect 22 0 23 0;
#X coords 0 -1 1 1 240 160 1 100 100;
