#N canvas 544 160 602 516 10;
#X obj 111 442 outlet;
#X obj 451 442 outlet;
#X obj 122 10 inlet~;
#X obj 253 60 readsf~;
#X msg 254 26 open ./wav/cortez.wav;
#X obj 189 18 tgl 15 0 empty empty empty 17 7 0 10 -262144 -1 -1 0
1;
#X obj 232 434 dac~;
#X obj 314 204 bng 15 250 50 0 empty empty empty 17 7 0 10 -262144
-1 -1;
#X obj 432 203 bng 15 250 50 0 empty empty empty 17 7 0 10 -262144
-1 -1;
#X obj 378 85 / 10;
#X floatatom 381 54 5 0 0 0 - - -;
#X obj 310 103 *~ 1;
#X msg 230 6 open ./wav/bobmarley.wav;
#X obj 337 62 tgl 15 0 empty empty empty 17 7 0 10 -262144 -1 -1 1
1;
#X obj 299 139 threshold~ 0.9 1000 0.1 500;
#X connect 3 0 6 0;
#X connect 3 0 6 1;
#X connect 3 0 11 0;
#X connect 4 0 3 0;
#X connect 5 0 3 0;
#X connect 9 0 11 1;
#X connect 10 0 9 0;
#X connect 11 0 14 0;
#X connect 12 0 3 0;
#X connect 13 0 11 1;
#X connect 14 0 7 0;
#X connect 14 1 8 0;
