#N canvas 650 183 450 390 10;
#X obj 66 69 inlet~;
#X obj 148 70 inlet~;
#X obj 109 69 inlet;
#X obj 120 114 tgl 15 0 empty empty empty 17 7 0 10 -262144 -1 -1 0
1;
#X obj 98 135 sel 0;
#X msg 88 160 1;
#X obj 121 160 0;
#X obj 65 189 *~ 1;
#X obj 149 192 *~ 0;
#X obj 114 232 outlet~;
#X connect 0 0 7 0;
#X connect 1 0 8 0;
#X connect 2 0 3 0;
#X connect 3 0 4 0;
#X connect 3 0 8 1;
#X connect 4 0 5 0;
#X connect 4 1 6 0;
#X connect 5 0 7 1;
#X connect 6 0 7 1;
#X connect 7 0 9 0;
#X connect 8 0 9 0;
#X coords 0 -1 1 1 50 30 1 100 100;
