#N canvas 258 60 742 598 10;
#X obj 21 123 readsf~;
#X msg 21 90 open object1_t.wav;
#X obj 170 228 m-s;
#X obj 200 228 m-s;
#X obj 230 228 m-s;
#X obj 199 437 dac~;
#X obj 21 7 tgl 15 0 empty empty empty 17 7 0 10 -262144 -1 -1 0 1
;
#X obj 21 26 sel 1;
#X obj 52 48 del 200;
#X msg 52 68 1;
#X obj 151 123 readsf~;
#X obj 151 7 tgl 15 0 empty empty empty 17 7 0 10 -262144 -1 -1 0 1
;
#X obj 151 26 sel 1;
#X obj 182 48 del 200;
#X msg 182 68 1;
#X obj 281 123 readsf~;
#X obj 281 7 tgl 15 0 empty empty empty 17 7 0 10 -262144 -1 -1 0 1
;
#X obj 281 26 sel 1;
#X obj 312 48 del 200;
#X msg 312 68 1;
#X floatatom 203 184 5 0 0 0 - - -;
#X msg 151 90 open object2.wav;
#X msg 281 90 open object3.wav;
#X connect 0 0 2 0;
#X connect 1 0 0 0;
#X connect 2 0 5 0;
#X connect 2 1 5 1;
#X connect 3 0 5 0;
#X connect 3 1 5 1;
#X connect 4 0 5 0;
#X connect 4 1 5 1;
#X connect 6 0 7 0;
#X connect 7 0 1 0;
#X connect 7 0 8 0;
#X connect 7 1 0 0;
#X connect 8 0 9 0;
#X connect 9 0 0 0;
#X connect 10 0 3 0;
#X connect 11 0 12 0;
#X connect 12 0 21 0;
#X connect 12 0 13 0;
#X connect 12 1 10 0;
#X connect 13 0 14 0;
#X connect 14 0 10 0;
#X connect 15 0 4 0;
#X connect 16 0 17 0;
#X connect 17 0 22 0;
#X connect 17 0 18 0;
#X connect 17 1 15 0;
#X connect 18 0 19 0;
#X connect 19 0 15 0;
#X connect 20 0 2 1;
#X connect 20 0 3 1;
#X connect 20 0 4 1;
#X connect 21 0 10 0;
#X connect 22 0 15 0;
