#N canvas 449 208 511 409 10;
#X obj 67 74 inlet;
#X obj 144 74 inlet;
#X obj 220 73 inlet;
#X obj 90 168 t b b;
#X obj 132 199 t b b;
#X obj 38 256 f;
#X obj 98 257 f;
#X obj 48 334 outlet;
#X obj 90 334 outlet;
#X obj 144 122 bng 15 250 50 0 empty empty empty 17 7 0 10 -262144
-1 -1;
#X obj 143 142 bng 15 250 50 0 empty empty empty 17 7 0 10 -262144
-1 -1;
#X obj 133 334 outlet;
#X obj 133 313 f;
#X obj 66 283 -;
#X text 106 120 start;
#X text 105 138 stop;
#X text 56 51 set t=0;
#X text 150 53 t1;
#X text 229 50 t2;
#X text 56 354 t1;
#X text 98 353 t2;
#X text 135 352 t2-t1;
#X obj 68 224 / 10;
#X obj 67 198 timer;
#X obj 15 305 - 20;
#X floatatom 183 245 10 0 0 0 - - -;
#X obj 48 102 bng 15 250 50 0 empty empty empty 17 7 0 10 -262144 -1
-1;
#X obj 53 177 bng 15 250 50 0 empty empty empty 17 7 0 10 -262144 -1
-1;
#X floatatom 49 376 5 0 0 0 - - -;
#X floatatom 144 375 5 0 0 0 - - -;
#X floatatom 96 376 5 0 0 0 - - -;
#X obj 67 100 t b;
#X connect 0 0 26 0;
#X connect 0 0 31 0;
#X connect 1 0 9 0;
#X connect 2 0 10 0;
#X connect 3 0 5 0;
#X connect 3 1 23 1;
#X connect 4 0 6 0;
#X connect 4 0 12 0;
#X connect 4 1 23 1;
#X connect 5 0 13 1;
#X connect 5 0 24 0;
#X connect 6 0 13 0;
#X connect 6 0 8 0;
#X connect 6 0 30 0;
#X connect 9 0 3 0;
#X connect 10 0 4 0;
#X connect 12 0 11 0;
#X connect 12 0 29 0;
#X connect 13 0 12 1;
#X connect 22 0 5 1;
#X connect 22 0 6 1;
#X connect 23 0 22 0;
#X connect 23 0 25 0;
#X connect 24 0 7 0;
#X connect 24 0 28 0;
#X connect 27 0 23 0;
#X connect 31 0 23 0;
#X coords 0 -1 1 1 60 60 1 100 100;
