#N canvas 0 53 1366 691 10;
#X obj 642 117 mik-fadeout-looper;
#X obj 18 322 s start-rec;
#X obj 18 305 bng 15 250 50 0 empty empty empty 17 7 0 10 -258113 -1
-1;
#X obj 18 345 bng 15 250 50 0 empty empty empty 17 7 0 10 -260097 -1
-1;
#X obj 18 363 s stop-rec;
#X obj 399 141 mik-fadeout-looper-granny;
#X msg 530 91 1;
#X msg 569 91 100;
#X obj 551 63 bng 15 250 50 0 empty empty empty 17 7 0 10 -262144 -1
-1;
#X obj 644 27 r start-rec;
#X obj 644 51 mik-timer;
#X obj 93 318 osc~ 440;
#X obj 149 340 tgl 15 0 empty empty empty 17 7 0 10 -262144 -1 -1 0
1;
#X obj 95 341 *~ 0;
#X obj 149 296 loadbang;
#X msg 149 318 0;
#X obj 213 43 mik-out;
#X obj 803 28 r start-rec;
#X obj 803 52 mik-timer;
#X obj 964 27 r start-rec;
#X obj 964 51 mik-timer;
#X obj 1134 27 r start-rec;
#X obj 1134 51 mik-timer;
#X obj 644 230 r start-rec;
#X obj 644 254 mik-timer;
#X obj 803 231 r start-rec;
#X obj 803 255 mik-timer;
#X obj 964 230 r start-rec;
#X obj 964 254 mik-timer;
#X obj 1134 230 r start-rec;
#X obj 1134 254 mik-timer;
#X obj 644 440 r start-rec;
#X obj 644 464 mik-timer;
#X obj 803 441 r start-rec;
#X obj 803 465 mik-timer;
#X obj 964 440 r start-rec;
#X obj 964 464 mik-timer;
#X obj 1134 440 r start-rec;
#X obj 1134 464 mik-timer;
#X obj 474 438 r start-rec;
#X obj 474 462 mik-timer;
#X obj 801 118 mik-fadeout-looper;
#X obj 962 117 mik-fadeout-looper;
#X obj 1132 117 mik-fadeout-looper;
#X obj 642 320 mik-fadeout-looper;
#X obj 801 321 mik-fadeout-looper;
#X obj 962 320 mik-fadeout-looper;
#X obj 1132 320 mik-fadeout-looper;
#X obj 642 530 mik-fadeout-looper;
#X obj 801 531 mik-fadeout-looper;
#X obj 962 530 mik-fadeout-looper;
#X obj 1135 530 mik-fadeout-looper;
#X obj 472 528 mik-fadeout-looper;
#X text 487 653 todo ekvalizace;
#X obj 401 47 r start-rec;
#X obj 401 71 mik-timer;
#X obj 642 203 throw~ out_l;
#X obj 801 203 throw~ out_l;
#X obj 962 203 throw~ out_l;
#X obj 1132 203 throw~ out_l;
#X obj 642 408 throw~ out_l;
#X obj 801 408 throw~ out_l;
#X obj 962 408 throw~ out_l;
#X obj 1132 408 throw~ out_l;
#X obj 472 615 throw~ out_l;
#X obj 642 615 throw~ out_l;
#X obj 801 615 throw~ out_l;
#X obj 962 615 throw~ out_l;
#X obj 1135 615 throw~ out_l;
#X obj 214 1 catch~ out_l;
#X obj 220 20 catch~ out_r;
#X obj 86 363 throw~ out_l;
#X obj 92 382 throw~ out_r;
#N canvas 0 53 1366 691 input 0;
#X obj 272 36 adc~ 1 2 3 4 5 6 7 8;
#X obj 12 352 table loop-buffer8 1.323e+07;
#X obj 12 384 table loop-buffer7 1.323e+07;
#X obj 12 416 table loop-buffer6 1.323e+07;
#X obj 12 448 table loop-buffer5 1.323e+07;
#X obj 12 480 table loop-buffer4 1.323e+07;
#X obj 12 476 table loop-buffer3 1.323e+07;
#X obj 12 512 table loop-buffer2 1.323e+07;
#X obj 12 544 table loop-buffer1 1.323e+07;
#X obj 305 92 mik-tabwrite;
#X obj 514 92 mik-tabwrite;
#X obj 514 219 mik-tabwrite;
#X obj 305 219 mik-tabwrite;
#X obj 305 60 r start-rec;
#X obj 381 60 r stop-rec;
#X obj 300 346 mik-tabwrite;
#X obj 520 346 mik-tabwrite;
#X obj 520 473 mik-tabwrite;
#X obj 300 473 mik-tabwrite;
#X msg 455 472 0;
#X msg 674 472 1;
#X msg 454 346 2;
#X msg 674 346 3;
#X msg 456 218 4;
#X msg 666 218 5;
#X msg 459 92 6;
#X msg 668 92 7;
#X obj 185 -15 outlet~;
#X obj 234 -15 outlet~;
#X obj 284 -15 outlet~;
#X obj 334 -15 outlet~;
#X obj 384 -15 outlet~;
#X obj 436 -15 outlet~;
#X text 195 -35 1;
#X text 301 -36 3;
#X text 351 -36 4;
#X text 398 -36 5;
#X text 449 -35 6;
#X obj 487 -15 outlet~;
#X obj 537 -15 outlet~;
#X text 499 -35 7;
#X text 549 -35 8;
#X obj 514 60 r start-rec;
#X obj 590 60 r stop-rec;
#X obj 305 187 r start-rec;
#X obj 378 186 r stop-rec;
#X obj 514 187 r start-rec;
#X obj 588 186 r stop-rec;
#X obj 300 314 r start-rec;
#X obj 376 314 r stop-rec;
#X obj 520 314 r start-rec;
#X obj 596 314 r stop-rec;
#X obj 520 441 r start-rec;
#X obj 596 440 r stop-rec;
#X obj 300 441 r start-rec;
#X obj 377 440 r stop-rec;
#X text 247 -16;
#X text 249 -34 2;
#X obj 449 60 r \$0-load;
#X obj 658 60 r \$0-load;
#X obj 446 186 r \$0-load;
#X obj 656 186 r \$0-load;
#X obj 444 314 r \$0-load;
#X obj 664 314 r \$0-load;
#X obj 664 440 r \$0-load;
#X obj 445 440 r \$0-load;
#X obj 72 3 s \$0-load;
#X obj 72 -21 loadbang;
#X obj 54 -19 bng 15 250 50 0 empty empty empty 17 7 0 10 -262144 -1
-1;
#X connect 0 0 18 0;
#X connect 0 0 27 0;
#X connect 0 1 17 0;
#X connect 0 1 28 0;
#X connect 0 2 15 0;
#X connect 0 2 29 0;
#X connect 0 3 16 0;
#X connect 0 3 30 0;
#X connect 0 4 12 0;
#X connect 0 4 31 0;
#X connect 0 5 11 0;
#X connect 0 5 32 0;
#X connect 0 6 9 0;
#X connect 0 6 38 0;
#X connect 0 7 10 0;
#X connect 0 7 39 0;
#X connect 13 0 9 1;
#X connect 14 0 9 2;
#X connect 19 0 18 3;
#X connect 20 0 17 3;
#X connect 21 0 15 3;
#X connect 22 0 16 3;
#X connect 23 0 12 3;
#X connect 24 0 11 3;
#X connect 25 0 9 3;
#X connect 26 0 10 3;
#X connect 42 0 10 1;
#X connect 43 0 10 2;
#X connect 44 0 12 1;
#X connect 45 0 12 2;
#X connect 46 0 11 1;
#X connect 47 0 11 2;
#X connect 48 0 15 1;
#X connect 49 0 15 2;
#X connect 50 0 16 1;
#X connect 51 0 16 2;
#X connect 52 0 17 1;
#X connect 53 0 17 2;
#X connect 54 0 18 1;
#X connect 55 0 18 2;
#X connect 58 0 25 0;
#X connect 59 0 26 0;
#X connect 60 0 23 0;
#X connect 61 0 24 0;
#X connect 62 0 21 0;
#X connect 63 0 22 0;
#X connect 64 0 20 0;
#X connect 65 0 19 0;
#X connect 67 0 66 0;
#X connect 68 0 66 0;
#X restore 72 6 pd input;
#X obj 34 268 throw~ out_l;
#X obj 180 38 m-s;
#X obj 117 268 throw~ out_r;
#X obj 5 38 m-s;
#X obj 30 38 m-s;
#X obj 55 38 m-s;
#X obj 80 38 m-s;
#X obj 105 38 m-s;
#X obj 130 38 m-s;
#X obj 155 38 m-s;
#X connect 0 0 56 0;
#X connect 2 0 1 0;
#X connect 3 0 4 0;
#X connect 6 0 5 3;
#X connect 6 0 5 4;
#X connect 7 0 5 5;
#X connect 8 0 6 0;
#X connect 8 0 7 0;
#X connect 9 0 10 0;
#X connect 10 0 0 0;
#X connect 10 2 0 1;
#X connect 11 0 13 0;
#X connect 12 0 13 1;
#X connect 13 0 71 0;
#X connect 13 0 72 0;
#X connect 14 0 15 0;
#X connect 15 0 12 0;
#X connect 17 0 18 0;
#X connect 18 0 41 0;
#X connect 18 2 41 1;
#X connect 19 0 20 0;
#X connect 20 0 42 0;
#X connect 20 2 42 1;
#X connect 21 0 22 0;
#X connect 22 0 43 0;
#X connect 22 2 43 1;
#X connect 23 0 24 0;
#X connect 24 0 44 0;
#X connect 24 2 44 1;
#X connect 25 0 26 0;
#X connect 26 0 45 0;
#X connect 26 2 45 1;
#X connect 27 0 28 0;
#X connect 28 0 46 0;
#X connect 28 2 46 1;
#X connect 29 0 30 0;
#X connect 30 0 47 0;
#X connect 30 2 47 1;
#X connect 31 0 32 0;
#X connect 32 0 48 0;
#X connect 32 2 48 1;
#X connect 33 0 34 0;
#X connect 34 0 49 0;
#X connect 34 2 49 1;
#X connect 35 0 36 0;
#X connect 36 0 50 0;
#X connect 36 2 50 1;
#X connect 37 0 38 0;
#X connect 38 0 51 0;
#X connect 38 2 51 1;
#X connect 39 0 40 0;
#X connect 40 0 52 0;
#X connect 40 2 52 1;
#X connect 41 0 57 0;
#X connect 42 0 58 0;
#X connect 43 0 59 0;
#X connect 44 0 60 0;
#X connect 45 0 61 0;
#X connect 46 0 62 0;
#X connect 47 0 63 0;
#X connect 48 0 65 0;
#X connect 49 0 66 0;
#X connect 50 0 67 0;
#X connect 51 0 68 0;
#X connect 52 0 64 0;
#X connect 54 0 55 0;
#X connect 55 0 5 0;
#X connect 55 2 5 1;
#X connect 69 0 16 0;
#X connect 70 0 16 1;
#X connect 73 0 77 0;
#X connect 73 1 78 0;
#X connect 73 2 79 0;
#X connect 73 3 80 0;
#X connect 73 4 81 0;
#X connect 73 5 82 0;
#X connect 73 6 83 0;
#X connect 73 7 75 0;
#X connect 75 0 74 0;
#X connect 75 1 76 0;
#X connect 77 0 74 0;
#X connect 77 1 76 0;
#X connect 78 0 74 0;
#X connect 78 1 76 0;
#X connect 79 0 74 0;
#X connect 79 1 76 0;
#X connect 80 0 74 0;
#X connect 80 1 76 0;
#X connect 81 0 74 0;
#X connect 81 1 76 0;
#X connect 82 0 74 0;
#X connect 82 1 76 0;
#X connect 83 0 74 0;
#X connect 83 1 76 0;
