#N canvas 1 54 1351 691 10;
#X obj 6 226 adc~ 1 2 3 4 5 6 7 8;
#X obj 2 12 table loop-buffer8 1.323e+07;
#X obj 2 36 table loop-buffer7 1.323e+07;
#X obj 2 60 table loop-buffer6 1.323e+07;
#X obj 2 86 table loop-buffer5 1.323e+07;
#X obj 1 111 table loop-buffer4 1.323e+07;
#X obj 2 136 table loop-buffer3 1.323e+07;
#X obj 2 162 table loop-buffer2 1.323e+07;
#X obj 2 186 table loop-buffer1 1.323e+07;
#X obj 15 296 mik-tabwrite;
#X obj 202 295 mik-tabwrite;
#X obj 204 381 mik-tabwrite;
#X obj 16 383 mik-tabwrite;
#X obj 169 241 bng 15 250 50 0 empty empty empty 17 7 0 10 -262144
-1 -1;
#X obj 223 238 bng 15 250 50 0 empty empty empty 17 7 0 10 -262144
-1 -1;
#X obj 642 117 mik-fadeout-looper;
#X obj 261 239 loadbang;
#X obj 145 217 r start-rec;
#X obj 185 38 s start-rec;
#X obj 185 15 bng 15 250 50 0 empty empty empty 17 7 0 10 -262144 -1
-1;
#X obj 188 65 bng 15 250 50 0 empty empty empty 17 7 0 10 -262144 -1
-1;
#X obj 188 87 s stop-rec;
#X obj 227 212 r stop-rec;
#X obj 399 91 mik-fadeout-looper-granny;
#X msg 530 41 1;
#X msg 569 41 100;
#X obj 551 13 bng 15 250 50 0 empty empty empty 17 7 0 10 -262144 -1
-1;
#X obj 17 475 mik-tabwrite;
#X obj 204 474 mik-tabwrite;
#X obj 206 560 mik-tabwrite;
#X obj 18 562 mik-tabwrite;
#X msg 174 564 0;
#X msg 369 568 1;
#X msg 175 478 2;
#X msg 363 476 3;
#X msg 172 385 4;
#X msg 360 360 5;
#X msg 174 303 6;
#X msg 358 295 7;
#X obj 644 27 r start-rec;
#X obj 644 51 mik-timer;
#X obj 270 24 osc~ 440;
#X obj 326 46 tgl 15 0 empty empty empty 17 7 0 10 -262144 -1 -1 0
1;
#X obj 272 47 *~ 0;
#X obj 326 2 loadbang;
#X msg 326 24 0;
#X obj 275 85 s~ out_l;
#X obj 334 81 s~ out_r;
#X obj 190 148 mik-out;
#X obj 189 118 r~ out_l;
#X obj 248 118 r~ out_r;
#X obj 803 28 r start-rec;
#X obj 803 52 mik-timer;
#X obj 964 27 r start-rec;
#X obj 964 51 mik-timer;
#X obj 1134 27 r start-rec;
#X obj 1134 51 mik-timer;
#X obj 644 230 r start-rec;
#X obj 644 254 mik-timer;
#X obj 803 231 r start-rec;
#X obj 803 255 mik-timer;
#X obj 964 230 r start-rec;
#X obj 964 254 mik-timer;
#X obj 1134 230 r start-rec;
#X obj 1134 254 mik-timer;
#X obj 644 440 r start-rec;
#X obj 644 464 mik-timer;
#X obj 803 441 r start-rec;
#X obj 803 465 mik-timer;
#X obj 964 440 r start-rec;
#X obj 964 464 mik-timer;
#X obj 1134 440 r start-rec;
#X obj 1134 464 mik-timer;
#X obj 474 438 r start-rec;
#X obj 474 462 mik-timer;
#X obj 801 118 mik-fadeout-looper;
#X obj 962 117 mik-fadeout-looper;
#X obj 1132 117 mik-fadeout-looper;
#X obj 642 320 mik-fadeout-looper;
#X obj 801 321 mik-fadeout-looper;
#X obj 962 320 mik-fadeout-looper;
#X obj 1132 320 mik-fadeout-looper;
#X obj 642 530 mik-fadeout-looper;
#X obj 801 531 mik-fadeout-looper;
#X obj 962 530 mik-fadeout-looper;
#X obj 1135 530 mik-fadeout-looper;
#X obj 472 528 mik-fadeout-looper;
#X connect 0 0 30 0;
#X connect 0 1 29 0;
#X connect 0 2 27 0;
#X connect 0 3 28 0;
#X connect 0 4 12 0;
#X connect 0 5 11 0;
#X connect 0 6 9 0;
#X connect 0 7 10 0;
#X connect 13 0 9 1;
#X connect 13 0 10 1;
#X connect 13 0 12 1;
#X connect 13 0 11 1;
#X connect 13 0 27 1;
#X connect 13 0 30 1;
#X connect 13 0 28 1;
#X connect 13 0 29 1;
#X connect 14 0 9 2;
#X connect 14 0 10 2;
#X connect 14 0 11 2;
#X connect 14 0 12 2;
#X connect 14 0 27 2;
#X connect 14 0 30 2;
#X connect 14 0 28 2;
#X connect 14 0 29 2;
#X connect 15 0 48 0;
#X connect 16 0 38 0;
#X connect 16 0 36 0;
#X connect 16 0 37 0;
#X connect 16 0 35 0;
#X connect 16 0 34 0;
#X connect 16 0 32 0;
#X connect 16 0 33 0;
#X connect 16 0 31 0;
#X connect 17 0 13 0;
#X connect 19 0 18 0;
#X connect 20 0 21 0;
#X connect 22 0 14 0;
#X connect 23 0 48 0;
#X connect 24 0 23 3;
#X connect 24 0 23 4;
#X connect 25 0 23 5;
#X connect 26 0 24 0;
#X connect 26 0 25 0;
#X connect 31 0 30 3;
#X connect 32 0 29 3;
#X connect 33 0 27 3;
#X connect 34 0 28 3;
#X connect 35 0 12 3;
#X connect 36 0 11 3;
#X connect 37 0 9 3;
#X connect 38 0 10 3;
#X connect 39 0 40 0;
#X connect 40 0 15 0;
#X connect 40 2 15 1;
#X connect 41 0 43 0;
#X connect 42 0 43 1;
#X connect 43 0 46 0;
#X connect 43 0 47 0;
#X connect 44 0 45 0;
#X connect 45 0 42 0;
#X connect 49 0 48 0;
#X connect 49 0 48 1;
#X connect 50 0 48 1;
#X connect 51 0 52 0;
#X connect 52 0 75 0;
#X connect 52 2 75 1;
#X connect 53 0 54 0;
#X connect 54 0 76 0;
#X connect 54 2 76 1;
#X connect 55 0 56 0;
#X connect 56 0 77 0;
#X connect 56 2 77 1;
#X connect 57 0 58 0;
#X connect 58 0 78 0;
#X connect 58 2 78 1;
#X connect 59 0 60 0;
#X connect 60 0 79 0;
#X connect 60 2 79 1;
#X connect 61 0 62 0;
#X connect 62 0 80 0;
#X connect 62 2 80 1;
#X connect 63 0 64 0;
#X connect 64 0 81 0;
#X connect 64 2 81 1;
#X connect 65 0 66 0;
#X connect 66 0 82 0;
#X connect 66 2 82 1;
#X connect 67 0 68 0;
#X connect 68 0 83 0;
#X connect 68 2 83 1;
#X connect 69 0 70 0;
#X connect 70 0 84 0;
#X connect 70 2 84 1;
#X connect 71 0 72 0;
#X connect 72 0 85 0;
#X connect 72 2 85 1;
#X connect 73 0 74 0;
#X connect 74 0 86 0;
#X connect 74 2 86 1;
#X connect 75 0 48 0;
#X connect 76 0 48 0;
#X connect 78 0 48 0;
#X connect 79 0 48 0;
#X connect 80 0 48 0;
#X connect 81 0 48 0;
#X connect 82 0 48 0;
#X connect 83 0 48 0;
#X connect 84 0 48 0;
#X connect 85 0 48 0;
#X connect 86 0 48 0;
