#N canvas -2 57 1367 691 10;
#X declare -lib mrpeach;
#X obj 554 17 mik-fadeout-looper;
#X obj 18 322 s start-rec;
#X obj 18 305 bng 15 250 50 0 empty empty empty 17 7 0 10 -258113 -1
-1;
#X obj 18 345 bng 15 250 50 0 empty empty empty 17 7 0 10 -260097 -1
-1;
#X obj 18 363 s stop-rec;
#X obj 554 -3 r start-rec;
#X obj 93 318 osc~ 440;
#X obj 149 340 tgl 15 0 empty empty empty 17 7 0 10 -262144 -1 -1 0
1;
#X obj 95 341 *~ 0;
#X obj 149 296 loadbang;
#X msg 149 318 0;
#X obj 213 43 mik-out;
#X text 570 539 todo ekvalizace;
#X obj 365 218 r start-rec;
#X obj 214 1 catch~ out_l;
#X obj 220 20 catch~ out_r;
#X obj 86 363 throw~ out_l;
#X obj 92 382 throw~ out_r;
#N canvas 260 92 756 645 input 0;
#X obj 272 36 adc~ 1 2 3 4 5 6 7 8;
#X obj 83 342 table loop-buffer8 1.323e+07;
#X obj 83 374 table loop-buffer7 1.323e+07;
#X obj 83 406 table loop-buffer6 1.323e+07;
#X obj 83 438 table loop-buffer5 1.323e+07;
#X obj 83 470 table loop-buffer4 1.323e+07;
#X obj 83 466 table loop-buffer3 1.323e+07;
#X obj 83 502 table loop-buffer2 1.323e+07;
#X obj 83 534 table loop-buffer1 1.323e+07;
#X obj 305 92 mik-tabwrite;
#X obj 514 92 mik-tabwrite;
#X obj 514 219 mik-tabwrite;
#X obj 305 219 mik-tabwrite;
#X obj 305 60 r start-rec;
#X obj 381 60 r stop-rec;
#X obj 300 346 mik-tabwrite;
#X obj 520 346 mik-tabwrite;
#X obj 520 473 mik-tabwrite;
#X obj 300 473 mik-tabwrite;
#X msg 455 472 0;
#X msg 674 472 1;
#X msg 454 346 2;
#X msg 674 346 3;
#X msg 456 218 4;
#X msg 666 218 5;
#X msg 459 92 6;
#X msg 668 92 7;
#X obj 185 -15 outlet~;
#X obj 234 -15 outlet~;
#X obj 284 -15 outlet~;
#X obj 334 -15 outlet~;
#X obj 384 -15 outlet~;
#X obj 436 -15 outlet~;
#X text 195 -35 1;
#X text 301 -36 3;
#X text 351 -36 4;
#X text 398 -36 5;
#X text 449 -35 6;
#X obj 487 -15 outlet~;
#X obj 537 -15 outlet~;
#X text 499 -35 7;
#X text 549 -35 8;
#X obj 514 60 r start-rec;
#X obj 590 60 r stop-rec;
#X obj 305 187 r start-rec;
#X obj 378 186 r stop-rec;
#X obj 514 187 r start-rec;
#X obj 588 186 r stop-rec;
#X obj 300 314 r start-rec;
#X obj 376 314 r stop-rec;
#X obj 520 314 r start-rec;
#X obj 596 314 r stop-rec;
#X obj 520 441 r start-rec;
#X obj 596 440 r stop-rec;
#X obj 300 441 r start-rec;
#X obj 377 440 r stop-rec;
#X text 247 -16 comment;
#X text 249 -34 2;
#X obj 449 60 r \$0-load;
#X obj 658 60 r \$0-load;
#X obj 446 186 r \$0-load;
#X obj 656 186 r \$0-load;
#X obj 444 314 r \$0-load;
#X obj 664 314 r \$0-load;
#X obj 664 440 r \$0-load;
#X obj 445 440 r \$0-load;
#X obj 142 104 s \$0-load;
#X obj 142 80 loadbang;
#X obj 124 82 bng 15 250 50 0 empty empty empty 17 7 0 10 -262144 -1
-1;
#X connect 0 0 18 0;
#X connect 0 0 27 0;
#X connect 0 1 17 0;
#X connect 0 1 28 0;
#X connect 0 2 15 0;
#X connect 0 2 29 0;
#X connect 0 3 16 0;
#X connect 0 3 30 0;
#X connect 0 4 12 0;
#X connect 0 4 31 0;
#X connect 0 5 11 0;
#X connect 0 5 32 0;
#X connect 0 6 9 0;
#X connect 0 6 38 0;
#X connect 0 7 10 0;
#X connect 0 7 39 0;
#X connect 13 0 9 1;
#X connect 14 0 9 2;
#X connect 19 0 18 3;
#X connect 20 0 17 3;
#X connect 21 0 15 3;
#X connect 22 0 16 3;
#X connect 23 0 12 3;
#X connect 24 0 11 3;
#X connect 25 0 9 3;
#X connect 26 0 10 3;
#X connect 42 0 10 1;
#X connect 43 0 10 2;
#X connect 44 0 12 1;
#X connect 45 0 12 2;
#X connect 46 0 11 1;
#X connect 47 0 11 2;
#X connect 48 0 15 1;
#X connect 49 0 15 2;
#X connect 50 0 16 1;
#X connect 51 0 16 2;
#X connect 52 0 17 1;
#X connect 53 0 17 2;
#X connect 54 0 18 1;
#X connect 55 0 18 2;
#X connect 58 0 25 0;
#X connect 59 0 26 0;
#X connect 60 0 23 0;
#X connect 61 0 24 0;
#X connect 62 0 21 0;
#X connect 63 0 22 0;
#X connect 64 0 20 0;
#X connect 65 0 19 0;
#X connect 67 0 66 0;
#X connect 68 0 66 0;
#X restore 72 6 pd input;
#X obj 34 268 throw~ out_l;
#X obj 117 268 throw~ out_r;
#X obj 554 92 mik-pan-out;
#X obj 714 -3 r start-rec;
#X obj 714 91 mik-pan-out;
#X obj 874 -3 r start-rec;
#X obj 874 91 mik-pan-out;
#X obj 1034 -3 r start-rec;
#X obj 1034 91 mik-pan-out;
#X obj 1194 -3 r start-rec;
#X obj 1194 91 mik-pan-out;
#X obj 554 137 r start-rec;
#X obj 554 231 mik-pan-out;
#X obj 714 137 r start-rec;
#X obj 714 231 mik-pan-out;
#X obj 874 137 r start-rec;
#X obj 874 231 mik-pan-out;
#X obj 1034 137 r start-rec;
#X obj 1034 231 mik-pan-out;
#X obj 1194 137 r start-rec;
#X obj 1194 231 mik-pan-out;
#X obj 554 277 r start-rec;
#X obj 554 371 mik-pan-out;
#X obj 714 277 r start-rec;
#X obj 714 371 mik-pan-out;
#X obj 874 277 r start-rec;
#X obj 874 371 mik-pan-out;
#X obj 1034 277 r start-rec;
#X obj 1034 371 mik-pan-out;
#X obj 1194 277 r start-rec;
#X obj 1194 371 mik-pan-out;
#X obj 554 417 r start-rec;
#X obj 554 511 mik-pan-out;
#X obj 714 417 r start-rec;
#X obj 714 511 mik-pan-out;
#X obj 874 417 r start-rec;
#X obj 874 511 mik-pan-out;
#X obj 1034 417 r start-rec;
#X obj 1034 511 mik-pan-out;
#X obj 1194 417 r start-rec;
#X obj 1194 511 mik-pan-out;
#X obj 365 240 mik-grannyloop;
#X obj 366 380 mik-pan-out;
#X text 571 559 todo opravit granular;
#X text 570 578 todo osc;
#X text 572 597 todo novej granular s transpozici zvlast;
#N canvas 581 279 450 407 osc-controllers 0;
#X msg 268 38 connect 192.168.8.100;
#X text 279 19 receive;
#X obj 40 9 import mrpeach;
#X obj 29 63 udpreceive 9001;
#X obj 34 103 unpackOSC;
#X obj 34 130 routeOSC /mix /loop /granny;
#X obj 34 157 routeOSC /vol /pan /mute;
#X obj 29 252 s osc-mix-vol;
#X obj 53 203 s osc-mix-pan;
#X obj 111 182 s osc-mix-mute;
#X obj 193 158 routeOSC /record_start /record_stop;
#X obj 203 233 s start-rec;
#X obj 203 184 t b f;
#X obj 203 208 spigot;
#X obj 277 184 t b f;
#X obj 277 208 spigot;
#X obj 277 233 s stop-rec;
#X connect 3 0 4 0;
#X connect 4 0 5 0;
#X connect 5 0 6 0;
#X connect 5 3 10 0;
#X connect 6 0 7 0;
#X connect 6 1 8 0;
#X connect 6 2 9 0;
#X connect 10 0 12 0;
#X connect 10 1 14 0;
#X connect 12 0 13 0;
#X connect 12 1 13 1;
#X connect 13 0 11 0;
#X connect 14 0 15 0;
#X connect 14 1 15 1;
#X connect 15 0 16 0;
#X restore 52 540 pd osc-controllers;
#X obj 34 408 r start-rec;
#X obj 34 433 print start-rec;
#X obj 12 433 bng 15 250 50 0 empty empty empty 17 7 0 10 -262144 -1
-1;
#X obj 12 483 bng 15 250 50 0 empty empty empty 17 7 0 10 -262144 -1
-1;
#X obj 34 458 r stop-rec;
#X obj 34 483 print stop-rec;
#X obj 5 38 m-s;
#X msg 2 -18 1;
#X msg 29 -18 2;
#X msg 58 -18 3;
#X msg 90 -17 4;
#X msg 121 -17 5;
#X msg 155 -16 6;
#X msg 187 -15 7;
#X msg 218 -15 8;
#X obj 30 38 m-s;
#X obj 183 39 m-s;
#X obj 55 38 m-s;
#X obj 80 38 m-s;
#X obj 105 38 m-s;
#X obj 130 38 m-s;
#X obj 155 38 m-s;
#X obj 714 17 mik-fadeout-looper;
#X obj 874 17 mik-fadeout-looper;
#X obj 1034 17 mik-fadeout-looper;
#X obj 1194 17 mik-fadeout-looper;
#X obj 554 157 mik-fadeout-looper;
#X obj 714 157 mik-fadeout-looper;
#X obj 874 157 mik-fadeout-looper;
#X obj 1034 157 mik-fadeout-looper;
#X obj 1194 157 mik-fadeout-looper;
#X obj 554 297 mik-fadeout-looper;
#X obj 714 297 mik-fadeout-looper;
#X obj 874 297 mik-fadeout-looper;
#X obj 1034 297 mik-fadeout-looper;
#X obj 1194 297 mik-fadeout-looper;
#X obj 554 437 mik-fadeout-looper;
#X obj 714 437 mik-fadeout-looper;
#X obj 874 437 mik-fadeout-looper;
#X obj 1034 437 mik-fadeout-looper;
#X obj 1194 437 mik-fadeout-looper;
#X msg 686 -3 1;
#X msg 841 -4 2;
#X msg 1004 -4 3;
#X obj 182 320 s lb;
#X obj 209 300 bng 15 250 50 0 empty empty empty 17 7 0 10 -262144
-1 -1;
#X obj 78 -44 r lb;
#X obj 686 -23 r lb;
#X obj 841 -25 r lb;
#X obj 1004 -26 r lb;
#X obj 1161 -25 r lb;
#X msg 1161 -2 4;
#N canvas 444 173 532 447 mockup 0;
#X obj 13 330 outlet~;
#X obj 82 330 outlet~;
#X obj 22 74 inlet;
#X obj 22 130 t b b b b;
#X msg 98 173 open ./wav/text_is.wav;
#X msg 23 196 open ./wav/text_is_lo.wav;
#X msg 84 222 start;
#X msg 41 247 start;
#X obj 246 65 inlet;
#X text 60 74 start;
#X text 288 64 stop;
#X obj 246 185 t b b;
#X msg 215 221 stop;
#X msg 235 260 stop;
#X obj 104 102 bng 15 250 50 0 empty empty empty 17 7 0 10 -204786
-1 -1;
#X obj 121 102 bng 15 250 50 0 empty empty empty 17 7 0 10 -261234
-1 -1;
#X obj 118 147 bng 15 250 50 0 empty empty empty 17 7 0 10 -262144
-1 -1;
#X obj 75 162 bng 15 250 50 0 empty empty empty 17 7 0 10 -262144 -1
-1;
#X obj 3 221 del 50;
#X obj 13 299 readsf~ 2;
#X obj 81 300 readsf~ 2;
#X obj 173 332 bng 15 250 50 0 empty empty empty 17 7 0 10 -262144
-1 -1;
#X obj 79 371 bng 15 250 50 0 empty empty empty 17 7 0 10 -262144 -1
-1;
#X obj 8 254 bng 15 250 50 0 empty empty empty 17 7 0 10 -262144 -1
-1;
#X obj 127 238 del 50;
#X obj 143 264 bng 15 250 50 0 empty empty empty 17 7 0 10 -262144
-1 -1;
#X obj 244 381 snapshot~;
#X obj 174 381 snapshot~;
#X floatatom 169 415 5 0 0 0 - - -;
#X floatatom 251 410 5 0 0 0 - - -;
#X obj 246 310 tgl 15 0 empty empty empty 17 7 0 10 -262144 -1 -1 1
1;
#X obj 313 354 bng 15 250 50 0 empty empty empty 17 7 0 10 -262144
-1 -1;
#X obj 240 343 metro 300;
#X connect 2 0 14 0;
#X connect 3 0 18 0;
#X connect 3 1 24 0;
#X connect 3 2 5 0;
#X connect 3 2 17 0;
#X connect 3 3 4 0;
#X connect 3 3 16 0;
#X connect 4 0 20 0;
#X connect 5 0 19 0;
#X connect 6 0 20 0;
#X connect 7 0 19 0;
#X connect 8 0 15 0;
#X connect 11 0 12 0;
#X connect 11 1 13 0;
#X connect 12 0 19 0;
#X connect 13 0 20 0;
#X connect 14 0 3 0;
#X connect 15 0 11 0;
#X connect 18 0 7 0;
#X connect 18 0 23 0;
#X connect 19 0 0 0;
#X connect 19 0 26 0;
#X connect 19 1 1 0;
#X connect 19 1 27 0;
#X connect 19 2 22 0;
#X connect 20 0 0 0;
#X connect 20 1 1 0;
#X connect 20 2 21 0;
#X connect 24 0 6 0;
#X connect 24 0 25 0;
#X connect 26 0 29 0;
#X connect 27 0 28 0;
#X connect 30 0 32 0;
#X connect 32 0 26 0;
#X connect 32 0 27 0;
#X connect 32 0 31 0;
#X coords 0 -1 1 1 40 20 2 100 100;
#X restore 373 34 pd mockup;
#X obj 374 78 throw~ out_l;
#X obj 407 58 throw~ out_r;
#X obj 1314 -26 r lb;
#X obj 686 117 r lb;
#X obj 841 115 r lb;
#X obj 1004 114 r lb;
#X obj 1161 115 r lb;
#X obj 1314 114 r lb;
#X obj 686 257 r lb;
#X obj 841 255 r lb;
#X obj 1004 254 r lb;
#X obj 1161 255 r lb;
#X obj 1314 254 r lb;
#X obj 686 397 r lb;
#X obj 841 395 r lb;
#X obj 1004 394 r lb;
#X obj 1161 395 r lb;
#X obj 1314 394 r lb;
#X msg 1314 -4 5;
#X msg 686 137 6;
#X msg 841 136 7;
#X msg 1004 136 8;
#X msg 1161 138 9;
#X msg 1314 136 10;
#X msg 686 277 11;
#X msg 841 276 12;
#X msg 1004 276 13;
#X msg 1161 278 14;
#X msg 1314 276 15;
#X msg 686 417 16;
#X msg 841 416 17;
#X msg 1004 416 18;
#X msg 1161 418 19;
#X msg 1314 416 20;
#N canvas 446 205 450 300 rec 0;
#X obj 55 260 writesf~ 2;
#X obj 55 187 savepanel;
#X msg 55 209 open \$1;
#X msg 115 209 start;
#X msg 161 209 stop;
#X obj -7 111 inlet~;
#X obj 43 111 inlet~;
#X obj 132 113 tgl 15 0 empty empty empty 17 7 0 10 -262144 -1 -1 0
1;
#X obj 123 136 select 0 1;
#X obj 103 113 bng 15 250 50 0 empty empty empty 17 7 0 10 -262144
-1 -1;
#X text 129 97 rec;
#X text 100 97 file;
#X connect 1 0 2 0;
#X connect 2 0 0 0;
#X connect 3 0 0 0;
#X connect 4 0 0 0;
#X connect 5 0 0 0;
#X connect 6 0 0 1;
#X connect 7 0 8 0;
#X connect 8 0 3 0;
#X connect 8 1 4 0;
#X connect 9 0 1 0;
#X coords 0 -1 1 1 50 30 2 100 100;
#X restore 207 253 pd rec;
#N canvas 492 339 450 300 experiment-in-phrasing 0;
#X obj 71 21 r phrase-start;
#X obj 202 21 r phrase-end;
#X obj 73 56 bng 15 250 50 0 empty empty empty 17 7 0 10 -262144 -1
-1;
#X obj 207 54 bng 15 250 50 0 empty empty empty 17 7 0 10 -262144 -1
-1;
#X obj 78 125 mik-timer;
#X obj 24 72 bng 15 250 50 0 empty empty empty 17 7 0 10 -262144 -1
-1;
#X obj 163 23 bng 15 250 50 0 empty empty empty 17 7 0 10 -4032 -1
-1;
#X obj 163 67 tgl 15 0 empty empty empty 17 7 0 10 -262144 -1 -1 0
1;
#X msg 163 45 1;
#X floatatom 34 205 5 0 0 0 - - -;
#X floatatom 75 205 5 0 0 0 - - -;
#X floatatom 115 205 5 0 0 0 - - -;
#X obj 178 89 spigot;
#X obj 23 23 inlet;
#X msg 157 120 0;
#X connect 0 0 2 0;
#X connect 1 0 3 0;
#X connect 2 0 4 1;
#X connect 3 0 12 0;
#X connect 4 0 9 0;
#X connect 4 1 10 0;
#X connect 4 2 11 0;
#X connect 5 0 4 0;
#X connect 6 0 8 0;
#X connect 7 0 12 1;
#X connect 8 0 7 0;
#X connect 12 0 4 2;
#X connect 12 0 14 0;
#X connect 13 0 4 0;
#X connect 14 0 7 0;
#X restore 118 592 pd experiment-in-phrasing;
#X obj 211 348 mik-phrase-detector~;
#X msg 267 320 2;
#X msg 267 421 1;
#X obj 333 489 mik-phrase-receiver;
#X floatatom 333 509 5 0 0 0 - - -;
#X floatatom 444 511 5 0 0 0 - - -;
#X obj 385 453 bng 15 250 50 0 empty empty empty 17 7 0 10 -262144
-1 -1;
#X obj 292 459 r start-rec;
#X connect 0 0 21 0;
#X connect 2 0 1 0;
#X connect 3 0 4 0;
#X connect 5 0 0 0;
#X connect 6 0 8 0;
#X connect 7 0 8 1;
#X connect 8 0 16 0;
#X connect 8 0 17 0;
#X connect 9 0 10 0;
#X connect 9 0 110 0;
#X connect 10 0 7 0;
#X connect 11 0 153 0;
#X connect 11 0 155 0;
#X connect 11 1 153 1;
#X connect 13 0 60 0;
#X connect 14 0 11 0;
#X connect 15 0 11 1;
#X connect 18 0 72 0;
#X connect 18 1 81 0;
#X connect 18 2 83 0;
#X connect 18 3 84 0;
#X connect 18 4 85 0;
#X connect 18 5 86 0;
#X connect 18 6 87 0;
#X connect 18 7 82 0;
#X connect 22 0 88 0;
#X connect 24 0 89 0;
#X connect 26 0 90 0;
#X connect 28 0 91 0;
#X connect 30 0 92 0;
#X connect 32 0 93 0;
#X connect 34 0 94 0;
#X connect 36 0 95 0;
#X connect 38 0 96 0;
#X connect 40 0 97 0;
#X connect 42 0 98 0;
#X connect 44 0 99 0;
#X connect 46 0 100 0;
#X connect 48 0 101 0;
#X connect 50 0 102 0;
#X connect 52 0 103 0;
#X connect 54 0 104 0;
#X connect 56 0 105 0;
#X connect 58 0 106 0;
#X connect 60 0 61 0;
#X connect 66 0 68 0;
#X connect 66 0 67 0;
#X connect 70 0 69 0;
#X connect 70 0 71 0;
#X connect 72 0 19 0;
#X connect 72 1 20 0;
#X connect 73 0 72 1;
#X connect 74 0 81 1;
#X connect 75 0 83 1;
#X connect 76 0 84 1;
#X connect 77 0 85 1;
#X connect 78 0 86 1;
#X connect 79 0 87 1;
#X connect 80 0 82 1;
#X connect 81 0 19 0;
#X connect 81 1 20 0;
#X connect 82 0 19 0;
#X connect 82 1 20 0;
#X connect 83 0 19 0;
#X connect 83 1 20 0;
#X connect 84 0 19 0;
#X connect 84 1 20 0;
#X connect 85 0 19 0;
#X connect 85 1 20 0;
#X connect 86 0 19 0;
#X connect 86 1 20 0;
#X connect 87 0 19 0;
#X connect 87 1 20 0;
#X connect 88 0 23 0;
#X connect 89 0 25 0;
#X connect 90 0 27 0;
#X connect 91 0 29 0;
#X connect 92 0 31 0;
#X connect 93 0 33 0;
#X connect 94 0 35 0;
#X connect 95 0 37 0;
#X connect 96 0 39 0;
#X connect 97 0 41 0;
#X connect 98 0 43 0;
#X connect 99 0 45 0;
#X connect 100 0 47 0;
#X connect 101 0 49 0;
#X connect 102 0 51 0;
#X connect 103 0 53 0;
#X connect 104 0 55 0;
#X connect 105 0 57 0;
#X connect 106 0 59 0;
#X connect 107 0 0 5;
#X connect 108 0 88 5;
#X connect 109 0 89 5;
#X connect 111 0 110 0;
#X connect 112 0 73 0;
#X connect 112 0 74 0;
#X connect 112 0 75 0;
#X connect 112 0 76 0;
#X connect 112 0 77 0;
#X connect 112 0 78 0;
#X connect 112 0 79 0;
#X connect 112 0 80 0;
#X connect 113 0 107 0;
#X connect 114 0 108 0;
#X connect 115 0 109 0;
#X connect 116 0 117 0;
#X connect 117 0 90 5;
#X connect 118 0 119 0;
#X connect 118 0 120 0;
#X connect 118 1 120 0;
#X connect 118 1 119 0;
#X connect 121 0 137 0;
#X connect 122 0 138 0;
#X connect 123 0 139 0;
#X connect 124 0 140 0;
#X connect 125 0 141 0;
#X connect 126 0 142 0;
#X connect 127 0 143 0;
#X connect 128 0 144 0;
#X connect 129 0 145 0;
#X connect 130 0 146 0;
#X connect 131 0 147 0;
#X connect 132 0 148 0;
#X connect 133 0 149 0;
#X connect 134 0 150 0;
#X connect 135 0 151 0;
#X connect 136 0 152 0;
#X connect 137 0 91 5;
#X connect 138 0 92 5;
#X connect 139 0 93 5;
#X connect 140 0 94 5;
#X connect 141 0 95 5;
#X connect 142 0 96 5;
#X connect 143 0 97 5;
#X connect 144 0 98 5;
#X connect 145 0 99 5;
#X connect 146 0 100 5;
#X connect 147 0 101 5;
#X connect 148 0 102 5;
#X connect 149 0 103 5;
#X connect 150 0 104 5;
#X connect 151 0 105 5;
#X connect 152 0 106 5;
#X connect 156 0 155 1;
#X connect 156 0 158 2;
#X connect 157 0 155 1;
#X connect 157 0 158 2;
#X connect 158 0 159 0;
#X connect 158 1 160 0;
#X connect 161 0 158 1;
#X connect 162 0 158 0;
