#N canvas 9 54 1351 691 10;
#X obj 210 58 adc~ 1 2 3 4 5 6 7 8;
#X obj 22 22 table loop-buffer8 1.323e+07;
#X obj 22 46 table loop-buffer7 1.323e+07;
#X obj 1081 371 mik-fadeout-looper;
#X obj 922 371 mik-fadeout-looper;
#X obj 22 70 table loop-buffer6 1.323e+07;
#X obj 22 96 table loop-buffer5 1.323e+07;
#X obj 21 121 table loop-buffer4 1.323e+07;
#X obj 22 146 table loop-buffer3 1.323e+07;
#X obj 22 172 table loop-buffer2 1.323e+07;
#X obj 22 196 table loop-buffer1 1.323e+07;
#X obj 219 128 mik-tabwrite;
#X obj 406 127 mik-tabwrite;
#X obj 408 213 mik-tabwrite;
#X obj 220 215 mik-tabwrite;
#X obj 373 73 bng 15 250 50 0 empty empty empty 17 7 0 10 -262144 -1
-1;
#X obj 427 70 bng 15 250 50 0 empty empty empty 17 7 0 10 -262144 -1
-1;
#X text 430 10 stop;
#X obj 1081 281 mik-fadeout-looper;
#X obj 922 281 mik-fadeout-looper;
#X obj 1050 533 mik-out;
#X obj 465 71 loadbang;
#X msg 562 127 8;
#X msg 564 192 6;
#X msg 378 135 7;
#X msg 376 217 5;
#X obj 349 49 r start-rec;
#X obj 45 298 s start-rec;
#X obj 45 275 bng 15 250 50 0 empty empty empty 17 7 0 10 -262144 -1
-1;
#X obj 48 345 bng 15 250 50 0 empty empty empty 17 7 0 10 -262144 -1
-1;
#X obj 48 367 s stop-rec;
#X obj 431 44 r stop-rec;
#X obj 970 547 writesf~ 2;
#X msg 850 505 open sample.wav;
#X msg 854 531 start;
#X msg 853 560 stop;
#X obj 1010 224 tgl 15 0 empty empty empty 17 7 0 10 -262144 -1 -1
0 1;
#X text 62 440 todo timer!!;
#X obj 56 539 cputime;
#X floatatom 62 577 5 0 0 0 - - -;
#X obj 47 496 bng 15 250 50 0 empty empty empty 17 7 0 10 -262144 -1
-1;
#X obj 101 506 bng 15 250 50 0 empty empty empty 17 7 0 10 -262144
-1 -1;
#X text 6 528 reset;
#X text 119 506 get time from reset;
#X text 72 422 todo cpuload?;
#X text 67 406 todo granny!;
#X obj 652 241 mik-fadeout-looper-granny;
#X obj 1127 500 osc~ 440;
#X obj 1183 522 tgl 15 0 empty empty empty 17 7 0 10 -262144 -1 -1
0 1;
#X obj 1129 523 *~ 0;
#X obj 1183 478 loadbang;
#X msg 1183 500 0;
#X msg 783 191 1;
#X msg 822 191 100;
#X obj 804 163 bng 15 250 50 0 empty empty empty 17 7 0 10 -262144
-1 -1;
#X obj 221 307 mik-tabwrite;
#X obj 408 306 mik-tabwrite;
#X obj 410 392 mik-tabwrite;
#X obj 222 394 mik-tabwrite;
#X msg 378 396 1;
#X msg 567 308 4;
#X msg 379 310 3;
#X msg 573 400;
#X connect 0 4 14 0;
#X connect 0 5 13 0;
#X connect 0 6 11 0;
#X connect 0 7 12 0;
#X connect 3 0 20 1;
#X connect 3 0 32 1;
#X connect 4 0 20 0;
#X connect 4 0 32 0;
#X connect 15 0 11 1;
#X connect 15 0 12 1;
#X connect 15 0 14 1;
#X connect 15 0 13 1;
#X connect 15 0 55 1;
#X connect 15 0 58 1;
#X connect 15 0 56 1;
#X connect 15 0 57 1;
#X connect 16 0 11 2;
#X connect 16 0 12 2;
#X connect 16 0 13 2;
#X connect 16 0 14 2;
#X connect 16 0 55 2;
#X connect 16 0 58 2;
#X connect 16 0 56 2;
#X connect 16 0 57 2;
#X connect 18 0 20 1;
#X connect 18 0 32 1;
#X connect 19 0 20 0;
#X connect 19 0 32 0;
#X connect 21 0 22 0;
#X connect 21 0 23 0;
#X connect 21 0 24 0;
#X connect 21 0 25 0;
#X connect 21 0 60 0;
#X connect 21 0 62 0;
#X connect 21 0 61 0;
#X connect 21 0 59 0;
#X connect 22 0 12 3;
#X connect 23 0 13 3;
#X connect 24 0 11 3;
#X connect 25 0 14 3;
#X connect 26 0 15 0;
#X connect 28 0 27 0;
#X connect 29 0 30 0;
#X connect 31 0 16 0;
#X connect 33 0 32 0;
#X connect 34 0 32 0;
#X connect 35 0 32 0;
#X connect 36 0 19 2;
#X connect 36 0 18 2;
#X connect 36 0 3 2;
#X connect 36 0 4 2;
#X connect 38 0 39 0;
#X connect 40 0 38 0;
#X connect 41 0 38 1;
#X connect 46 0 20 0;
#X connect 46 0 20 1;
#X connect 47 0 49 0;
#X connect 48 0 49 1;
#X connect 49 0 20 1;
#X connect 49 0 20 0;
#X connect 50 0 51 0;
#X connect 51 0 48 0;
#X connect 52 0 46 3;
#X connect 52 0 46 4;
#X connect 53 0 46 5;
#X connect 54 0 52 0;
#X connect 54 0 53 0;
#X connect 59 0 58 3;
#X connect 60 0 56 3;
#X connect 61 0 55 3;
#X connect 62 0 57 3;
