#N canvas 291 365 450 300 10;
#X obj 52 13 adc~ 1 2 3 4 5 6 7 8;
#X obj 89 53 clip~ -1 1;
#X obj 92 83 *~ 0.7;
#X obj 91 113 delwrite~ \$0-loop1 1000;
#X obj 81 252 dac~;
#X obj 155 207 vd~ \$0-loop1 500;
#X obj 57 181 vd~ \$0-loop1;
#X obj 58 225 *~;
#X obj 23 203 tgl 15 0 empty empty empty 17 7 0 10 -262144 -1 -1 1
1;
#X obj 156 179 *~ 30;
#X obj 154 147 phasor~ 100;
#X connect 0 0 1 0;
#X connect 0 1 1 0;
#X connect 0 2 1 0;
#X connect 0 3 1 0;
#X connect 0 4 1 0;
#X connect 0 5 1 0;
#X connect 0 6 1 0;
#X connect 0 7 1 0;
#X connect 1 0 2 0;
#X connect 2 0 3 0;
#X connect 5 0 4 1;
#X connect 6 0 7 0;
#X connect 7 0 4 0;
#X connect 8 0 7 1;
#X connect 9 0 5 0;
#X connect 10 0 9 0;
