#N canvas 132 119 1098 599 10;
#X obj 551 67 adc~ 1 2 3 4 5 6 7 8;
#X obj 501 568 dac~;
#X obj 522 513 clip~ -1 1;
#X obj 500 537 clip~ -1 1;
#X obj 22 22 table loop-buffer8 1.323e+07;
#X obj 688 126 tabwrite~ loop-buffer8;
#X obj 22 46 table loop-buffer7 1.323e+07;
#X obj 694 161 tabwrite~ loop-buffer7;
#X obj 694 89 bng 15 250 50 0 empty empty empty 17 7 0 10 -262144 -1
-1;
#X obj 694 68 r start_rec;
#X msg 821 66 start 0;
#X msg 802 11 stop;
#X obj 527 395 mik-fadeout-looper;
#X obj 368 395 mik-fadeout-looper;
#X obj 22 70 table loop-buffer6 1.323e+07;
#X obj 22 96 table loop-buffer5 1.323e+07;
#X obj 21 121 table loop-buffer4 1.323e+07;
#X obj 22 146 table loop-buffer3 1.323e+07;
#X obj 22 172 table loop-buffer2 1.323e+07;
#X obj 22 196 table loop-buffer1 1.323e+07;
#X connect 0 6 7 0;
#X connect 0 7 5 0;
#X connect 2 0 1 1;
#X connect 3 0 1 0;
#X connect 8 0 5 0;
#X connect 8 0 7 0;
#X connect 9 0 8 0;
#X connect 10 0 5 0;
#X connect 10 0 7 0;
#X connect 11 0 5 0;
#X connect 11 0 7 0;
#X connect 12 0 2 0;
#X connect 13 0 3 0;
