#N canvas 289 256 484 424 10;
#X obj 15 61 inlet~;
#X obj 14 89 *~ 1;
#X obj 14 115 *~ 1;
#X obj 14 371 outlet~;
#X obj 105 103 vsl 15 128 0 127 0 0 empty empty empty 0 -9 0 10 -262144
-1 -1 10000 1;
#X obj 105 274 tgl 15 0 empty empty empty 17 7 0 10 -262144 -1 -1 0
1;
#X obj 49 90 / 100;
#X obj 74 62 inlet;
#X obj 174 63 inlet;
#X obj 119 59 loadbang;
#X msg 120 79 100;
#X obj 162 203 loadbang;
#X msg 162 226 1;
#X obj 163 251 s \$0-l1;
#X obj 103 236 hsl 20 15 -45 45 0 0 empty empty empty -2 -8 0 10 -262144
-1 -1 0 1;
#X obj 105 255 bng 15 250 50 0 empty empty empty 17 7 0 10 -262144
-1 -1;
#X msg 69 218 0;
#X obj 77 373 outlet~;
#X obj 42 337 pan~;
#X obj 290 228 r osc-mix-vol;
#X floatatom 329 319 5 0 0 0 - - -;
#X msg 406 150 1;
#X msg 419 170 2;
#X msg 429 192 3;
#X msg 438 216 4;
#X msg 444 241 5;
#X msg 444 267 6;
#X obj 320 267 mik-osc-mix-router;
#X connect 0 0 1 0;
#X connect 1 0 2 0;
#X connect 2 0 18 0;
#X connect 4 0 6 0;
#X connect 5 0 2 1;
#X connect 6 0 1 1;
#X connect 7 0 4 0;
#X connect 8 0 5 0;
#X connect 9 0 10 0;
#X connect 10 0 4 0;
#X connect 11 0 12 0;
#X connect 12 0 13 0;
#X connect 14 0 18 1;
#X connect 15 0 16 0;
#X connect 16 0 14 0;
#X connect 18 0 3 0;
#X connect 18 1 17 0;
#X connect 19 0 27 0;
#X connect 21 0 27 1;
#X connect 22 0 27 1;
#X connect 27 0 20 0;
#X coords 0 -1 1 1 25 190 2 100 100;
