#N canvas 0 53 1366 691 10;
#X obj 259 105 t b f;
#X msg 259 132 1;
#X obj 259 159 /;
#X obj 259 186 phasor~;
#X floatatom 312 85 5 0 0 0 - - -;
#X obj 259 213 *~ 44100;
#X obj 309 174 * 44100;
#X floatatom 598 -63 5 0 0 0 - - -;
#X text 674 -64 start point (s);
#X text 345 84 length (s);
#X obj 600 -36 * 44100;
#X obj 261 260 +~ 0;
#X obj 260 394 tabread4~ loop-buffer8;
#X obj 262 444 *~ 1;
#X obj 25 -111 inlet;
#X obj 263 499 outlet~;
#X obj 309 421 r \$0-mute;
#X obj 25 -84 s \$0-mute;
#X obj 172 116 tgl 15 0 empty empty empty 17 7 0 10 -262144 -1 -1 1
1;
#X obj 312 58 r \$0-length;
#X obj -32 -111 inlet;
#X floatatom 161 134 5 0 0 0 - - -;
#X obj -32 43 s \$0-length;
#X obj -101 -109 inlet;
#X floatatom 107 134 8 0 0 0 - - -;
#X obj 600 -63 r \$0-start;
#X obj -99 43 s \$0-start;
#X obj 92 -111 inlet;
#X obj 107 154 hradio 15 1 0 8 empty empty empty 0 -8 0 10 -262144
-1 -1 1;
#X obj 110 -33 s \$0-channel;
#X floatatom 110 -52 5 0 0 0 - - -;
#X obj 92 222 r \$0-channel;
#X msg 92 245 set loop-buffer\$1;
#X obj -32 23 / 100;
#X obj -99 22 / 100;
#X floatatom 197 134 4 0 0 0 - - -;
#X obj 262 471 *~ 1;
#X obj 309 448 / 100;
#X obj 229 106 vsl 20 60 0 200 0 0 empty empty empty 0 -9 0 10 -262144
-1 -1 4550 1;
#X obj 228 2 loadbang;
#X msg 229 22 100;
#X obj -149 -110 inlet;
#X obj 106 117 bng 15 250 50 0 empty empty empty 17 7 0 10 -204786
-1 -1;
#X obj 141 117 bng 15 250 50 0 empty empty empty 17 7 0 10 -261234
-1 -1;
#X text -179 -136 rec-start;
#X text -112 -136 windw-start;
#X text -42 -136 winwd-width;
#X text 33 -136 mute;
#X text 85 -132 channel-sel;
#X msg 198 25 0;
#X obj 448 -118 inlet;
#X text 485 -116 set id;
#X obj 357 -39 mik-osc-mix-router;
#X obj 87 343 snapshot~;
#X obj 89 316 metro 100;
#X obj 95 297 bng 15 250 50 0 empty empty empty 17 7 0 10 -262144 -1
-1;
#X obj 193 117 hsl 30 13 0 1 0 0 empty empty empty -2 -8 0 10 -262144
-1 -1 2460 1;
#X obj -156 349 mik-phrase-receiver;
#X obj -113 327 r \$0-channel;
#X obj -199 -87 s \$0-rec-start;
#X obj -150 69 r \$0-rec-start;
#X obj -2 281 r \$0-rec-start;
#X obj -156 306 r \$0-rec-start;
#X obj 124 117 bng 15 250 50 0 empty empty empty 17 7 0 10 -4032 -1
-1;
#X obj -108 -87 s \$0-set-start;
#X obj -150 156 s \$0-set-start;
#X obj -156 469 s \$0-set-start;
#X obj 58 73 r \$0-set-start;
#X obj -38 -56 s \$0-set-length;
#X obj 79 48 r \$0-set-length;
#X obj -113 402 s \$0-set-length;
#X obj -156 446 +;
#X floatatom -141 425 5 0 0 0 - - -;
#X floatatom -101 350 5 0 0 0 - - -;
#X obj 110 -73 + 1;
#X obj -150 90 mik-timer;
#X obj -97 179 s \$0-set-length;
#X obj 247 -122 loadbang;
#X floatatom 306 -120 5 0 0 0 - - -;
#X floatatom 248 -66 5 0 0 0 - - -;
#X obj 208 -119 bng 15 250 50 0 empty empty empty 17 7 0 10 -262144
-1 -1;
#X obj 236 -39 s \$0-magic-offset;
#X obj -31 0 + 0;
#X obj -98 -1 - 0;
#X obj -63 -25 r \$0-magic-offset;
#X obj -81 264 del 100;
#X obj 248 -92 f 25;
#X obj 428 225 phasor~;
#X obj 306 287 samphold~;
#X obj 307 312 +~;
#X obj 310 121 * 1;
#X obj 437 270 *~ 1;
#X floatatom 547 240 5 0 0 0 - - -;
#X obj 428 203 * 1;
#X floatatom 386 112 5 0 0 0 - - -;
#X obj 427 366 metro 100;
#X obj 427 343 bng 15 250 50 0 empty empty empty 17 7 0 10 -262144
-1 -1;
#X obj 427 393 snapshot~;
#X floatatom 427 419 10 0 0 0 - - -;
#X msg 547 217 44100;
#X msg 352 225 1;
#X obj 495 298 * 1;
#X msg 334 254 2;
#X msg 362 199 0.5;
#X floatatom 492 230 5 0 0 0 - - -;
#X obj 437 158 t b f;
#X floatatom 80 379 5 0 0 0 - - -;
#X obj 390 317 /~ 44100;
#X obj 493 106 f;
#X floatatom 535 125 5 0 0 0 - - -;
#X obj 547 82 bng 15 250 50 0 empty empty empty 17 7 0 10 -262144 -1
-1;
#X obj 513 175 * 1;
#X obj 508 154 t b f;
#X floatatom 621 136 5 0 0 0 - - -;
#X obj 627 171 expr (1/$f1);
#X msg 612 95 1;
#X connect 0 0 1 0;
#X connect 0 1 2 1;
#X connect 1 0 2 0;
#X connect 2 0 3 0;
#X connect 2 0 108 0;
#X connect 3 0 5 0;
#X connect 4 0 0 0;
#X connect 4 0 6 0;
#X connect 4 0 93 0;
#X connect 5 0 11 0;
#X connect 6 0 5 1;
#X connect 7 0 10 0;
#X connect 10 0 11 1;
#X connect 11 0 88 0;
#X connect 12 0 13 0;
#X connect 13 0 36 0;
#X connect 14 0 18 0;
#X connect 16 0 13 1;
#X connect 18 0 17 0;
#X connect 19 0 4 0;
#X connect 20 0 68 0;
#X connect 21 0 82 0;
#X connect 23 0 64 0;
#X connect 24 0 83 0;
#X connect 25 0 7 0;
#X connect 27 0 28 0;
#X connect 28 0 74 0;
#X connect 30 0 29 0;
#X connect 31 0 32 0;
#X connect 32 0 12 0;
#X connect 33 0 22 0;
#X connect 34 0 26 0;
#X connect 35 0 37 0;
#X connect 36 0 15 0;
#X connect 37 0 36 1;
#X connect 38 0 35 0;
#X connect 39 0 40 0;
#X connect 39 0 49 0;
#X connect 40 0 38 0;
#X connect 41 0 59 0;
#X connect 42 0 75 1;
#X connect 43 0 75 2;
#X connect 49 0 18 0;
#X connect 50 0 52 1;
#X connect 53 0 56 0;
#X connect 53 0 106 0;
#X connect 54 0 53 0;
#X connect 55 0 54 0;
#X connect 57 0 71 0;
#X connect 57 1 70 0;
#X connect 58 0 57 2;
#X connect 58 0 73 0;
#X connect 60 0 75 0;
#X connect 61 0 54 0;
#X connect 62 0 57 0;
#X connect 63 0 85 0;
#X connect 67 0 24 0;
#X connect 69 0 21 0;
#X connect 71 0 66 0;
#X connect 72 0 71 1;
#X connect 74 0 30 0;
#X connect 75 0 65 0;
#X connect 75 2 76 0;
#X connect 77 0 86 0;
#X connect 78 0 86 1;
#X connect 80 0 86 0;
#X connect 82 0 33 0;
#X connect 83 0 34 0;
#X connect 84 0 83 1;
#X connect 84 0 82 1;
#X connect 85 0 57 1;
#X connect 86 0 79 0;
#X connect 86 0 81 0;
#X connect 87 0 91 0;
#X connect 88 0 89 0;
#X connect 89 0 12 0;
#X connect 91 0 89 1;
#X connect 91 0 107 0;
#X connect 92 0 101 1;
#X connect 93 0 87 0;
#X connect 94 0 90 1;
#X connect 95 0 97 0;
#X connect 96 0 95 0;
#X connect 97 0 98 0;
#X connect 99 0 92 0;
#X connect 100 0 87 0;
#X connect 101 0 91 1;
#X connect 102 0 87 0;
#X connect 103 0 87 0;
#X connect 104 0 101 0;
#X connect 105 0 93 0;
#X connect 105 1 93 1;
#X connect 107 0 97 0;
#X connect 107 0 53 0;
#X connect 108 0 109 0;
#X connect 109 0 112 0;
#X connect 110 0 109 0;
#X connect 111 0 105 0;
#X connect 112 0 111 0;
#X connect 112 1 111 1;
#X connect 113 0 111 0;
#X connect 113 0 114 0;
#X connect 114 0 104 0;
#X connect 115 0 113 0;
#X coords 0 -1 1 1 150 70 1 100 100;
