#N canvas 237 163 832 535 10;
#X obj 259 105 t b f;
#X msg 259 132 1;
#X obj 259 159 /;
#X obj 259 186 phasor~;
#X floatatom 312 85 5 0 0 0 - - -;
#X obj 259 213 *~ 44100;
#X obj 309 174 * 44100;
#X floatatom 394 201 5 0 0 0 - - -;
#X text 450 200 start point (s);
#X text 345 84 length (s);
#X obj 396 228 * 44100;
#X obj 261 260 +~ 0;
#X obj 260 294 tabread4~ loop-buffer8;
#X obj 213 317 *~;
#X obj 216 201 *~ -1;
#X obj 216 228 +~ 1;
#X obj 213 344 *~ 1;
#X obj 25 -51 inlet;
#X obj 214 399 outlet~;
#X obj 260 321 r \$0-mute;
#X obj 25 -24 s \$0-mute;
#X obj 177 135 tgl 15 0 empty empty empty 17 7 0 10 -262144 -1 -1 1
1;
#X obj 312 58 r \$0-length;
#X obj -32 -51 inlet;
#X floatatom 141 134 5 0 0 0 - - -;
#X obj -32 3 s \$0-length;
#X obj -101 -49 inlet;
#X floatatom 105 134 5 0 0 0 - - -;
#X obj 396 201 r \$0-start;
#X obj -99 3 s \$0-start;
#X obj 92 -51 inlet;
#X obj 107 154 hradio 15 1 0 8 empty empty empty 0 -8 0 10 -262144
-1 -1 7;
#X obj 92 2 s \$0-channel;
#X floatatom 92 -24 5 0 0 0 - - -;
#X obj 92 201 r \$0-channel;
#X msg 92 245 set loop-buffer\$1;
#X obj 92 223 + 1;
#X obj -32 -17 / 100;
#X obj -99 -18 / 100;
#X floatatom 195 135 5 0 0 0 - - -;
#X obj 213 371 *~ 1;
#X obj 260 348 / 100;
#X obj 229 106 vsl 20 60 0 200 0 0 empty empty empty 0 -9 0 10 -262144
-1 -1 5900 1;
#X obj 228 2 loadbang;
#X msg 229 22 100;
#X obj -149 -50 inlet;
#X obj -149 96 cputime;
#X obj -136 66 t b b;
#X obj -64 67 t b b;
#X obj -168 124 f;
#X obj -118 125 f;
#X obj 106 116 bng 15 250 50 0 empty empty empty 17 7 0 10 -204786
-1 -1;
#X obj 141 117 bng 15 250 50 0 empty empty empty 17 7 0 10 -261234
-1 -1;
#X obj -74 182 f;
#X obj -73 154 -;
#X text -179 -76 rec-start;
#X text -112 -76 windw-start;
#X text -42 -76 winwd-width;
#X text 33 -76 mute;
#X text 85 -72 channel-sel;
#X msg 198 25 0;
#X obj 541 -54 inlet;
#X text 578 -52 set id;
#X obj 450 25 mik-osc-mix-router;
#X obj 87 343 snapshot~;
#X obj 89 316 metro 100;
#X obj 95 297 bng 15 250 50 0 empty empty empty 17 7 0 10 -262144 -1
-1;
#X obj 193 117 hsl 30 13 0 1 0 0 empty empty empty -2 -8 0 10 -262144
-1 -1 1097 1;
#X obj 317 393 snapshot~;
#X obj 319 366 metro 100;
#X floatatom 318 425 10 0 0 0 - - -;
#X obj 325 347 bng 15 250 50 0 empty empty empty 17 7 0 10 -262144
-1 -1;
#X connect 0 0 1 0;
#X connect 0 1 2 1;
#X connect 1 0 2 0;
#X connect 2 0 3 0;
#X connect 3 0 5 0;
#X connect 3 0 14 0;
#X connect 3 0 64 0;
#X connect 4 0 6 0;
#X connect 4 0 0 0;
#X connect 5 0 11 0;
#X connect 6 0 5 1;
#X connect 7 0 10 0;
#X connect 10 0 11 1;
#X connect 11 0 12 0;
#X connect 12 0 13 0;
#X connect 13 0 16 0;
#X connect 14 0 15 0;
#X connect 15 0 13 1;
#X connect 16 0 40 0;
#X connect 17 0 21 0;
#X connect 19 0 16 1;
#X connect 21 0 20 0;
#X connect 22 0 4 0;
#X connect 23 0 24 0;
#X connect 24 0 37 0;
#X connect 26 0 27 0;
#X connect 27 0 38 0;
#X connect 28 0 7 0;
#X connect 30 0 31 0;
#X connect 31 0 33 0;
#X connect 33 0 32 0;
#X connect 34 0 36 0;
#X connect 35 0 12 0;
#X connect 36 0 35 0;
#X connect 37 0 25 0;
#X connect 38 0 29 0;
#X connect 39 0 41 0;
#X connect 40 0 18 0;
#X connect 41 0 40 1;
#X connect 42 0 39 0;
#X connect 43 0 44 0;
#X connect 43 0 60 0;
#X connect 44 0 42 0;
#X connect 45 0 46 0;
#X connect 45 0 65 0;
#X connect 46 0 49 1;
#X connect 46 0 50 1;
#X connect 47 0 49 0;
#X connect 47 1 46 1;
#X connect 48 0 50 0;
#X connect 48 0 53 0;
#X connect 48 1 46 1;
#X connect 49 0 54 1;
#X connect 49 0 27 0;
#X connect 50 0 54 0;
#X connect 51 0 47 0;
#X connect 52 0 48 0;
#X connect 53 0 24 0;
#X connect 54 0 53 1;
#X connect 60 0 21 0;
#X connect 61 0 63 1;
#X connect 64 0 67 0;
#X connect 65 0 64 0;
#X connect 66 0 65 0;
#X connect 68 0 70 0;
#X connect 69 0 68 0;
#X connect 71 0 69 0;
#X coords 0 -1 1 1 150 70 1 100 100;
