#N canvas 190 169 832 503 10;
#X obj 259 105 t b f;
#X msg 259 128 1;
#X obj 259 152 /;
#X obj 259 174 phasor~;
#X floatatom 309 85 5 0 0 0 - - -;
#X obj 259 196 *~ 44100;
#X obj 309 174 * 44100;
#X floatatom 394 218 5 0 0 0 - - -;
#X text 450 207 start point (s);
#X text 345 85 length (s);
#X obj 394 244 * 44100;
#X obj 260 267 +~ 0;
#X obj 258 291 tabread4~ loop-buffer8;
#X obj 213 317 *~;
#X obj 216 197 *~ -1;
#X obj 216 223 +~ 1;
#X obj 214 351 *~ 1;
#X obj 5 -57 inlet;
#X obj 215 410 outlet~;
#X obj 257 321 r \$0-mute;
#X obj 7 -11 s \$0-mute;
#X obj 180 128 tgl 15 0 empty empty empty 17 7 0 10 -262144 -1 -1 0
1;
#X obj 312 58 r \$0-length;
#X obj -72 -52 inlet;
#X floatatom 142 126 5 0 0 0 - - -;
#X obj -72 13 s \$0-length;
#X obj -159 -51 inlet;
#X floatatom 102 126 5 0 0 0 - - -;
#X obj 396 191 r \$0-start;
#X obj -159 15 s \$0-start;
#X obj 82 -52 inlet;
#X obj 126 162 hradio 15 1 0 8 empty empty empty 0 -8 0 10 -262144
-1 -1 0;
#X obj 85 14 s \$0-channel;
#X floatatom 85 -5 5 0 0 0 - - -;
#X obj 92 201 r \$0-channel;
#X msg 93 243 set loop-buffer\$1;
#X text 100 138 start;
#X text 136 138 length;
#X text 180 140 on/off;
#X obj 93 223 + 1;
#X obj -72 -30 / 100;
#X obj -159 -29 / 100;
#X text 18 151 comment;
#X floatatom 210 125 5 0 0 0 - - -;
#X obj 214 386 *~ 1;
#X obj 260 360 / 100;
#X connect 0 0 1 0;
#X connect 0 1 2 1;
#X connect 1 0 2 0;
#X connect 2 0 3 0;
#X connect 3 0 5 0;
#X connect 3 0 14 0;
#X connect 4 0 6 0;
#X connect 4 0 0 0;
#X connect 5 0 11 0;
#X connect 6 0 5 1;
#X connect 7 0 10 0;
#X connect 10 0 11 1;
#X connect 11 0 12 0;
#X connect 12 0 13 0;
#X connect 13 0 16 0;
#X connect 14 0 15 0;
#X connect 15 0 13 1;
#X connect 16 0 44 0;
#X connect 17 0 21 0;
#X connect 19 0 16 1;
#X connect 21 0 20 0;
#X connect 22 0 4 0;
#X connect 23 0 40 0;
#X connect 24 0 25 0;
#X connect 26 0 41 0;
#X connect 27 0 29 0;
#X connect 28 0 7 0;
#X connect 30 0 31 0;
#X connect 31 0 33 0;
#X connect 33 0 32 0;
#X connect 34 0 39 0;
#X connect 35 0 12 0;
#X connect 39 0 35 0;
#X connect 40 0 24 0;
#X connect 41 0 27 0;
#X connect 43 0 45 0;
#X connect 44 0 18 0;
#X connect 45 0 44 1;
#X coords 0 -1 1 1 150 80 1 100 100;
