#N canvas 201 90 973 626 10;
#X obj 421 157 t b f;
#X obj 421 204 /;
#X obj 421 226 phasor~;
#X floatatom 471 137 5 0 0 0 - - -;
#X obj 421 248 *~ 44100;
#X obj 471 226 * 44100;
#X floatatom 600 305 5 0 0 0 - - -;
#X text 656 294 start point (s);
#X text 507 137 length (s);
#X obj 600 331 * 44100;
#X obj 422 319 +~ 0;
#X obj 420 343 tabread4~ loop-buffer8;
#X obj 403 373 *~;
#X obj 378 249 *~ -1;
#X obj 378 275 +~ 1;
#X obj 403 460 *~ 1;
#X obj 5 -57 inlet;
#X obj 402 485 outlet~;
#X obj 424 439 r \$0-mute;
#X obj 7 -11 s \$0-mute;
#X obj 184 155 tgl 15 0 empty empty empty 17 7 0 10 -262144 -1 -1 1
1;
#X obj 474 110 r \$0-length;
#X obj -72 -52 inlet;
#X floatatom 146 153 5 0 0 0 - - -;
#X obj -72 -30 / 10;
#X obj -72 13 s \$0-length;
#X obj -142 -54 inlet;
#X floatatom 106 153 5 0 0 0 - - -;
#X obj -142 -32 / 10;
#X obj 602 278 r \$0-start;
#X obj -142 12 s \$0-start;
#X obj 416 -38 inlet;
#X obj 111 267 hradio 15 1 0 8 empty empty empty 0 -8 0 10 -262144
-1 -1 5;
#X obj 377 -12 s \$0-channel;
#X floatatom 377 -31 5 0 0 0 - - -;
#X obj 152 307 r \$0-channel;
#X msg 153 349 set loop-buffer\$1;
#X text 104 165 start;
#X text 140 165 length;
#X text 184 167 on/off;
#X text 115 281 set chan;
#X obj 153 329 + 1;
#X obj 422 294 +~;
#X obj 90 -48 inlet;
#X obj 87 12 s \$0-window-width;
#X obj 153 -46 inlet;
#X obj 144 -14 s \$0-window-speed;
#X obj 525 224 phasor~;
#X obj 526 254 *~ 0;
#X obj 524 194 r \$0-window-speed;
#X obj 576 223 r \$0-window-width;
#X obj 236 159 vsl 15 128 -1000 1000 0 0 empty empty empty 0 -9 0 10
-262144 -1 -1 6356 1;
#X obj 259 159 vsl 15 128 -300 300 0 0 empty empty empty 0 -9 0 10
-262144 -1 -1 6371 1;
#X floatatom 198 188 5 0 0 0 - - -;
#X floatatom 198 215 5 0 0 0 - - -;
#X text 108 213 window speed;
#X text 108 187 window width;
#X obj 420 181 +;
#X obj 377 156 t b f;
#X obj 374 127 / 100;
#X floatatom 375 71 5 0 0 0 - - -;
#X obj 281 159 vsl 15 128 -300 300 0 0 empty empty empty 0 -9 0 10
-262144 -1 -1 8467 1;
#X obj 262 -36 inlet;
#X obj 449 369 s~ \$0-hannig-in;
#X obj 404 415 *~;
#X obj 425 392 r~ \$0-hannig-out;
#X obj 140 382 r~ \$0-hannig-in;
#X obj 138 448 s~ \$0-hannig-out;
#X obj 221 416 expr~ 1;
#X obj 48 424 expr~;
#X obj 236 27 loadbang;
#X floatatom 199 239 5 0 0 0 - - -;
#X text 106 239 playback speed;
#X obj 234 137 bng 15 250 50 0 empty empty empty 17 7 0 10 -262144
-1 -1;
#X text 175 130 no grain;
#X obj 229 78 s \$0-nograin;
#X obj 305 120 r \$0-ww;
#X obj 303 146 r \$0-ws;
#X obj 312 169 r \$0-ps;
#X obj -132 153 r \$0-nograin;
#X msg -144 218 1;
#X msg -105 222 100;
#X obj -135 187 t b b;
#X obj -91 249 s \$0-ps;
#X obj -122 271 s \$0-ws;
#X obj -146 249 s \$0-ww;
#X obj 154 134 tgl 15 0 empty empty empty 17 7 0 10 -262144 -1 -1 0
1;
#X msg 158 78 0;
#X obj 21 152 s \$0-reverse;
#X text 107 130 reverse;
#X obj 377 100 * 1;
#X obj 423 32 r \$0-reverse;
#X obj 417 96 t b f;
#X obj 423 54 * -2;
#X obj 422 76 + 1;
#X connect 0 0 57 0;
#X connect 0 1 1 1;
#X connect 1 0 2 0;
#X connect 2 0 4 0;
#X connect 2 0 13 0;
#X connect 3 0 5 0;
#X connect 3 0 0 0;
#X connect 4 0 42 0;
#X connect 5 0 4 1;
#X connect 6 0 9 0;
#X connect 9 0 10 1;
#X connect 10 0 11 0;
#X connect 10 0 63 0;
#X connect 11 0 12 0;
#X connect 12 0 64 0;
#X connect 13 0 14 0;
#X connect 14 0 12 1;
#X connect 15 0 17 0;
#X connect 16 0 20 0;
#X connect 18 0 15 1;
#X connect 20 0 19 0;
#X connect 21 0 3 0;
#X connect 22 0 24 0;
#X connect 23 0 25 0;
#X connect 24 0 23 0;
#X connect 26 0 28 0;
#X connect 27 0 30 0;
#X connect 28 0 27 0;
#X connect 29 0 6 0;
#X connect 31 0 32 0;
#X connect 32 0 34 0;
#X connect 34 0 33 0;
#X connect 35 0 41 0;
#X connect 36 0 11 0;
#X connect 41 0 36 0;
#X connect 42 0 10 0;
#X connect 43 0 51 0;
#X connect 45 0 52 0;
#X connect 47 0 48 0;
#X connect 48 0 42 1;
#X connect 49 0 47 0;
#X connect 50 0 48 1;
#X connect 51 0 53 0;
#X connect 52 0 54 0;
#X connect 53 0 44 0;
#X connect 54 0 46 0;
#X connect 57 0 1 0;
#X connect 58 0 57 0;
#X connect 58 1 57 1;
#X connect 59 0 58 0;
#X connect 60 0 90 0;
#X connect 61 0 71 0;
#X connect 62 0 61 0;
#X connect 64 0 15 0;
#X connect 65 0 64 1;
#X connect 66 0 68 0;
#X connect 68 0 67 0;
#X connect 70 0 87 0;
#X connect 71 0 60 0;
#X connect 73 0 75 0;
#X connect 76 0 51 0;
#X connect 77 0 52 0;
#X connect 78 0 61 0;
#X connect 79 0 82 0;
#X connect 80 0 85 0;
#X connect 80 0 84 0;
#X connect 81 0 83 0;
#X connect 82 0 80 0;
#X connect 82 1 81 0;
#X connect 86 0 88 0;
#X connect 87 0 86 0;
#X connect 90 0 59 0;
#X connect 91 0 93 0;
#X connect 92 0 90 0;
#X connect 92 1 90 1;
#X connect 93 0 94 0;
#X connect 94 0 92 0;
#X coords 0 -1 1 1 200 200 1 100 100;
