#N canvas 124 73 1351 691 10;
#X floatatom 412 56 5 0 0 0 - - -;
#X floatatom 628 -93 5 0 0 0 - - -;
#X text 704 -94 start point (s);
#X text 445 54 length (s);
#X obj 628 -72 * 44100;
#X obj 342 444 *~ 1;
#X obj 25 -111 inlet;
#X obj 343 499 outlet~;
#X obj 399 421 r \$0-mute;
#X obj 25 -84 s \$0-mute;
#X obj 232 116 tgl 15 0 empty empty empty 17 7 0 10 -262144 -1 -1 1
1;
#X obj 412 28 r \$0-length;
#X obj -32 -111 inlet;
#X floatatom 111 166 7 0 0 0 - - -;
#X obj -32 43 s \$0-length;
#X obj -101 -109 inlet;
#X floatatom 107 148 8 0 0 0 - - -;
#X obj 628 -116 r \$0-start;
#X obj -99 43 s \$0-start;
#X obj 92 -111 inlet;
#X obj 107 184 hradio 15 1 0 8 empty empty empty 0 -8 0 10 -262144
-1 -1 6;
#X obj 110 -33 s \$0-channel;
#X floatatom 110 -52 5 0 0 0 - - -;
#X obj 5 314 r \$0-channel;
#X msg 5 337 set loop-buffer\$1;
#X obj -32 23 / 100;
#X obj -99 22 / 100;
#X obj 342 471 *~ 1;
#X obj 389 448 / 100;
#X obj 229 136 vsl 20 60 0 200 0 0 empty empty empty 0 -9 0 10 -262144
-1 -1 2950 1;
#X obj 228 2 loadbang;
#X msg 219 62 100;
#X obj -149 -110 inlet;
#X obj 106 131 bng 15 250 50 0 empty empty empty 17 7 0 10 -204786
-1 -1;
#X obj 141 131 bng 15 250 50 0 empty empty empty 17 7 0 10 -261234
-1 -1;
#X text -179 -136 rec-start;
#X text -112 -136 windw-start;
#X text -42 -136 winwd-width;
#X text 33 -136 mute;
#X text 85 -132 channel-sel;
#X msg 256 25 0;
#X obj 448 -118 inlet;
#X text 485 -116 set id;
#X obj 357 -39 mik-osc-mix-router;
#X obj -156 349 mik-phrase-receiver;
#X obj -113 327 r \$0-channel;
#X obj -199 -87 s \$0-rec-start;
#X obj -150 69 r \$0-rec-start;
#X obj -156 306 r \$0-rec-start;
#X obj 124 131 bng 15 250 50 0 empty empty empty 17 7 0 10 -4032 -1
-1;
#X obj -108 -87 s \$0-set-start;
#X obj -150 156 s \$0-set-start;
#X obj -156 469 s \$0-set-start;
#X obj 58 73 r \$0-set-start;
#X obj -38 -56 s \$0-set-length;
#X obj 79 48 r \$0-set-length;
#X obj -113 402 s \$0-set-length;
#X obj -156 446 +;
#X floatatom -141 425 5 0 0 0 - - -;
#X floatatom -101 350 5 0 0 0 - - -;
#X obj 110 -73 + 1;
#X obj -150 90 mik-timer;
#X obj -97 179 s \$0-set-length;
#X obj 247 -122 loadbang;
#X floatatom 306 -120 5 0 0 0 - - -;
#X obj 208 -119 bng 15 250 50 0 empty empty empty 17 7 0 10 -262144
-1 -1;
#X obj 236 -39 s \$0-magic-offset;
#X obj -98 -1 - 0;
#X obj -86 -29 r \$0-magic-offset;
#X obj -81 264 del 100;
#X obj 248 -92 f 25;
#X obj 289 -67 s \$0-bitrate;
#X msg 289 -91 44100;
#X obj 411 133 phasor~;
#X obj 535 132 phasor~;
#X floatatom 495 80 5 0 0 0 - - -;
#X obj 394 30 bng 15 250 50 0 empty empty empty 17 7 0 10 -262144 -1
-1;
#X obj 537 216 samphold~;
#X obj 502 135 *;
#X obj 517 -44 r \$0-bitrate;
#X obj 536 183 *~;
#X obj 411 216 *~;
#X text 438 212 win size;
#X obj 412 256 +~;
#X obj 412 294 +~;
#X obj 628 -48 sig~;
#X obj 340 394 tabread4~ loop-buffer1;
#X obj 431 187 r 0$-winsize;
#X obj 661 220 s 0$-winsize;
#X obj 661 110 * 44100;
#X floatatom 661 67 5 0 0 0 - - -;
#X floatatom 661 200 10 0 0 0 - - -;
#X obj 628 -18 s~ \$0-start-smpl;
#X obj 443 260 r~ \$0-start-smpl;
#X obj 747 220 s \$0-win-fq;
#X obj 411 106 r \$0-win-fq;
#X floatatom 766 140 5 0 0 0 - - -;
#X msg 661 44 0.1;
#X obj 661 88 mik-recipro;
#X obj 765 196 * 1;
#X floatatom 711 143 5 0 0 0 - - -;
#X obj 766 162 t b f;
#X obj 288 168 +~ 0.5;
#X obj 289 192 wrap~;
#X obj 276 221 *~ -1;
#X obj 276 248 +~ 1;
#X text 284 146 Hanning?;
#X obj 711 166 / 100;
#X obj 502 156 sig~;
#X obj 159 116 vsl 20 60 0 200 0 0 empty empty empty 0 -9 0 10 -262144
-1 -1 165 1;
#X obj 183 116 vsl 20 60 0 200 0 0 empty empty empty 0 -9 0 10 -262144
-1 -1 2200 1;
#X obj 206 116 vsl 20 60 0 200 0 0 empty empty empty 0 -9 0 10 -262144
-1 -1 177 1;
#X obj 147 210 s \$0-window-size;
#X obj 159 234 s \$0-pitch;
#X obj 177 260 s \$0-speed;
#X obj 741 -9 r \$0-window-size;
#X obj 742 83 r \$0-pitch;
#X msg 198 40 120;
#X obj 535 107 * 1;
#X obj 539 27 r \$0-speed;
#X obj 539 68 t b f;
#X obj 539 48 / 100;
#X obj 741 35 / 300;
#X obj 741 13 + 1;
#X obj 141 114 bng 15 250 50 0 empty empty empty 17 7 0 10 -262144
-1 -1;
#X msg 257 48 100;
#X obj 528 351 bng 15 250 50 0 empty empty empty 17 7 0 10 -262144
-1 -1;
#X obj 529 374 metro 100;
#X obj 529 407 snapshot~;
#X floatatom 531 431 10 0 0 0 - - -;
#X obj 650 365 samphold~;
#X obj 652 424 print a;
#X floatatom 239 304 5 0 0 0 - - -;
#X floatatom 164 298 5 0 0 0 - - -;
#X floatatom 601 118 5 0 0 0 - - -;
#X connect 0 0 75 0;
#X connect 0 0 78 0;
#X connect 1 0 4 0;
#X connect 4 0 85 0;
#X connect 5 0 27 0;
#X connect 6 0 10 0;
#X connect 8 0 5 1;
#X connect 10 0 9 0;
#X connect 11 0 0 0;
#X connect 12 0 54 0;
#X connect 13 0 25 0;
#X connect 15 0 50 0;
#X connect 16 0 67 0;
#X connect 17 0 1 0;
#X connect 19 0 20 0;
#X connect 20 0 60 0;
#X connect 22 0 21 0;
#X connect 23 0 24 0;
#X connect 24 0 86 0;
#X connect 25 0 14 0;
#X connect 26 0 18 0;
#X connect 27 0 7 0;
#X connect 28 0 27 1;
#X connect 29 0 28 0;
#X connect 30 0 31 0;
#X connect 30 0 40 0;
#X connect 30 0 117 0;
#X connect 30 0 125 0;
#X connect 31 0 111 0;
#X connect 31 0 110 0;
#X connect 32 0 46 0;
#X connect 33 0 61 1;
#X connect 34 0 61 2;
#X connect 40 0 10 0;
#X connect 41 0 43 1;
#X connect 44 0 57 0;
#X connect 44 1 56 0;
#X connect 45 0 44 2;
#X connect 45 0 59 0;
#X connect 47 0 61 0;
#X connect 48 0 44 0;
#X connect 49 0 69 0;
#X connect 53 0 16 0;
#X connect 55 0 13 0;
#X connect 57 0 52 0;
#X connect 58 0 57 1;
#X connect 60 0 22 0;
#X connect 61 0 51 0;
#X connect 61 2 62 0;
#X connect 63 0 70 0;
#X connect 63 0 72 0;
#X connect 64 0 70 1;
#X connect 65 0 70 0;
#X connect 65 0 72 0;
#X connect 67 0 26 0;
#X connect 68 0 67 1;
#X connect 69 0 44 1;
#X connect 70 0 66 0;
#X connect 72 0 71 0;
#X connect 73 0 81 0;
#X connect 73 0 77 1;
#X connect 74 0 80 0;
#X connect 74 0 130 1;
#X connect 75 0 118 0;
#X connect 76 0 0 0;
#X connect 77 0 83 1;
#X connect 78 0 108 0;
#X connect 79 0 78 1;
#X connect 80 0 77 0;
#X connect 81 0 83 0;
#X connect 83 0 84 0;
#X connect 84 0 86 0;
#X connect 84 0 130 0;
#X connect 85 0 92 0;
#X connect 86 0 5 0;
#X connect 87 0 81 1;
#X connect 89 0 91 0;
#X connect 90 0 98 0;
#X connect 91 0 88 0;
#X connect 93 0 84 1;
#X connect 95 0 73 0;
#X connect 96 0 101 0;
#X connect 97 0 90 0;
#X connect 98 0 89 0;
#X connect 98 1 96 0;
#X connect 99 0 94 0;
#X connect 100 0 107 0;
#X connect 101 0 99 0;
#X connect 101 1 99 1;
#X connect 102 0 103 0;
#X connect 103 0 104 0;
#X connect 104 0 105 0;
#X connect 107 0 99 0;
#X connect 108 0 80 1;
#X connect 109 0 112 0;
#X connect 109 0 133 0;
#X connect 110 0 113 0;
#X connect 111 0 114 0;
#X connect 111 0 132 0;
#X connect 115 0 123 0;
#X connect 116 0 100 0;
#X connect 117 0 109 0;
#X connect 118 0 74 0;
#X connect 118 0 134 0;
#X connect 119 0 121 0;
#X connect 120 0 118 0;
#X connect 120 1 118 1;
#X connect 121 0 120 0;
#X connect 122 0 90 0;
#X connect 123 0 122 0;
#X connect 124 0 31 0;
#X connect 125 0 29 0;
#X connect 126 0 127 0;
#X connect 127 0 128 0;
#X connect 128 0 129 0;
#X connect 130 0 128 0;
#X coords 0 -1 1 1 150 100 1 100 100;
