#N canvas 166 82 973 626 10;
#X obj 421 157 t b f;
#X obj 421 204 /;
#X obj 421 226 phasor~;
#X floatatom 471 137 5 0 0 0 - - -;
#X obj 421 248 *~ 44100;
#X obj 471 226 * 44100;
#X text 507 137 length (s);
#X obj 472 320 * 44100;
#X obj 422 319 +~ 0;
#X obj 420 343 tabread4~ loop-buffer8;
#X obj 403 373 *~;
#X obj 378 249 *~ -1;
#X obj 378 275 +~ 1;
#X obj 403 460 *~ 1;
#X obj -15 13 inlet;
#X obj 402 485 outlet~;
#X obj 424 439 r \$0-mute;
#X obj 22 198 s \$0-mute;
#X obj 185 128 tgl 15 0 empty empty empty 17 7 0 10 -262144 -1 -1 1
1;
#X obj 474 110 r \$0-length;
#X obj -72 8 inlet;
#X floatatom 146 127 5 0 0 0 - - -;
#X obj -72 30 / 10;
#X obj 25 177 s \$0-length;
#X obj -122 6 inlet;
#X floatatom 106 127 5 0 0 0 - - -;
#X obj -122 28 / 10;
#X obj 472 298 r \$0-start;
#X obj 28 152 s \$0-start;
#X obj 228 13 inlet;
#X obj 101 219 hradio 15 1 0 8 empty empty empty 0 -8 0 10 -262144
-1 -1 5;
#X obj 111 316 s \$0-channel;
#X obj 292 257 r \$0-channel;
#X msg 293 299 set loop-buffer\$1;
#X text 104 139 start;
#X text 140 139 length;
#X text 184 141 on/off;
#X obj 293 279 + 1;
#X obj 422 294 +~;
#X obj 39 13 inlet;
#X obj 106 245 s \$0-window-width;
#X obj 113 13 inlet;
#X obj 109 270 s \$0-window-speed;
#X obj 525 224 phasor~;
#X obj 526 254 *~ 0;
#X obj 524 194 r \$0-window-speed;
#X obj 576 223 r \$0-window-width;
#X obj 225 103 vsl 15 128 -1000 1000 0 0 empty empty empty 0 -9 0 10
-262144 -1 -1 6356 1;
#X obj 240 103 vsl 15 128 -300 300 0 0 empty empty empty 0 -9 0 10
-262144 -1 -1 6371 1;
#X floatatom 191 159 5 0 0 0 - - -;
#X floatatom 191 179 5 0 0 0 - - -;
#X text 104 177 window speed;
#X text 104 158 window width;
#X obj 420 181 +;
#X obj 377 156 t b f;
#X obj 374 127 / 100;
#X obj 255 103 vsl 15 128 -300 300 0 0 empty empty empty 0 -9 0 10
-262144 -1 -1 8567 1;
#X obj 182 14 inlet;
#X obj 122 55 loadbang;
#X floatatom 192 199 5 0 0 0 - - -;
#X text 102 199 playback speed;
#X obj 185 108 bng 15 250 50 0 empty empty empty 17 7 0 10 -191407
-1 -1;
#X obj 11 223 s \$0-nograin;
#X obj 275 99 r \$0-ww;
#X obj 274 124 r \$0-ws;
#X obj 275 147 r \$0-ps;
#X obj 580 -24 r \$0-nograin;
#X msg 568 41 1;
#X msg 607 45 100;
#X obj 577 10 t b b;
#X obj 621 72 s \$0-ps;
#X obj 590 94 s \$0-ws;
#X obj 566 72 s \$0-ww;
#X obj 126 108 tgl 15 0 empty empty empty 17 7 0 10 -262144 -1 -1 0
1;
#X msg 126 78 0;
#X obj 21 126 s \$0-reverse;
#X obj 377 100 * 1;
#X obj 403 -18 r \$0-reverse;
#X obj 400 47 t b f;
#X obj 403 4 * -2;
#X obj 402 26 + 1;
#X text 101 106 rev;
#X obj -18 349 cputime;
#X obj -5 319 t b b;
#X obj 37 318 t b b;
#X obj -37 377 f;
#X obj 13 378 f;
#X obj 145 108 bng 15 250 50 0 empty empty empty 17 7 0 10 -204786
-1 -1;
#X obj 166 108 bng 15 250 50 0 empty empty empty 17 7 0 10 -261234
-1 -1;
#X obj 27 429 f;
#X obj 28 405 -;
#X text -122 -14 start;
#X text -70 -10 length;
#X obj 115 292 s \$0-plyaback-speed;
#X obj 377 70 r \$0-playback-speed;
#X text 236 -5 channel;
#X text -16 -5 mute;
#X text 37 -6 wndw-width;
#X text 113 -5 wndw-speed;
#X text 176 -14 play-speed;
#X obj 325 372 env~;
#X floatatom 324 399 5 0 0 0 - - -;
#X obj 332 424 env~;
#X floatatom 331 451 5 0 0 0 - - -;
#X connect 0 0 53 0;
#X connect 0 1 1 1;
#X connect 1 0 2 0;
#X connect 2 0 4 0;
#X connect 2 0 11 0;
#X connect 3 0 5 0;
#X connect 3 0 0 0;
#X connect 4 0 38 0;
#X connect 5 0 4 1;
#X connect 7 0 8 1;
#X connect 8 0 9 0;
#X connect 9 0 10 0;
#X connect 9 0 100 0;
#X connect 10 0 13 0;
#X connect 11 0 12 0;
#X connect 12 0 10 1;
#X connect 13 0 15 0;
#X connect 13 0 102 0;
#X connect 14 0 18 0;
#X connect 16 0 13 1;
#X connect 18 0 17 0;
#X connect 19 0 3 0;
#X connect 20 0 22 0;
#X connect 21 0 23 0;
#X connect 22 0 21 0;
#X connect 24 0 26 0;
#X connect 25 0 28 0;
#X connect 26 0 25 0;
#X connect 27 0 7 0;
#X connect 29 0 30 0;
#X connect 30 0 31 0;
#X connect 32 0 37 0;
#X connect 33 0 9 0;
#X connect 37 0 33 0;
#X connect 38 0 8 0;
#X connect 39 0 47 0;
#X connect 41 0 48 0;
#X connect 43 0 44 0;
#X connect 44 0 38 1;
#X connect 45 0 43 0;
#X connect 46 0 44 1;
#X connect 47 0 49 0;
#X connect 48 0 50 0;
#X connect 49 0 40 0;
#X connect 50 0 42 0;
#X connect 53 0 1 0;
#X connect 54 0 53 0;
#X connect 54 1 53 1;
#X connect 55 0 54 0;
#X connect 56 0 59 0;
#X connect 57 0 56 0;
#X connect 58 0 74 0;
#X connect 59 0 93 0;
#X connect 61 0 62 0;
#X connect 63 0 47 0;
#X connect 64 0 48 0;
#X connect 65 0 56 0;
#X connect 66 0 69 0;
#X connect 67 0 72 0;
#X connect 67 0 71 0;
#X connect 68 0 70 0;
#X connect 69 0 67 0;
#X connect 69 1 68 0;
#X connect 73 0 75 0;
#X connect 74 0 73 0;
#X connect 74 0 18 0;
#X connect 76 0 55 0;
#X connect 77 0 79 0;
#X connect 78 0 76 0;
#X connect 78 1 76 1;
#X connect 79 0 80 0;
#X connect 80 0 78 0;
#X connect 82 0 86 1;
#X connect 82 0 85 1;
#X connect 83 0 85 0;
#X connect 83 1 82 1;
#X connect 84 0 86 0;
#X connect 84 0 89 0;
#X connect 84 1 82 1;
#X connect 85 0 90 1;
#X connect 86 0 90 0;
#X connect 87 0 83 0;
#X connect 88 0 84 0;
#X connect 89 0 21 0;
#X connect 90 0 89 1;
#X connect 94 0 76 0;
#X connect 100 0 101 0;
#X connect 102 0 103 0;
#X coords 0 -1 1 1 170 135 2 100 100;
