#N canvas 153 192 676 426 10;
#X obj 121 62 f;
#X obj 163 94 route /1 /2 /3 /4 /5 /6 /7 /8;
#X obj 2 199 spigot;
#X obj 10 163 1 == \$1;
#X floatatom 28 49 5 0 0 0 - - -;
#X obj 2 142 t f b;
#X obj 121 35 inlet;
#X text 161 21 dostava cislo a zpravu \, tu vyfiltruje podle prefixu
;
#X obj 38 23 inlet;
#X obj 253 274 outlet;
#X obj 62 199 spigot;
#X obj 62 142 t f b;
#X obj 70 163 2 == \$1;
#X obj 122 199 spigot;
#X obj 122 142 t f b;
#X obj 130 163 3 == \$1;
#X obj 172 199 spigot;
#X obj 172 142 t f b;
#X obj 180 163 4 == \$1;
#X obj 222 199 spigot;
#X obj 222 142 t f b;
#X obj 230 163 5 == \$1;
#X obj 272 199 spigot;
#X obj 272 142 t f b;
#X obj 280 163 6 == \$1;
#X obj 322 199 spigot;
#X obj 322 142 t f b;
#X obj 330 163 6 == \$1;
#X obj 372 199 spigot;
#X obj 372 142 t f b;
#X obj 432 199 spigot;
#X obj 432 142 t f b;
#X obj 440 163 6 == \$1;
#X obj 380 163 7 == \$1;
#X floatatom 95 249 5 0 0 0 - - -;
#X floatatom 99 232 5 0 0 0 - - -;
#X obj -8 80 unpack s f;
#X obj -45 109 print s;
#X obj 20 112 print f;
#X obj 475 320 symbol;
#X msg 468 270 /\$1;
#X msg 468 243 1;
#X obj 302 395 print rovnost;
#X obj 356 362 select;
#X obj 401 396 print nerovnost;
#X obj 472 354 print symbol_Created;
#X obj 470 294 t b f;
#X connect 0 0 3 1;
#X connect 0 0 4 0;
#X connect 1 0 5 0;
#X connect 1 1 11 0;
#X connect 1 2 14 0;
#X connect 1 3 17 0;
#X connect 1 4 20 0;
#X connect 1 5 23 0;
#X connect 1 6 26 0;
#X connect 1 7 29 0;
#X connect 1 8 31 0;
#X connect 2 0 9 0;
#X connect 3 0 2 1;
#X connect 5 0 2 0;
#X connect 5 1 3 0;
#X connect 6 0 0 0;
#X connect 8 0 1 0;
#X connect 8 0 36 0;
#X connect 10 0 9 0;
#X connect 10 0 34 0;
#X connect 11 0 10 0;
#X connect 11 1 12 0;
#X connect 12 0 10 1;
#X connect 12 0 35 0;
#X connect 13 0 9 0;
#X connect 14 0 13 0;
#X connect 14 1 15 0;
#X connect 15 0 13 1;
#X connect 16 0 9 0;
#X connect 17 0 16 0;
#X connect 17 1 18 0;
#X connect 18 0 16 1;
#X connect 19 0 9 0;
#X connect 20 0 19 0;
#X connect 20 1 21 0;
#X connect 21 0 19 1;
#X connect 22 0 9 0;
#X connect 23 0 22 0;
#X connect 23 1 24 0;
#X connect 24 0 22 1;
#X connect 25 0 9 0;
#X connect 26 0 25 0;
#X connect 26 1 27 0;
#X connect 27 0 25 1;
#X connect 28 0 9 0;
#X connect 29 0 28 0;
#X connect 29 1 33 0;
#X connect 30 0 9 0;
#X connect 31 0 30 0;
#X connect 31 1 32 0;
#X connect 32 0 30 1;
#X connect 33 0 28 1;
#X connect 36 0 37 0;
#X connect 36 1 38 0;
#X connect 40 0 46 0;
#X connect 41 0 40 0;
#X connect 43 0 42 0;
#X connect 43 1 44 0;
#X connect 46 1 39 1;
