#N canvas 567 360 450 294 10;
#X symbolatom 263 38 10 0 0 0 - - -;
#X symbolatom 263 38 10 0 0 0 - - -;
#X obj 31 41 osc~ 440;
#X obj 72 155 dac~;
#X obj 107 47 adc~ 1 2 3 4 5 6 7 8;
#X obj 75 88 clip~ -1 1;
#X obj 81 126 *~ 0;
#X connect 4 0 5 0;
#X connect 4 1 5 0;
#X connect 4 2 5 0;
#X connect 4 3 5 0;
#X connect 4 4 5 0;
#X connect 4 5 5 0;
#X connect 4 6 5 0;
#X connect 4 7 5 0;
#X connect 6 0 3 0;
#X connect 6 0 3 1;
