#N canvas -2 62 1351 691 10;
#X declare -lib mrpeach;
#X obj 8 301 s start-rec;
#X obj 8 284 bng 15 250 50 0 empty empty empty 17 7 0 10 -258113 -1
-1;
#X obj 8 324 bng 15 250 50 0 empty empty empty 17 7 0 10 -260097 -1
-1;
#X obj 8 342 s stop-rec;
#X obj 784 -22 r start-rec;
#X obj 83 297 osc~ 440;
#X obj 147 320 tgl 15 0 empty empty empty 17 7 0 10 -262144 -1 -1 0
1;
#X obj 83 320 *~ 0;
#X obj 147 276 loadbang;
#X msg 147 298 0;
#X obj 216 244 mik-out;
#X text 16 544 todo ekvalizace;
#X obj 217 202 catch~ out_l;
#X obj 223 221 catch~ out_r;
#X obj 76 342 throw~ out_l;
#X obj 82 361 throw~ out_r;
#N canvas 339 105 756 645 input 0;
#X obj 272 36 adc~ 1 2 3 4 5 6 7 8;
#X obj 83 342 table loop-buffer8 1.323e+07;
#X obj 83 374 table loop-buffer7 1.323e+07;
#X obj 83 406 table loop-buffer6 1.323e+07;
#X obj 83 438 table loop-buffer5 1.323e+07;
#X obj 83 470 table loop-buffer4 1.323e+07;
#X obj 83 466 table loop-buffer3 1.323e+07;
#X obj 83 502 table loop-buffer2 1.323e+07;
#X obj 83 534 table loop-buffer1 1.323e+07;
#X obj 305 92 mik-tabwrite;
#X obj 514 92 mik-tabwrite;
#X obj 514 219 mik-tabwrite;
#X obj 305 219 mik-tabwrite;
#X obj 305 60 r start-rec;
#X obj 381 60 r stop-rec;
#X obj 300 346 mik-tabwrite;
#X obj 520 346 mik-tabwrite;
#X obj 520 473 mik-tabwrite;
#X obj 300 473 mik-tabwrite;
#X msg 455 472 0;
#X msg 674 472 1;
#X msg 454 346 2;
#X msg 674 346 3;
#X msg 456 218 4;
#X msg 666 218 5;
#X msg 459 92 6;
#X msg 668 92 7;
#X obj 185 -15 outlet~;
#X obj 234 -15 outlet~;
#X obj 284 -15 outlet~;
#X obj 334 -15 outlet~;
#X obj 384 -15 outlet~;
#X obj 436 -15 outlet~;
#X text 195 -35 1;
#X text 301 -36 3;
#X text 351 -36 4;
#X text 398 -36 5;
#X text 449 -35 6;
#X obj 487 -15 outlet~;
#X obj 537 -15 outlet~;
#X text 499 -35 7;
#X text 549 -35 8;
#X obj 514 60 r start-rec;
#X obj 590 60 r stop-rec;
#X obj 305 187 r start-rec;
#X obj 378 186 r stop-rec;
#X obj 514 187 r start-rec;
#X obj 588 186 r stop-rec;
#X obj 300 314 r start-rec;
#X obj 376 314 r stop-rec;
#X obj 520 314 r start-rec;
#X obj 596 314 r stop-rec;
#X obj 520 441 r start-rec;
#X obj 596 440 r stop-rec;
#X obj 300 441 r start-rec;
#X obj 377 440 r stop-rec;
#X text 247 -16 comment;
#X text 249 -34 2;
#X obj 449 60 r \$0-load;
#X obj 658 60 r \$0-load;
#X obj 446 186 r \$0-load;
#X obj 656 186 r \$0-load;
#X obj 444 314 r \$0-load;
#X obj 664 314 r \$0-load;
#X obj 664 440 r \$0-load;
#X obj 445 440 r \$0-load;
#X obj 142 104 s \$0-load;
#X obj 142 80 loadbang;
#X obj 124 82 bng 15 250 50 0 empty empty empty 17 7 0 10 -262144 -1
-1;
#X connect 0 0 18 0;
#X connect 0 0 27 0;
#X connect 0 1 17 0;
#X connect 0 1 28 0;
#X connect 0 2 15 0;
#X connect 0 2 29 0;
#X connect 0 3 16 0;
#X connect 0 3 30 0;
#X connect 0 4 12 0;
#X connect 0 4 31 0;
#X connect 0 5 11 0;
#X connect 0 5 32 0;
#X connect 0 6 9 0;
#X connect 0 6 38 0;
#X connect 0 7 10 0;
#X connect 0 7 39 0;
#X connect 13 0 9 1;
#X connect 14 0 9 2;
#X connect 19 0 18 3;
#X connect 20 0 17 3;
#X connect 21 0 15 3;
#X connect 22 0 16 3;
#X connect 23 0 12 3;
#X connect 24 0 11 3;
#X connect 25 0 9 3;
#X connect 26 0 10 3;
#X connect 42 0 10 1;
#X connect 43 0 10 2;
#X connect 44 0 12 1;
#X connect 45 0 12 2;
#X connect 46 0 11 1;
#X connect 47 0 11 2;
#X connect 48 0 15 1;
#X connect 49 0 15 2;
#X connect 50 0 16 1;
#X connect 51 0 16 2;
#X connect 52 0 17 1;
#X connect 53 0 17 2;
#X connect 54 0 18 1;
#X connect 55 0 18 2;
#X connect 58 0 25 0;
#X connect 59 0 26 0;
#X connect 60 0 23 0;
#X connect 61 0 24 0;
#X connect 62 0 21 0;
#X connect 63 0 22 0;
#X connect 64 0 20 0;
#X connect 65 0 19 0;
#X connect 67 0 66 0;
#X connect 68 0 66 0;
#X restore 72 6 pd input;
#X obj 34 255 throw~ out_l;
#X obj 117 255 throw~ out_r;
#X obj 914 -22 r start-rec;
#X obj 1044 -22 r start-rec;
#X obj 1174 -22 r start-rec;
#X text 16 564 todo opravit granular;
#X text 15 583 todo osc;
#N canvas 573 283 450 407 osc-controllers 0;
#X msg 268 38 connect 192.168.8.100;
#X text 279 19 receive;
#X obj 40 9 import mrpeach;
#X obj 31 55 udpreceive 9001;
#X obj 34 103 unpackOSC;
#X obj 34 130 routeOSC /mix /loop /granny;
#X obj 34 157 routeOSC /vol /pan /mute;
#X obj 29 252 s osc-mix-vol;
#X obj 53 203 s osc-mix-pan;
#X obj 111 182 s osc-mix-mute;
#X obj 193 158 routeOSC /record_start /record_stop;
#X obj 203 233 s start-rec;
#X obj 203 184 t b f;
#X obj 203 208 spigot;
#X obj 277 184 t b f;
#X obj 277 208 spigot;
#X obj 277 233 s stop-rec;
#X obj 146 97 print osc;
#X connect 3 0 4 0;
#X connect 3 0 17 0;
#X connect 4 0 5 0;
#X connect 5 0 6 0;
#X connect 5 3 10 0;
#X connect 6 0 7 0;
#X connect 6 1 8 0;
#X connect 6 2 9 0;
#X connect 10 0 12 0;
#X connect 10 1 14 0;
#X connect 12 0 13 0;
#X connect 12 1 13 1;
#X connect 13 0 11 0;
#X connect 14 0 15 0;
#X connect 14 1 15 1;
#X connect 15 0 16 0;
#X restore 12 383 pd osc-controllers;
#X msg 2 -18 1;
#X msg 29 -18 2;
#X msg 58 -18 3;
#X msg 90 -17 4;
#X msg 121 -17 5;
#X msg 155 -16 6;
#X msg 187 -15 7;
#X msg 218 -15 8;
#X msg 877 -23 1;
#X msg 1012 -24 2;
#X msg 1135 -24 3;
#X obj 180 298 s lb;
#X obj 200 280 bng 15 250 50 0 empty empty empty 17 7 0 10 -262144
-1 -1;
#X obj 78 -44 r lb;
#X obj 877 -38 r lb;
#X obj 1012 -39 r lb;
#X obj 1135 -40 r lb;
#X obj 1269 -39 r lb;
#X msg 1269 -22 4;
#N canvas 440 175 532 447 mockup 0;
#X obj 13 330 outlet~;
#X obj 82 330 outlet~;
#X obj 22 74 inlet;
#X obj 22 130 t b b b b;
#X msg 98 173 open ./wav/text_is.wav;
#X msg 23 196 open ./wav/text_is_lo.wav;
#X msg 84 222 start;
#X msg 41 247 start;
#X obj 246 65 inlet;
#X text 60 74 start;
#X text 288 64 stop;
#X obj 246 185 t b b;
#X msg 215 221 stop;
#X msg 235 260 stop;
#X obj 104 102 bng 15 250 50 0 empty empty empty 17 7 0 10 -204786
-1 -1;
#X obj 121 102 bng 15 250 50 0 empty empty empty 17 7 0 10 -261234
-1 -1;
#X obj 118 147 bng 15 250 50 0 empty empty empty 17 7 0 10 -262144
-1 -1;
#X obj 75 162 bng 15 250 50 0 empty empty empty 17 7 0 10 -262144 -1
-1;
#X obj 3 221 del 50;
#X obj 13 299 readsf~ 2;
#X obj 81 300 readsf~ 2;
#X obj 173 332 bng 15 250 50 0 empty empty empty 17 7 0 10 -262144
-1 -1;
#X obj 79 371 bng 15 250 50 0 empty empty empty 17 7 0 10 -262144 -1
-1;
#X obj 8 254 bng 15 250 50 0 empty empty empty 17 7 0 10 -262144 -1
-1;
#X obj 127 238 del 50;
#X obj 143 264 bng 15 250 50 0 empty empty empty 17 7 0 10 -262144
-1 -1;
#X obj 244 381 snapshot~;
#X obj 174 381 snapshot~;
#X floatatom 169 415 5 0 0 0 - - -;
#X floatatom 251 410 5 0 0 0 - - -;
#X obj 246 310 tgl 15 0 empty empty empty 17 7 0 10 -262144 -1 -1 0
1;
#X obj 313 354 bng 15 250 50 0 empty empty empty 17 7 0 10 -262144
-1 -1;
#X obj 240 343 metro 300;
#X connect 2 0 14 0;
#X connect 3 0 18 0;
#X connect 3 1 24 0;
#X connect 3 2 5 0;
#X connect 3 2 17 0;
#X connect 3 3 4 0;
#X connect 3 3 16 0;
#X connect 4 0 20 0;
#X connect 5 0 19 0;
#X connect 6 0 20 0;
#X connect 7 0 19 0;
#X connect 8 0 15 0;
#X connect 11 0 12 0;
#X connect 11 1 13 0;
#X connect 12 0 19 0;
#X connect 13 0 20 0;
#X connect 14 0 3 0;
#X connect 15 0 11 0;
#X connect 18 0 7 0;
#X connect 18 0 23 0;
#X connect 19 0 0 0;
#X connect 19 0 26 0;
#X connect 19 1 1 0;
#X connect 19 1 27 0;
#X connect 19 2 22 0;
#X connect 20 0 0 0;
#X connect 20 1 1 0;
#X connect 20 2 21 0;
#X connect 24 0 6 0;
#X connect 24 0 25 0;
#X connect 26 0 29 0;
#X connect 27 0 28 0;
#X connect 30 0 32 0;
#X connect 32 0 26 0;
#X connect 32 0 27 0;
#X connect 32 0 31 0;
#X coords 0 -1 1 1 40 20 2 100 100;
#X restore 13 408 pd mockup;
#X obj 14 452 throw~ out_l;
#X obj 47 432 throw~ out_r;
#X obj 105 38 m-s;
#X obj 454 -17 r start-rec;
#X obj 546 -37 r lb;
#X obj 15 500 s stop-all-loops;
#X obj 15 477 bng 15 250 50 0 empty empty empty 17 7 0 10 -262144 -1
-1;
#X text 76 413 mockup;
#X msg 546 -17 31;
#X obj 614 -16 r start-rec;
#X obj 706 -36 r lb;
#X obj 451 151 r start-rec;
#X obj 543 131 r lb;
#X msg 706 -16 32;
#X msg 543 151 33;
#X obj 126 501 s stop-all-grannys;
#X obj 133 479 bng 15 250 50 0 empty empty empty 17 7 0 10 -262144
-1 -1;
#X obj 97 465 bng 15 250 50 0 empty empty empty 17 7 0 10 -262144 -1
-1;
#X obj 786 70 mik-pan-out;
#X obj 614 150 r start-rec;
#X obj 706 130 r lb;
#X msg 706 150 32;
#X obj 454 4 mik-gran-opt;
#X obj 614 5 mik-gran-opt;
#X obj 451 172 mik-gran-opt;
#X obj 614 171 mik-gran-opt;
#X text 15 523 todo unmute restart phase;
#X obj 784 -4 mik-looper;
#X obj 784 105 r start-rec;
#X obj 914 105 r start-rec;
#X obj 1044 105 r start-rec;
#X obj 1174 105 r start-rec;
#X msg 877 104 1;
#X msg 1012 103 2;
#X msg 1135 103 3;
#X obj 877 89 r lb;
#X obj 1012 88 r lb;
#X obj 1135 87 r lb;
#X obj 1269 88 r lb;
#X msg 1269 105 4;
#X obj 784 233 r start-rec;
#X obj 914 233 r start-rec;
#X obj 1044 233 r start-rec;
#X obj 1174 233 r start-rec;
#X msg 877 232 1;
#X msg 1012 231 2;
#X msg 1135 231 3;
#X obj 877 217 r lb;
#X obj 1012 216 r lb;
#X obj 1135 215 r lb;
#X obj 1269 216 r lb;
#X msg 1269 233 4;
#X obj 784 360 r start-rec;
#X obj 914 360 r start-rec;
#X obj 1044 360 r start-rec;
#X obj 1174 360 r start-rec;
#X msg 877 359 1;
#X msg 1012 358 2;
#X msg 1135 358 3;
#X obj 877 344 r lb;
#X obj 1012 343 r lb;
#X obj 1135 342 r lb;
#X obj 1269 343 r lb;
#X msg 1269 360 4;
#X obj 784 487 r start-rec;
#X obj 914 487 r start-rec;
#X obj 1044 487 r start-rec;
#X obj 1174 487 r start-rec;
#X msg 877 486 1;
#X msg 1012 485 2;
#X msg 1135 485 3;
#X obj 877 471 r lb;
#X obj 1012 470 r lb;
#X obj 1135 469 r lb;
#X obj 1269 470 r lb;
#X msg 1269 487 4;
#X obj 914 66 mik-pan-out;
#X obj 1044 66 mik-pan-out;
#X obj 1174 66 mik-pan-out;
#X obj 784 194 mik-pan-out;
#X obj 914 193 mik-pan-out;
#X obj 1044 193 mik-pan-out;
#X obj 1174 193 mik-pan-out;
#X obj 784 322 mik-pan-out;
#X obj 914 321 mik-pan-out;
#X obj 1044 321 mik-pan-out;
#X obj 1174 321 mik-pan-out;
#X obj 784 449 mik-pan-out;
#X obj 914 448 mik-pan-out;
#X obj 1044 448 mik-pan-out;
#X obj 1174 448 mik-pan-out;
#X obj 784 576 mik-pan-out;
#X obj 914 575 mik-pan-out;
#X obj 1044 575 mik-pan-out;
#X obj 1174 575 mik-pan-out;
#X obj 284 -23 catch~ out_loop_r;
#X obj 250 -43 catch~ out_loop_l;
#X obj 451 317 r start-rec;
#X obj 543 297 r lb;
#X obj 614 316 r start-rec;
#X obj 706 296 r lb;
#X obj 451 338 mik-gran-opt;
#X obj 614 337 mik-gran-opt;
#X obj 451 483 r start-rec;
#X obj 543 463 r lb;
#X obj 614 482 r start-rec;
#X obj 706 462 r lb;
#X obj 451 504 mik-gran-opt;
#X obj 614 503 mik-gran-opt;
#X msg 543 317 34;
#X msg 706 316 35;
#X msg 543 483 36;
#X msg 706 482 37;
#X obj 454 108 mik-pan-gran-out;
#X obj 614 108 mik-pan-gran-out;
#X obj 451 274 mik-pan-gran-out;
#X obj 614 274 mik-pan-gran-out;
#X obj 451 440 mik-pan-gran-out;
#X obj 614 440 mik-pan-gran-out;
#X obj 451 606 mik-pan-gran-out;
#X obj 614 606 mik-pan-gran-out;
#X obj 300 -3 catch~ out_gran_l;
#X obj 334 17 catch~ out_gran_r;
#X obj 300 38 mik-out-filter;
#X obj 250 -2 mik-out-filter;
#X text 38 612 1 Ian VOX 2 Deska 3 Mat KBD 4 Ian TPWRTR 5 Mat VOX;
#X obj 180 37 m-s;
#X obj 5 38 m-s;
#X obj 30 38 m-s;
#X obj 55 38 m-s;
#X obj 80 38 m-s;
#X obj 130 38 m-s;
#X obj 155 38 m-s;
#X obj 115 320 / 20;
#X obj 914 -4 mik-looper;
#X obj 1044 -4 mik-looper;
#X obj 1174 -4 mik-looper;
#X obj 784 123 mik-looper;
#X obj 914 123 mik-looper;
#X obj 1044 123 mik-looper;
#X obj 1174 123 mik-looper;
#X obj 784 251 mik-looper;
#X obj 914 251 mik-looper;
#X obj 1044 251 mik-looper;
#X obj 1174 251 mik-looper;
#X obj 784 378 mik-looper;
#X obj 914 378 mik-looper;
#X obj 1044 378 mik-looper;
#X obj 1174 378 mik-looper;
#X obj 784 505 mik-looper;
#X obj 914 505 mik-looper;
#X obj 1044 505 mik-looper;
#X obj 1174 505 mik-looper;
#X connect 1 0 0 0;
#X connect 2 0 3 0;
#X connect 4 0 72 0;
#X connect 5 0 7 0;
#X connect 6 0 178 0;
#X connect 7 0 14 0;
#X connect 7 0 15 0;
#X connect 8 0 9 0;
#X connect 8 0 36 0;
#X connect 9 0 6 0;
#X connect 12 0 10 0;
#X connect 13 0 10 1;
#X connect 16 0 172 0;
#X connect 16 1 173 0;
#X connect 16 2 174 0;
#X connect 16 3 175 0;
#X connect 16 4 47 0;
#X connect 16 5 176 0;
#X connect 16 6 177 0;
#X connect 16 7 171 0;
#X connect 19 0 179 0;
#X connect 20 0 180 0;
#X connect 21 0 181 0;
#X connect 25 0 172 1;
#X connect 26 0 173 1;
#X connect 27 0 174 1;
#X connect 28 0 175 1;
#X connect 29 0 47 1;
#X connect 30 0 176 1;
#X connect 31 0 177 1;
#X connect 32 0 171 1;
#X connect 33 0 72 5;
#X connect 34 0 179 5;
#X connect 35 0 180 5;
#X connect 37 0 36 0;
#X connect 38 0 25 0;
#X connect 38 0 26 0;
#X connect 38 0 27 0;
#X connect 38 0 28 0;
#X connect 38 0 29 0;
#X connect 38 0 30 0;
#X connect 38 0 31 0;
#X connect 38 0 32 0;
#X connect 39 0 33 0;
#X connect 40 0 34 0;
#X connect 41 0 35 0;
#X connect 42 0 43 0;
#X connect 43 0 181 5;
#X connect 44 0 45 0;
#X connect 44 0 46 0;
#X connect 44 1 46 0;
#X connect 44 1 45 0;
#X connect 47 0 17 0;
#X connect 47 1 18 0;
#X connect 48 0 67 0;
#X connect 49 0 53 0;
#X connect 51 0 50 0;
#X connect 53 0 67 5;
#X connect 54 0 68 0;
#X connect 55 0 58 0;
#X connect 56 0 69 0;
#X connect 57 0 59 0;
#X connect 58 0 68 5;
#X connect 59 0 69 5;
#X connect 61 0 60 0;
#X connect 62 0 50 0;
#X connect 62 0 60 0;
#X connect 64 0 70 0;
#X connect 65 0 66 0;
#X connect 66 0 70 5;
#X connect 67 0 158 0;
#X connect 68 0 159 0;
#X connect 69 0 160 0;
#X connect 70 0 161 0;
#X connect 72 0 63 0;
#X connect 73 0 182 0;
#X connect 74 0 183 0;
#X connect 75 0 184 0;
#X connect 76 0 185 0;
#X connect 77 0 182 5;
#X connect 78 0 183 5;
#X connect 79 0 184 5;
#X connect 80 0 77 0;
#X connect 81 0 78 0;
#X connect 82 0 79 0;
#X connect 83 0 84 0;
#X connect 84 0 185 5;
#X connect 85 0 186 0;
#X connect 86 0 187 0;
#X connect 87 0 188 0;
#X connect 88 0 189 0;
#X connect 89 0 186 5;
#X connect 90 0 187 5;
#X connect 91 0 188 5;
#X connect 92 0 89 0;
#X connect 93 0 90 0;
#X connect 94 0 91 0;
#X connect 95 0 96 0;
#X connect 96 0 189 5;
#X connect 97 0 190 0;
#X connect 98 0 191 0;
#X connect 99 0 192 0;
#X connect 100 0 193 0;
#X connect 101 0 190 5;
#X connect 102 0 191 5;
#X connect 103 0 192 5;
#X connect 104 0 101 0;
#X connect 105 0 102 0;
#X connect 106 0 103 0;
#X connect 107 0 108 0;
#X connect 108 0 193 5;
#X connect 109 0 194 0;
#X connect 110 0 195 0;
#X connect 111 0 196 0;
#X connect 112 0 197 0;
#X connect 113 0 194 5;
#X connect 114 0 195 5;
#X connect 115 0 196 5;
#X connect 116 0 113 0;
#X connect 117 0 114 0;
#X connect 118 0 115 0;
#X connect 119 0 120 0;
#X connect 120 0 197 5;
#X connect 140 0 169 1;
#X connect 141 0 169 0;
#X connect 142 0 146 0;
#X connect 143 0 154 0;
#X connect 144 0 147 0;
#X connect 145 0 155 0;
#X connect 146 0 162 0;
#X connect 147 0 163 0;
#X connect 148 0 152 0;
#X connect 149 0 156 0;
#X connect 150 0 153 0;
#X connect 151 0 157 0;
#X connect 152 0 164 0;
#X connect 153 0 165 0;
#X connect 154 0 146 5;
#X connect 155 0 147 5;
#X connect 156 0 152 5;
#X connect 157 0 153 5;
#X connect 166 0 168 0;
#X connect 167 0 168 1;
#X connect 171 0 17 0;
#X connect 171 1 18 0;
#X connect 172 0 17 0;
#X connect 172 1 18 0;
#X connect 173 0 17 0;
#X connect 173 1 18 0;
#X connect 174 0 17 0;
#X connect 174 1 18 0;
#X connect 175 0 17 0;
#X connect 175 1 18 0;
#X connect 176 0 17 0;
#X connect 176 1 18 0;
#X connect 177 0 17 0;
#X connect 177 1 18 0;
#X connect 178 0 7 1;
#X connect 179 0 121 0;
#X connect 180 0 122 0;
#X connect 181 0 123 0;
#X connect 182 0 124 0;
#X connect 183 0 125 0;
#X connect 184 0 126 0;
#X connect 185 0 127 0;
#X connect 186 0 128 0;
#X connect 187 0 129 0;
#X connect 188 0 130 0;
#X connect 189 0 131 0;
#X connect 190 0 132 0;
#X connect 191 0 133 0;
#X connect 192 0 134 0;
#X connect 193 0 135 0;
#X connect 194 0 136 0;
#X connect 195 0 137 0;
#X connect 196 0 138 0;
#X connect 197 0 139 0;
