#N canvas 408 190 450 375 10;
#X obj 246 159 r phrase-end;
#X obj 108 265 mik-timer;
#X obj 196 156 bng 15 250 50 0 empty empty empty 17 7 0 10 -4032 -1
-1;
#X obj 196 197 tgl 15 0 empty empty empty 17 7 0 10 -262144 -1 -1 0
1;
#X msg 196 176 1;
#X obj 198 238 spigot;
#X obj 34 159 inlet;
#X msg 167 226 0;
#X obj 81 159 r phrase-start;
#X obj 336 6 inlet;
#X obj 336 28 s \$0-ch;
#X obj 81 203 mik-bang-filter;
#X obj 129 181 r \$0-ch;
#X obj 228 202 mik-bang-filter;
#X obj 276 180 r \$0-ch;
#X obj 78 352 outlet;
#X obj 161 332 outlet;
#X obj 196 4 inlet;
#X obj 78 331 f;
#X obj 196 27 s \$0-in;
#X obj 195 136 r \$0-in;
#X obj 59 307 r \$0-in;
#X obj 116 109 bng 15 250 50 0 empty empty empty 17 7 0 10 -262144
-1 -1;
#X obj 116 129 bng 15 250 50 0 empty empty empty 17 7 0 10 -262144
-1 -1;
#X floatatom 38 355 5 0 0 0 - - -;
#X floatatom 131 352 5 0 0 0 - - -;
#X floatatom 231 334 5 0 0 0 - - -;
#X floatatom 344 70 5 0 0 0 - - -;
#X connect 0 0 13 0;
#X connect 1 0 18 1;
#X connect 1 0 25 0;
#X connect 1 2 16 0;
#X connect 1 2 26 0;
#X connect 2 0 4 0;
#X connect 3 0 5 1;
#X connect 4 0 3 0;
#X connect 5 0 1 2;
#X connect 5 0 7 0;
#X connect 6 0 1 0;
#X connect 7 0 3 0;
#X connect 8 0 11 0;
#X connect 9 0 10 0;
#X connect 9 0 27 0;
#X connect 11 0 1 1;
#X connect 11 0 22 0;
#X connect 12 0 11 1;
#X connect 13 0 5 0;
#X connect 13 0 23 0;
#X connect 14 0 13 1;
#X connect 17 0 19 0;
#X connect 18 0 15 0;
#X connect 18 0 24 0;
#X connect 20 0 2 0;
#X connect 21 0 18 0;
#X coords 0 375 1 374 50 50 0;
